  0
SECTION
  2
HEADER
  9
$ACADVER
  1
AC1015
  9
$ACADMAINTVER
 70
     6
  9
$DWGCODEPAGE
  3
ANSI_1252
  9
$INSBASE
 10
0.0
 20
0.0
 30
0.0
  9
$EXTMIN
 10
0.0
 20
0.0
 30
0.0
  9
$EXTMAX
 10
900.0
 20
1220.0
 30
0.0
  9
$LIMMIN
 10
0.0
 20
0.0
  9
$LIMMAX
 10
900.0
 20
1220.0
  9
$ORTHOMODE
 70
     0
  9
$REGENMODE
 70
     1
  9
$FILLMODE
 70
     1
  9
$QTEXTMODE
 70
     0
  9
$MIRRTEXT
 70
     1
  9
$LTSCALE
 40
1.0
  9
$ATTMODE
 70
     1
  9
$TEXTSIZE
 40
3.5
  9
$TRACEWID
 40
1.0
  9
$TEXTSTYLE
  7
Standard
  9
$CLAYER
  8
0
  9
$CELTYPE
  6
ByLayer
  9
$CECOLOR
 62
   256
  9
$CELTSCALE
 40
1.0
  9
$DISPSILH
 70
     0
  9
$DIMSCALE
 40
1.0
  9
$DIMASZ
 40
3.302
  9
$DIMEXO
 40
1.0
  9
$DIMDLI
 40
3.75
  9
$DIMRND
 40
0.0
  9
$DIMDLE
 40
0.0
  9
$DIMEXE
 40
1.0
  9
$DIMTP
 40
0.0
  9
$DIMTM
 40
0.0
  9
$DIMTXT
 40
3.5
  9
$DIMCEN
 40
2.5
  9
$DIMTSZ
 40
0.0
  9
$DIMTOL
 70
     0
  9
$DIMLIM
 70
     0
  9
$DIMTIH
 70
     1
  9
$DIMTOH
 70
     1
  9
$DIMSE1
 70
     0
  9
$DIMSE2
 70
     0
  9
$DIMTAD
 70
     1
  9
$DIMZIN
 70
     1
  9
$DIMBLK
  1

  9
$DIMASO
 70
     1
  9
$DIMSHO
 70
     1
  9
$DIMPOST
  1

  9
$DIMAPOST
  1

  9
$DIMALT
 70
     0
  9
$DIMALTD
 70
     3
  9
$DIMALTF
 40
0.0393700787
  9
$DIMLFAC
 40
5.0
  9
$DIMTOFL
 70
     1
  9
$DIMTVP
 40
0.0
  9
$DIMTIX
 70
     0
  9
$DIMSOXD
 70
     0
  9
$DIMSAH
 70
     0
  9
$DIMBLK1
  1

  9
$DIMBLK2
  1

  9
$DIMSTYLE
  2
ISO-25
  9
$DIMCLRD
 70
     0
  9
$DIMCLRE
 70
     0
  9
$DIMCLRT
 70
     0
  9
$DIMTFAC
 40
1.0
  9
$DIMGAP
 40
1.524
  9
$DIMJUST
 70
     0
  9
$DIMSD1
 70
     0
  9
$DIMSD2
 70
     0
  9
$DIMTOLJ
 70
     0
  9
$DIMTZIN
 70
     1
  9
$DIMALTZ
 70
     0
  9
$DIMALTTZ
 70
     0
  9
$DIMUPT
 70
     0
  9
$DIMDEC
 70
     2
  9
$DIMTDEC
 70
     2
  9
$DIMALTU
 70
     2
  9
$DIMALTTD
 70
     3
  9
$DIMTXSTY
  7
Standard
  9
$DIMAUNIT
 70
     0
  9
$DIMADEC
 70
     2
  9
$DIMALTRND
 40
0.0
  9
$DIMAZIN
 70
     0
  9
$DIMDSEP
 70
    44
  9
$DIMATFIT
 70
     3
  9
$DIMFRAC
 70
     0
  9
$DIMLDRBLK
  1

  9
$DIMLUNIT
 70
     2
  9
$DIMLWD
 70
    -2
  9
$DIMLWE
 70
    -2
  9
$DIMTMOVE
 70
     0
  9
$LUNITS
 70
     2
  9
$LUPREC
 70
     2
  9
$SKETCHINC
 40
1.0
  9
$FILLETRAD
 40
10.0
  9
$AUNITS
 70
     0
  9
$AUPREC
 70
     2
  9
$MENU
  1
.
  9
$ELEVATION
 40
0.0
  9
$PELEVATION
 40
0.0
  9
$THICKNESS
 40
0.0
  9
$LIMCHECK
 70
     0
  9
$CHAMFERA
 40
0.0
  9
$CHAMFERB
 40
0.0
  9
$CHAMFERC
 40
0.0
  9
$CHAMFERD
 40
0.0
  9
$SKPOLY
 70
     0
  9
$TDCREATE
 40
2460031.555053032
  9
$TDUCREATE
 40
2460031.471719699
  9
$TDUPDATE
 40
2460031.555053519
  9
$TDUUPDATE
 40
2460031.471720185
  9
$TDINDWG
 40
0.0000000116
  9
$TDUSRTIMER
 40
0.0000000116
  9
$USRTIMER
 70
     1
  9
$ANGBASE
 50
0.0
  9
$ANGDIR
 70
     0
  9
$PDMODE
 70
     0
  9
$PDSIZE
 40
-1.0
  9
$PLINEWID
 40
0.0
  9
$SPLFRAME
 70
     0
  9
$SPLINETYPE
 70
     6
  9
$SPLINESEGS
 70
     8
  9
$HANDSEED
  5
339
  9
$SURFTAB1
 70
     6
  9
$SURFTAB2
 70
     6
  9
$SURFTYPE
 70
     6
  9
$SURFU
 70
     6
  9
$SURFV
 70
     6
  9
$UCSBASE
  2

  9
$UCSNAME
  2

  9
$UCSORG
 10
0.0
 20
0.0
 30
0.0
  9
$UCSXDIR
 10
1.0
 20
0.0
 30
0.0
  9
$UCSYDIR
 10
0.0
 20
1.0
 30
0.0
  9
$UCSORTHOREF
  2

  9
$UCSORTHOVIEW
 70
     0
  9
$UCSORGTOP
 10
0.0
 20
0.0
 30
0.0
  9
$UCSORGBOTTOM
 10
0.0
 20
0.0
 30
0.0
  9
$UCSORGLEFT
 10
0.0
 20
0.0
 30
0.0
  9
$UCSORGRIGHT
 10
0.0
 20
0.0
 30
0.0
  9
$UCSORGFRONT
 10
0.0
 20
0.0
 30
0.0
  9
$UCSORGBACK
 10
0.0
 20
0.0
 30
0.0
  9
$PUCSBASE
  2

  9
$PUCSNAME
  2

  9
$PUCSORG
 10
0.0
 20
0.0
 30
0.0
  9
$PUCSXDIR
 10
1.0
 20
0.0
 30
0.0
  9
$PUCSYDIR
 10
0.0
 20
1.0
 30
0.0
  9
$PUCSORTHOREF
  2

  9
$PUCSORTHOVIEW
 70
     0
  9
$PUCSORGTOP
 10
0.0
 20
0.0
 30
0.0
  9
$PUCSORGBOTTOM
 10
0.0
 20
0.0
 30
0.0
  9
$PUCSORGLEFT
 10
0.0
 20
0.0
 30
0.0
  9
$PUCSORGRIGHT
 10
0.0
 20
0.0
 30
0.0
  9
$PUCSORGFRONT
 10
0.0
 20
0.0
 30
0.0
  9
$PUCSORGBACK
 10
0.0
 20
0.0
 30
0.0
  9
$USERI1
 70
     0
  9
$USERI2
 70
     0
  9
$USERI3
 70
     0
  9
$USERI4
 70
     0
  9
$USERI5
 70
     0
  9
$USERR1
 40
0.0
  9
$USERR2
 40
0.0
  9
$USERR3
 40
0.0
  9
$USERR4
 40
0.0
  9
$USERR5
 40
0.0
  9
$WORLDVIEW
 70
     1
  9
$SHADEDGE
 70
     3
  9
$SHADEDIF
 70
    70
  9
$TILEMODE
 70
     1
  9
$MAXACTVP
 70
    64
  9
$PINSBASE
 10
0.0
 20
0.0
 30
0.0
  9
$PLIMCHECK
 70
     0
  9
$PEXTMIN
 10
1.0000000000E+20
 20
1.0000000000E+20
 30
1.0000000000E+20
  9
$PEXTMAX
 10
-1.0000000000E+20
 20
-1.0000000000E+20
 30
-1.0000000000E+20
  9
$PLIMMIN
 10
0.0
 20
0.0
  9
$PLIMMAX
 10
420.0
 20
297.0
  9
$UNITMODE
 70
     0
  9
$VISRETAIN
 70
     1
  9
$PLINEGEN
 70
     0
  9
$PSLTSCALE
 70
     1
  9
$TREEDEPTH
 70
  3020
  9
$CMLSTYLE
  2
Standard
  9
$CMLJUST
 70
     0
  9
$CMLSCALE
 40
20.0
  9
$PROXYGRAPHICS
 70
     1
  9
$MEASUREMENT
 70
     1
  9
$CELWEIGHT
370
    -1
  9
$ENDCAPS
280
     0
  9
$JOINSTYLE
280
     0
  9
$LWDISPLAY
290
     1
  9
$INSUNITS
 70
     4
  9
$HYPERLINKBASE
  1

  9
$STYLESHEET
  1

  9
$XEDIT
290
     1
  9
$CEPSNTYPE
380
     0
  9
$PSTYLEMODE
290
     1
  9
$FINGERPRINTGUID
  2
{651057ca-18aa-4b0b-9be8-6821ce31dbd0}
  9
$VERSIONGUID
  2
{FAEB1C32-E019-11D5-929B-00C0DF256EC4}
  9
$EXTNAMES
290
     1
  9
$PSVPSCALE
 40
0.0
  9
$OLESTARTUP
290
     0
  0
ENDSEC
  0
SECTION
  2
CLASSES
  0
CLASS
  1
ACDBDICTIONARYWDFLT
  2
AcDbDictionaryWithDefault
  3
ObjectDBX Classes
 90
        0
280
     0
281
     0
  0
CLASS
  1
VISUALSTYLE
  2
AcDbVisualStyle
  3
ObjectDBX Classes
 90
     4095
280
     0
281
     0
  0
CLASS
  1
MATERIAL
  2
AcDbMaterial
  3
ObjectDBX Classes
 90
     1153
280
     0
281
     0
  0
CLASS
  1
SCALE
  2
AcDbScale
  3
ObjectDBX Classes
 90
     1153
280
     0
281
     0
  0
CLASS
  1
TABLESTYLE
  2
AcDbTableStyle
  3
ObjectDBX Classes
 90
     4095
280
     0
281
     0
  0
CLASS
  1
MLEADERSTYLE
  2
AcDbMLeaderStyle
  3
ACDB_MLEADERSTYLE_CLASS
 90
     4095
280
     0
281
     0
  0
CLASS
  1
SUN
  2
AcDbSun
  3
SCENEOE
 90
     1153
280
     0
281
     0
  0
CLASS
  1
ACDBPLACEHOLDER
  2
AcDbPlaceHolder
  3
ObjectDBX Classes
 90
        0
280
     0
281
     0
  0
CLASS
  1
LAYOUT
  2
AcDbLayout
  3
ObjectDBX Classes
 90
        0
280
     0
281
     0
  0
ENDSEC
  0
SECTION
  2
TABLES
  0
TABLE
  2
VPORT
  5
8
330
0
100
AcDbSymbolTable
 70
     1
  0
VPORT
  5
29
330
8
100
AcDbSymbolTableRecord
100
AcDbViewportTableRecord
  2
*Active
 70
     0
 10
0.0
 20
0.0
 11
1.0
 21
1.0
 12
450.0
 22
610.0
 13
0.0
 23
0.0
 14
10.0
 24
10.0
 15
10.0
 25
10.0
 16
0.0
 26
0.0
 36
1.0
 17
0.0
 27
0.0
 37
0.0
 40
1220.0
 41
0.737704918
 42
50.0
 43
0.0
 44
0.0
 50
0.0
 51
0.0
 71
     0
 72
  2000
 73
     1
 74
     3
 75
     0
 76
     0
 77
     0
 78
     0
281
     0
 65
     1
110
0.0
120
0.0
130
0.0
111
1.0
121
0.0
131
0.0
112
0.0
122
1.0
132
0.0
 79
     0
146
0.0
  0
ENDTAB
  0
TABLE
  2
LTYPE
  5
5
330
0
100
AcDbSymbolTable
 70
     6
  0
LTYPE
  5
14
330
5
100
AcDbSymbolTableRecord
100
AcDbLinetypeTableRecord
  2
ByBlock
 70
     0
  3

 72
    65
 73
     0
 40
0.0
  0
LTYPE
  5
15
330
5
100
AcDbSymbolTableRecord
100
AcDbLinetypeTableRecord
  2
ByLayer
 70
     0
  3

 72
    65
 73
     0
 40
0.0
  0
LTYPE
  5
16
330
5
100
AcDbSymbolTableRecord
100
AcDbLinetypeTableRecord
  2
Continuous
 70
     0
  3
Solid line
 72
    65
 73
     0
 40
0.0
  0
LTYPE
  5
6E
330
5
100
AcDbSymbolTableRecord
100
AcDbLinetypeTableRecord
  2
HIDDEN
 70
     0
  3
Hidden __ __ __ __ __ __ __ __ __ __ __ __ __ __
 72
    65
 73
     2
 40
1.905
 49
1.27
 74
     0
 49
-0.635
 74
     0
  0
LTYPE
  5
6F
330
5
100
AcDbSymbolTableRecord
100
AcDbLinetypeTableRecord
  2
PHANTOM
 70
     0
  3
Phantom ______  __  __  ______  __  __  ______
 72
    65
 73
     6
 40
12.7
 49
6.35
 74
     0
 49
-1.27
 74
     0
 49
1.27
 74
     0
 49
-1.27
 74
     0
 49
1.27
 74
     0
 49
-1.27
 74
     0
  0
LTYPE
  5
70
330
5
100
AcDbSymbolTableRecord
100
AcDbLinetypeTableRecord
  2
CENTER
 70
     0
  3
Center ____ _ ____ _ ____ _ ____ _ ____ _ ____
 72
    65
 73
     4
 40
10.16
 49
6.35
 74
     0
 49
-1.27
 74
     0
 49
1.27
 74
     0
 49
-1.27
 74
     0
  0
LTYPE
  5
71
330
5
100
AcDbSymbolTableRecord
100
AcDbLinetypeTableRecord
  2
CENTERX2
 70
     0
  3
Center (2x) ________  __  ________  __  _____
 72
    65
 73
     4
 40
20.32
 49
12.7
 74
     0
 49
-2.54
 74
     0
 49
2.54
 74
     0
 49
-2.54
 74
     0
  0
LTYPE
  5
72
330
5
100
AcDbSymbolTableRecord
100
AcDbLinetypeTableRecord
  2
DOT2
 70
     0
  3
Dot (.5x) ........................................
 72
    65
 73
     2
 40
0.635
 49
0.0
 74
     0
 49
-0.635
 74
     0
  0
ENDTAB
  0
TABLE
  2
LAYER
  5
2
330
0
100
AcDbSymbolTable
 70
     1
  0
LAYER
  5
10
330
2
100
AcDbSymbolTableRecord
100
AcDbLayerTableRecord
  2
0
 70
     0
 62
     7
  6
Continuous
370
    -3
390
F
  0
ENDTAB
  0
TABLE
  2
STYLE
  5
3
330
0
100
AcDbSymbolTable
 70
     2
  0
STYLE
  5
11
330
3
100
AcDbSymbolTableRecord
100
AcDbTextStyleTableRecord
  2
Standard
 70
     0
 40
0.0
 41
1.0
 50
0.0
 71
     0
 42
3.5
  3
txt
  4

  0
STYLE
  5
335
330
3
100
AcDbSymbolTableRecord
100
AcDbTextStyleTableRecord
  2
SLDTEXTSTYLE0
 70
     0
 40
0.0
 41
0.7
 50
0.0
 71
     0
 42
3.5
  3
TXT
  4

  0
ENDTAB
  0
TABLE
  2
VIEW
  5
6
330
0
100
AcDbSymbolTable
 70
     0
  0
ENDTAB
  0
TABLE
  2
UCS
  5
7
330
0
100
AcDbSymbolTable
 70
     0
  0
ENDTAB
  0
TABLE
  2
APPID
  5
9
330
0
100
AcDbSymbolTable
 70
     1
  0
APPID
  5
12
330
9
100
AcDbSymbolTableRecord
100
AcDbRegAppTableRecord
  2
ACAD
 70
     0
  0
ENDTAB
  0
TABLE
  2
DIMSTYLE
  5
A
330
0
100
AcDbSymbolTable
 70
     1
100
AcDbDimStyleTable
  0
DIMSTYLE
105
27
330
A
100
AcDbSymbolTableRecord
100
AcDbDimStyleTableRecord
  2
ISO-25
 70
     0
 41
2.5
 42
0.625
 43
3.75
 44
1.25
 73
     0
 74
     0
 77
     1
 78
     8
140
2.5
141
2.5
143
0.0393700787
147
0.625
171
     3
172
     1
178
     0
271
     2
272
     2
274
     3
278
    44
283
     0
284
     8
340
11
  0
ENDTAB
  0
TABLE
  2
BLOCK_RECORD
  5
1
330
0
100
AcDbSymbolTable
 70
     1
  0
BLOCK_RECORD
  5
1F
330
1
100
AcDbSymbolTableRecord
100
AcDbBlockTableRecord
  2
*Model_Space
340
22
  0
BLOCK_RECORD
  5
1B
330
1
100
AcDbSymbolTableRecord
100
AcDbBlockTableRecord
  2
*Paper_Space
340
1E
  0
BLOCK_RECORD
  5
23
330
1
100
AcDbSymbolTableRecord
100
AcDbBlockTableRecord
  2
*Paper_Space0
340
26
  0
ENDTAB
  0
ENDSEC
  0
SECTION
  2
BLOCKS
  0
BLOCK
  5
20
330
1F
100
AcDbEntity
  8
0
100
AcDbBlockBegin
  2
*Model_Space
 70
     0
 10
0.0
 20
0.0
 30
0.0
  3
*Model_Space
  1

  0
ENDBLK
  5
21
330
1F
100
AcDbEntity
  8
0
100
AcDbBlockEnd
  0
BLOCK
  5
1C
330
1B
100
AcDbEntity
 67
     1
  8
0
100
AcDbBlockBegin
  2
*Paper_Space
 70
     0
 10
0.0
 20
0.0
 30
0.0
  3
*Paper_Space
  1

  0
ENDBLK
  5
1D
330
1B
100
AcDbEntity
 67
     1
  8
0
100
AcDbBlockEnd
  0
BLOCK
  5
24
330
23
100
AcDbEntity
  8
0
100
AcDbBlockBegin
  2
*Paper_Space0
 70
     0
 10
0.0
 20
0.0
 30
0.0
  3
*Paper_Space0
  1

  0
ENDBLK
  5
25
330
23
100
AcDbEntity
  8
0
100
AcDbBlockEnd
  0
ENDSEC
  0
SECTION
  2
ENTITIES
  0
LINE
  5
73
330
1F
100
AcDbEntity
  8
0
  6
Continuous
 62
     7
370
    25
100
AcDbLine
 10
802.8395699338
 20
1126.4032067113
 30
0.0
 11
805.3851543461
 21
1128.9487911236
 31
0.0
  0
LINE
  5
74
330
1F
100
AcDbEntity
  8
0
  6
Continuous
 62
     7
370
    25
100
AcDbLine
 10
812.0319580892
 20
1117.2108185559
 30
0.0
 11
802.8395699338
 21
1126.4032067113
 31
0.0
  0
LINE
  5
75
330
1F
100
AcDbEntity
  8
0
  6
Continuous
 62
     7
370
    25
100
AcDbLine
 10
814.5775425015
 20
1119.7564029682
 30
0.0
 11
812.0319580892
 21
1117.2108185559
 31
0.0
  0
LINE
  5
76
330
1F
100
AcDbEntity
  8
0
  6
Continuous
 62
     7
370
    25
100
AcDbLine
 10
805.3851543461
 20
1128.9487911236
 30
0.0
 11
814.5775425015
 21
1119.7564029682
 31
0.0
  0
LINE
  5
77
330
1F
100
AcDbEntity
  8
0
  6
Continuous
 62
     7
370
    25
100
AcDbLine
 10
349.0989870747
 20
1139.9598741093
 30
0.0
 11
367.5694150703
 21
1107.9681543835
 31
0.0
  0
LINE
  5
78
330
1F
100
AcDbEntity
  8
0
  6
Continuous
 62
     7
370
    25
100
AcDbLine
 10
330.6285590792
 20
1107.9681543835
 30
0.0
 11
349.0989870747
 21
1139.9598741093
 31
0.0
  0
LINE
  5
79
330
1F
100
AcDbEntity
  8
0
  6
Continuous
 62
     7
370
    25
100
AcDbLine
 10
367.5694150703
 20
1107.9681543835
 30
0.0
 11
330.6285590792
 21
1107.9681543835
 31
0.0
  0
LINE
  5
7A
330
1F
100
AcDbEntity
  8
0
  6
Continuous
 62
     7
370
    25
100
AcDbLine
 10
419.0989870747
 20
1139.9598741093
 30
0.0
 11
437.5694150703
 21
1107.9681543835
 31
0.0
  0
LINE
  5
7B
330
1F
100
AcDbEntity
  8
0
  6
Continuous
 62
     7
370
    25
100
AcDbLine
 10
400.6285590792
 20
1107.9681543835
 30
0.0
 11
419.0989870747
 21
1139.9598741093
 31
0.0
  0
LINE
  5
7C
330
1F
100
AcDbEntity
  8
0
  6
Continuous
 62
     7
370
    25
100
AcDbLine
 10
437.5694150703
 20
1107.9681543835
 30
0.0
 11
400.6285590792
 21
1107.9681543835
 31
0.0
  0
LINE
  5
7D
330
1F
100
AcDbEntity
  8
0
  6
Continuous
 62
     7
370
    25
100
AcDbLine
 10
295.2978409789
 20
1139.9598741093
 30
0.0
 11
332.23869697
 21
1139.9598741093
 31
0.0
  0
LINE
  5
7E
330
1F
100
AcDbEntity
  8
0
  6
Continuous
 62
     7
370
    25
100
AcDbLine
 10
313.7682689744
 20
1107.9681543835
 30
0.0
 11
295.2978409789
 21
1139.9598741093
 31
0.0
  0
LINE
  5
7F
330
1F
100
AcDbEntity
  8
0
  6
Continuous
 62
     7
370
    25
100
AcDbLine
 10
332.23869697
 20
1139.9598741093
 30
0.0
 11
313.7682689744
 21
1107.9681543835
 31
0.0
  0
LINE
  5
80
330
1F
100
AcDbEntity
  8
0
  6
Continuous
 62
     7
370
    25
100
AcDbLine
 10
643.4126526558
 20
1078.9780451385
 30
0.0
 11
646.4126526558
 21
1078.9780451385
 31
0.0
  0
LINE
  5
81
330
1F
100
AcDbEntity
  8
0
  6
Continuous
 62
     7
370
    25
100
AcDbLine
 10
643.4126526558
 20
1068.9780451385
 30
0.0
 11
643.4126526558
 21
1078.9780451385
 31
0.0
  0
LINE
  5
82
330
1F
100
AcDbEntity
  8
0
  6
Continuous
 62
     7
370
    25
100
AcDbLine
 10
646.4126526558
 20
1068.9780451385
 30
0.0
 11
643.4126526558
 21
1068.9780451385
 31
0.0
  0
LINE
  5
83
330
1F
100
AcDbEntity
  8
0
  6
Continuous
 62
     7
370
    25
100
AcDbLine
 10
646.4126526558
 20
1078.9780451385
 30
0.0
 11
646.4126526558
 21
1068.9780451385
 31
0.0
  0
LINE
  5
84
330
1F
100
AcDbEntity
  8
0
  6
Continuous
 62
     7
370
    25
100
AcDbLine
 10
643.4126526558
 20
1098.9780451385
 30
0.0
 11
646.4126526558
 21
1098.9780451385
 31
0.0
  0
LINE
  5
85
330
1F
100
AcDbEntity
  8
0
  6
Continuous
 62
     7
370
    25
100
AcDbLine
 10
643.4126526558
 20
1088.9780451385
 30
0.0
 11
643.4126526558
 21
1098.9780451385
 31
0.0
  0
LINE
  5
86
330
1F
100
AcDbEntity
  8
0
  6
Continuous
 62
     7
370
    25
100
AcDbLine
 10
646.4126526558
 20
1088.9780451385
 30
0.0
 11
643.4126526558
 21
1088.9780451385
 31
0.0
  0
LINE
  5
87
330
1F
100
AcDbEntity
  8
0
  6
Continuous
 62
     7
370
    25
100
AcDbLine
 10
646.4126526558
 20
1098.9780451385
 30
0.0
 11
646.4126526558
 21
1088.9780451385
 31
0.0
  0
LINE
  5
88
330
1F
100
AcDbEntity
  8
0
  6
Continuous
 62
     7
370
    25
100
AcDbLine
 10
225.2978409789
 20
1139.9598741093
 30
0.0
 11
262.23869697
 21
1139.9598741093
 31
0.0
  0
LINE
  5
89
330
1F
100
AcDbEntity
  8
0
  6
Continuous
 62
     7
370
    25
100
AcDbLine
 10
243.7682689744
 20
1107.9681543835
 30
0.0
 11
225.2978409789
 21
1139.9598741093
 31
0.0
  0
LINE
  5
8A
330
1F
100
AcDbEntity
  8
0
  6
Continuous
 62
     7
370
    25
100
AcDbLine
 10
262.23869697
 20
1139.9598741093
 30
0.0
 11
243.7682689744
 21
1107.9681543835
 31
0.0
  0
LINE
  5
8B
330
1F
100
AcDbEntity
  8
0
  6
Continuous
 62
     7
370
    25
100
AcDbLine
 10
365.2978409789
 20
1139.9598741093
 30
0.0
 11
402.23869697
 21
1139.9598741093
 31
0.0
  0
LINE
  5
8C
330
1F
100
AcDbEntity
  8
0
  6
Continuous
 62
     7
370
    25
100
AcDbLine
 10
383.7682689744
 20
1107.9681543835
 30
0.0
 11
365.2978409789
 21
1139.9598741093
 31
0.0
  0
LINE
  5
8D
330
1F
100
AcDbEntity
  8
0
  6
Continuous
 62
     7
370
    25
100
AcDbLine
 10
402.23869697
 20
1139.9598741093
 30
0.0
 11
383.7682689744
 21
1107.9681543835
 31
0.0
  0
LINE
  5
8E
330
1F
100
AcDbEntity
  8
0
  6
Continuous
 62
     7
370
    25
100
AcDbLine
 10
643.4126526558
 20
1018.9780451385
 30
0.0
 11
646.4126526558
 21
1018.9780451385
 31
0.0
  0
LINE
  5
8F
330
1F
100
AcDbEntity
  8
0
  6
Continuous
 62
     7
370
    25
100
AcDbLine
 10
643.4126526558
 20
1008.9780451385
 30
0.0
 11
643.4126526558
 21
1018.9780451385
 31
0.0
  0
LINE
  5
90
330
1F
100
AcDbEntity
  8
0
  6
Continuous
 62
     7
370
    25
100
AcDbLine
 10
646.4126526558
 20
1008.9780451385
 30
0.0
 11
643.4126526558
 21
1008.9780451385
 31
0.0
  0
LINE
  5
91
330
1F
100
AcDbEntity
  8
0
  6
Continuous
 62
     7
370
    25
100
AcDbLine
 10
646.4126526558
 20
1018.9780451385
 30
0.0
 11
646.4126526558
 21
1008.9780451385
 31
0.0
  0
LINE
  5
92
330
1F
100
AcDbEntity
  8
0
  6
Continuous
 62
     7
370
    25
100
AcDbLine
 10
643.4126526558
 20
1058.9780451385
 30
0.0
 11
646.4126526558
 21
1058.9780451385
 31
0.0
  0
LINE
  5
93
330
1F
100
AcDbEntity
  8
0
  6
Continuous
 62
     7
370
    25
100
AcDbLine
 10
643.4126526558
 20
1048.9780451385
 30
0.0
 11
643.4126526558
 21
1058.9780451385
 31
0.0
  0
LINE
  5
94
330
1F
100
AcDbEntity
  8
0
  6
Continuous
 62
     7
370
    25
100
AcDbLine
 10
646.4126526558
 20
1048.9780451385
 30
0.0
 11
643.4126526558
 21
1048.9780451385
 31
0.0
  0
LINE
  5
95
330
1F
100
AcDbEntity
  8
0
  6
Continuous
 62
     7
370
    25
100
AcDbLine
 10
646.4126526558
 20
1058.9780451385
 30
0.0
 11
646.4126526558
 21
1048.9780451385
 31
0.0
  0
LINE
  5
96
330
1F
100
AcDbEntity
  8
0
  6
Continuous
 62
     7
370
    25
100
AcDbLine
 10
279.0989870747
 20
1139.9598741093
 30
0.0
 11
297.5694150703
 21
1107.9681543835
 31
0.0
  0
LINE
  5
97
330
1F
100
AcDbEntity
  8
0
  6
Continuous
 62
     7
370
    25
100
AcDbLine
 10
260.6285590792
 20
1107.9681543835
 30
0.0
 11
279.0989870747
 21
1139.9598741093
 31
0.0
  0
LINE
  5
98
330
1F
100
AcDbEntity
  8
0
  6
Continuous
 62
     7
370
    25
100
AcDbLine
 10
297.5694150703
 20
1107.9681543835
 30
0.0
 11
260.6285590792
 21
1107.9681543835
 31
0.0
  0
LINE
  5
99
330
1F
100
AcDbEntity
  8
0
  6
Continuous
 62
     7
370
    25
100
AcDbLine
 10
155.2978409789
 20
1139.9598741093
 30
0.0
 11
192.23869697
 21
1139.9598741093
 31
0.0
  0
LINE
  5
9A
330
1F
100
AcDbEntity
  8
0
  6
Continuous
 62
     7
370
    25
100
AcDbLine
 10
173.7682689744
 20
1107.9681543835
 30
0.0
 11
155.2978409789
 21
1139.9598741093
 31
0.0
  0
LINE
  5
9B
330
1F
100
AcDbEntity
  8
0
  6
Continuous
 62
     7
370
    25
100
AcDbLine
 10
192.23869697
 20
1139.9598741093
 30
0.0
 11
173.7682689744
 21
1107.9681543835
 31
0.0
  0
LINE
  5
9C
330
1F
100
AcDbEntity
  8
0
  6
Continuous
 62
     7
370
    25
100
AcDbLine
 10
839.0989870747
 20
1139.9598741093
 30
0.0
 11
857.5694150703
 21
1107.9681543835
 31
0.0
  0
LINE
  5
9D
330
1F
100
AcDbEntity
  8
0
  6
Continuous
 62
     7
370
    25
100
AcDbLine
 10
820.6285590792
 20
1107.9681543835
 30
0.0
 11
839.0989870747
 21
1139.9598741093
 31
0.0
  0
LINE
  5
9E
330
1F
100
AcDbEntity
  8
0
  6
Continuous
 62
     7
370
    25
100
AcDbLine
 10
857.5694150703
 20
1107.9681543835
 30
0.0
 11
820.6285590792
 21
1107.9681543835
 31
0.0
  0
LINE
  5
9F
330
1F
100
AcDbEntity
  8
0
  6
Continuous
 62
     7
370
    25
100
AcDbLine
 10
839.0989870747
 20
1182.1384075763
 30
0.0
 11
857.5694150703
 21
1150.1466878505
 31
0.0
  0
LINE
  5
A0
330
1F
100
AcDbEntity
  8
0
  6
Continuous
 62
     7
370
    25
100
AcDbLine
 10
820.6285590792
 20
1150.1466878505
 30
0.0
 11
839.0989870747
 21
1182.1384075763
 31
0.0
  0
LINE
  5
A1
330
1F
100
AcDbEntity
  8
0
  6
Continuous
 62
     7
370
    25
100
AcDbLine
 10
857.5694150703
 20
1150.1466878505
 30
0.0
 11
820.6285590792
 21
1150.1466878505
 31
0.0
  0
LINE
  5
A2
330
1F
100
AcDbEntity
  8
0
  6
Continuous
 62
     7
370
    25
100
AcDbLine
 10
769.0989870747
 20
1139.9598741093
 30
0.0
 11
787.5694150703
 21
1107.9681543835
 31
0.0
  0
LINE
  5
A3
330
1F
100
AcDbEntity
  8
0
  6
Continuous
 62
     7
370
    25
100
AcDbLine
 10
750.6285590792
 20
1107.9681543835
 30
0.0
 11
769.0989870747
 21
1139.9598741093
 31
0.0
  0
LINE
  5
A4
330
1F
100
AcDbEntity
  8
0
  6
Continuous
 62
     7
370
    25
100
AcDbLine
 10
787.5694150703
 20
1107.9681543835
 30
0.0
 11
750.6285590792
 21
1107.9681543835
 31
0.0
  0
LINE
  5
A5
330
1F
100
AcDbEntity
  8
0
  6
Continuous
 62
     7
370
    25
100
AcDbLine
 10
769.0989870747
 20
1182.1384075763
 30
0.0
 11
787.5694150703
 21
1150.1466878505
 31
0.0
  0
LINE
  5
A6
330
1F
100
AcDbEntity
  8
0
  6
Continuous
 62
     7
370
    25
100
AcDbLine
 10
750.6285590792
 20
1150.1466878505
 30
0.0
 11
769.0989870747
 21
1182.1384075763
 31
0.0
  0
LINE
  5
A7
330
1F
100
AcDbEntity
  8
0
  6
Continuous
 62
     7
370
    25
100
AcDbLine
 10
787.5694150703
 20
1150.1466878505
 30
0.0
 11
750.6285590792
 21
1150.1466878505
 31
0.0
  0
LINE
  5
A8
330
1F
100
AcDbEntity
  8
0
  6
Continuous
 62
     7
370
    25
100
AcDbLine
 10
559.0989870747
 20
1139.9598741093
 30
0.0
 11
577.5694150703
 21
1107.9681543835
 31
0.0
  0
LINE
  5
A9
330
1F
100
AcDbEntity
  8
0
  6
Continuous
 62
     7
370
    25
100
AcDbLine
 10
540.6285590792
 20
1107.9681543835
 30
0.0
 11
559.0989870747
 21
1139.9598741093
 31
0.0
  0
LINE
  5
AA
330
1F
100
AcDbEntity
  8
0
  6
Continuous
 62
     7
370
    25
100
AcDbLine
 10
577.5694150703
 20
1107.9681543835
 30
0.0
 11
540.6285590792
 21
1107.9681543835
 31
0.0
  0
LINE
  5
AB
330
1F
100
AcDbEntity
  8
0
  6
Continuous
 62
     7
370
    25
100
AcDbLine
 10
505.2978409789
 20
1139.9598741093
 30
0.0
 11
542.23869697
 21
1139.9598741093
 31
0.0
  0
LINE
  5
AC
330
1F
100
AcDbEntity
  8
0
  6
Continuous
 62
     7
370
    25
100
AcDbLine
 10
523.7682689744
 20
1107.9681543835
 30
0.0
 11
505.2978409789
 21
1139.9598741093
 31
0.0
  0
LINE
  5
AD
330
1F
100
AcDbEntity
  8
0
  6
Continuous
 62
     7
370
    25
100
AcDbLine
 10
542.23869697
 20
1139.9598741093
 30
0.0
 11
523.7682689744
 21
1107.9681543835
 31
0.0
  0
LINE
  5
AE
330
1F
100
AcDbEntity
  8
0
  6
Continuous
 62
     7
370
    25
100
AcDbLine
 10
785.6285590792
 20
1182.1384075763
 30
0.0
 11
822.5694150703
 21
1182.1384075763
 31
0.0
  0
LINE
  5
AF
330
1F
100
AcDbEntity
  8
0
  6
Continuous
 62
     7
370
    25
100
AcDbLine
 10
804.0989870747
 20
1150.1466878505
 30
0.0
 11
785.6285590792
 21
1182.1384075763
 31
0.0
  0
LINE
  5
B0
330
1F
100
AcDbEntity
  8
0
  6
Continuous
 62
     7
370
    25
100
AcDbLine
 10
822.5694150703
 20
1182.1384075763
 30
0.0
 11
804.0989870747
 21
1150.1466878505
 31
0.0
  0
LINE
  5
B1
330
1F
100
AcDbEntity
  8
0
  6
Continuous
 62
     7
370
    25
100
AcDbLine
 10
715.2978409789
 20
1139.9598741093
 30
0.0
 11
752.23869697
 21
1139.9598741093
 31
0.0
  0
LINE
  5
B2
330
1F
100
AcDbEntity
  8
0
  6
Continuous
 62
     7
370
    25
100
AcDbLine
 10
733.7682689744
 20
1107.9681543835
 30
0.0
 11
715.2978409789
 21
1139.9598741093
 31
0.0
  0
LINE
  5
B3
330
1F
100
AcDbEntity
  8
0
  6
Continuous
 62
     7
370
    25
100
AcDbLine
 10
752.23869697
 20
1139.9598741093
 30
0.0
 11
733.7682689744
 21
1107.9681543835
 31
0.0
  0
LINE
  5
B4
330
1F
100
AcDbEntity
  8
0
  6
Continuous
 62
     7
370
    25
100
AcDbLine
 10
715.6285590792
 20
1182.1384075763
 30
0.0
 11
752.5694150703
 21
1182.1384075763
 31
0.0
  0
LINE
  5
B5
330
1F
100
AcDbEntity
  8
0
  6
Continuous
 62
     7
370
    25
100
AcDbLine
 10
734.0989870747
 20
1150.1466878505
 30
0.0
 11
715.6285590792
 21
1182.1384075763
 31
0.0
  0
LINE
  5
B6
330
1F
100
AcDbEntity
  8
0
  6
Continuous
 62
     7
370
    25
100
AcDbLine
 10
752.5694150703
 20
1182.1384075763
 30
0.0
 11
734.0989870747
 21
1150.1466878505
 31
0.0
  0
LINE
  5
B7
330
1F
100
AcDbEntity
  8
0
  6
Continuous
 62
     7
370
    25
100
AcDbLine
 10
645.6285590792
 20
1182.1384075763
 30
0.0
 11
682.5694150703
 21
1182.1384075763
 31
0.0
  0
LINE
  5
B8
330
1F
100
AcDbEntity
  8
0
  6
Continuous
 62
     7
370
    25
100
AcDbLine
 10
664.0989870747
 20
1150.1466878505
 30
0.0
 11
645.6285590792
 21
1182.1384075763
 31
0.0
  0
LINE
  5
B9
330
1F
100
AcDbEntity
  8
0
  6
Continuous
 62
     7
370
    25
100
AcDbLine
 10
682.5694150703
 20
1182.1384075763
 30
0.0
 11
664.0989870747
 21
1150.1466878505
 31
0.0
  0
LINE
  5
BA
330
1F
100
AcDbEntity
  8
0
  6
Continuous
 62
     7
370
    25
100
AcDbLine
 10
225.6285590792
 20
1097.1384075763
 30
0.0
 11
262.5694150703
 21
1097.1384075763
 31
0.0
  0
LINE
  5
BB
330
1F
100
AcDbEntity
  8
0
  6
Continuous
 62
     7
370
    25
100
AcDbLine
 10
244.0989870747
 20
1065.1466878505
 30
0.0
 11
225.6285590792
 21
1097.1384075763
 31
0.0
  0
LINE
  5
BC
330
1F
100
AcDbEntity
  8
0
  6
Continuous
 62
     7
370
    25
100
AcDbLine
 10
262.5694150703
 20
1097.1384075763
 30
0.0
 11
244.0989870747
 21
1065.1466878505
 31
0.0
  0
LINE
  5
BD
330
1F
100
AcDbEntity
  8
0
  6
Continuous
 62
     7
370
    25
100
AcDbLine
 10
495.9126526558
 20
1148.9780451385
 30
0.0
 11
495.9126526558
 21
1152.5780451385
 31
0.0
  0
LINE
  5
BE
330
1F
100
AcDbEntity
  8
0
  6
Continuous
 62
     7
370
    25
100
AcDbLine
 10
505.9126526558
 20
1148.9780451385
 30
0.0
 11
495.9126526558
 21
1148.9780451385
 31
0.0
  0
LINE
  5
BF
330
1F
100
AcDbEntity
  8
0
  6
Continuous
 62
     7
370
    25
100
AcDbLine
 10
505.9126526558
 20
1152.5780451385
 30
0.0
 11
505.9126526558
 21
1148.9780451385
 31
0.0
  0
LINE
  5
C0
330
1F
100
AcDbEntity
  8
0
  6
Continuous
 62
     7
370
    25
100
AcDbLine
 10
495.9126526558
 20
1152.5780451385
 30
0.0
 11
505.9126526558
 21
1152.5780451385
 31
0.0
  0
LINE
  5
C1
330
1F
100
AcDbEntity
  8
0
  6
Continuous
 62
     7
370
    25
100
AcDbLine
 10
205.4126526558
 20
1148.9780451385
 30
0.0
 11
205.4126526558
 21
1152.5780451385
 31
0.0
  0
LINE
  5
C2
330
1F
100
AcDbEntity
  8
0
  6
Continuous
 62
     7
370
    25
100
AcDbLine
 10
215.4126526558
 20
1148.9780451385
 30
0.0
 11
205.4126526558
 21
1148.9780451385
 31
0.0
  0
LINE
  5
C3
330
1F
100
AcDbEntity
  8
0
  6
Continuous
 62
     7
370
    25
100
AcDbLine
 10
215.4126526558
 20
1152.5780451385
 30
0.0
 11
215.4126526558
 21
1148.9780451385
 31
0.0
  0
LINE
  5
C4
330
1F
100
AcDbEntity
  8
0
  6
Continuous
 62
     7
370
    25
100
AcDbLine
 10
205.4126526558
 20
1152.5780451385
 30
0.0
 11
215.4126526558
 21
1152.5780451385
 31
0.0
  0
LINE
  5
C5
330
1F
100
AcDbEntity
  8
0
  6
Continuous
 62
     7
370
    25
100
AcDbLine
 10
295.6285590792
 20
1097.1384075763
 30
0.0
 11
332.5694150703
 21
1097.1384075763
 31
0.0
  0
LINE
  5
C6
330
1F
100
AcDbEntity
  8
0
  6
Continuous
 62
     7
370
    25
100
AcDbLine
 10
314.0989870747
 20
1065.1466878505
 30
0.0
 11
295.6285590792
 21
1097.1384075763
 31
0.0
  0
LINE
  5
C7
330
1F
100
AcDbEntity
  8
0
  6
Continuous
 62
     7
370
    25
100
AcDbLine
 10
332.5694150703
 20
1097.1384075763
 30
0.0
 11
314.0989870747
 21
1065.1466878505
 31
0.0
  0
LINE
  5
C8
330
1F
100
AcDbEntity
  8
0
  6
Continuous
 62
     7
370
    25
100
AcDbLine
 10
279.0989870747
 20
1097.1384075763
 30
0.0
 11
297.5694150703
 21
1065.1466878505
 31
0.0
  0
LINE
  5
C9
330
1F
100
AcDbEntity
  8
0
  6
Continuous
 62
     7
370
    25
100
AcDbLine
 10
260.6285590792
 20
1065.1466878505
 30
0.0
 11
279.0989870747
 21
1097.1384075763
 31
0.0
  0
LINE
  5
CA
330
1F
100
AcDbEntity
  8
0
  6
Continuous
 62
     7
370
    25
100
AcDbLine
 10
297.5694150703
 20
1065.1466878505
 30
0.0
 11
260.6285590792
 21
1065.1466878505
 31
0.0
  0
LINE
  5
CB
330
1F
100
AcDbEntity
  8
0
  6
Continuous
 62
     7
370
    25
100
AcDbLine
 10
225.2978409789
 20
1054.9598741093
 30
0.0
 11
262.23869697
 21
1054.9598741093
 31
0.0
  0
LINE
  5
CC
330
1F
100
AcDbEntity
  8
0
  6
Continuous
 62
     7
370
    25
100
AcDbLine
 10
243.7682689744
 20
1022.9681543835
 30
0.0
 11
225.2978409789
 21
1054.9598741093
 31
0.0
  0
LINE
  5
CD
330
1F
100
AcDbEntity
  8
0
  6
Continuous
 62
     7
370
    25
100
AcDbLine
 10
262.23869697
 20
1054.9598741093
 30
0.0
 11
243.7682689744
 21
1022.9681543835
 31
0.0
  0
LINE
  5
CE
330
1F
100
AcDbEntity
  8
0
  6
Continuous
 62
     7
370
    25
100
AcDbLine
 10
209.0989870747
 20
1054.9598741093
 30
0.0
 11
227.5694150703
 21
1022.9681543835
 31
0.0
  0
LINE
  5
CF
330
1F
100
AcDbEntity
  8
0
  6
Continuous
 62
     7
370
    25
100
AcDbLine
 10
190.6285590792
 20
1022.9681543835
 30
0.0
 11
209.0989870747
 21
1054.9598741093
 31
0.0
  0
LINE
  5
D0
330
1F
100
AcDbEntity
  8
0
  6
Continuous
 62
     7
370
    25
100
AcDbLine
 10
227.5694150703
 20
1022.9681543835
 30
0.0
 11
190.6285590792
 21
1022.9681543835
 31
0.0
  0
LINE
  5
D1
330
1F
100
AcDbEntity
  8
0
  6
Continuous
 62
     7
370
    25
100
AcDbLine
 10
120.0366154807
 20
1033.7822454376
 30
0.0
 11
120.0366154807
 21
1037.3822454376
 31
0.0
  0
LINE
  5
D2
330
1F
100
AcDbEntity
  8
0
  6
Continuous
 62
     7
370
    25
100
AcDbLine
 10
133.0366154807
 20
1033.7822454376
 30
0.0
 11
120.0366154807
 21
1033.7822454376
 31
0.0
  0
LINE
  5
D3
330
1F
100
AcDbEntity
  8
0
  6
Continuous
 62
     7
370
    25
100
AcDbLine
 10
133.0366154807
 20
1037.3822454376
 30
0.0
 11
133.0366154807
 21
1033.7822454376
 31
0.0
  0
LINE
  5
D4
330
1F
100
AcDbEntity
  8
0
  6
Continuous
 62
     7
370
    25
100
AcDbLine
 10
120.0366154807
 20
1037.3822454376
 30
0.0
 11
133.0366154807
 21
1037.3822454376
 31
0.0
  0
LINE
  5
D5
330
1F
100
AcDbEntity
  8
0
  6
Continuous
 62
     7
370
    25
100
AcDbLine
 10
209.0989870747
 20
1097.1384075763
 30
0.0
 11
227.5694150703
 21
1065.1466878505
 31
0.0
  0
LINE
  5
D6
330
1F
100
AcDbEntity
  8
0
  6
Continuous
 62
     7
370
    25
100
AcDbLine
 10
190.6285590792
 20
1065.1466878505
 30
0.0
 11
209.0989870747
 21
1097.1384075763
 31
0.0
  0
LINE
  5
D7
330
1F
100
AcDbEntity
  8
0
  6
Continuous
 62
     7
370
    25
100
AcDbLine
 10
227.5694150703
 20
1065.1466878505
 30
0.0
 11
190.6285590792
 21
1065.1466878505
 31
0.0
  0
LINE
  5
D8
330
1F
100
AcDbEntity
  8
0
  6
Continuous
 62
     7
370
    25
100
AcDbLine
 10
863.3928005351
 20
1038.6482638668
 30
0.0
 11
860.9804059639
 21
1035.9761200771
 31
0.0
  0
LINE
  5
D9
330
1F
100
AcDbEntity
  8
0
  6
Continuous
 62
     7
370
    25
100
AcDbLine
 10
853.7433924055
 20
1047.3596887071
 30
0.0
 11
863.3928005351
 21
1038.6482638668
 31
0.0
  0
LINE
  5
DA
330
1F
100
AcDbEntity
  8
0
  6
Continuous
 62
     7
370
    25
100
AcDbLine
 10
851.3309978344
 20
1044.6875449174
 30
0.0
 11
853.7433924055
 21
1047.3596887071
 31
0.0
  0
LINE
  5
DB
330
1F
100
AcDbEntity
  8
0
  6
Continuous
 62
     7
370
    25
100
AcDbLine
 10
860.9804059639
 20
1035.9761200771
 30
0.0
 11
851.3309978344
 21
1044.6875449174
 31
0.0
  0
LINE
  5
DC
330
1F
100
AcDbEntity
  8
0
  6
Continuous
 62
     7
370
    25
100
AcDbLine
 10
884.3923348433
 20
1077.9979841419
 30
0.0
 11
883.3896529851
 21
1074.5404374552
 31
0.0
  0
LINE
  5
DD
330
1F
100
AcDbEntity
  8
0
  6
Continuous
 62
     7
370
    25
100
AcDbLine
 10
871.9067495856
 20
1081.6187797412
 30
0.0
 11
884.3923348433
 21
1077.9979841419
 31
0.0
  0
LINE
  5
DE
330
1F
100
AcDbEntity
  8
0
  6
Continuous
 62
     7
370
    25
100
AcDbLine
 10
870.9040677273
 20
1078.1612330544
 30
0.0
 11
871.9067495856
 21
1081.6187797412
 31
0.0
  0
LINE
  5
DF
330
1F
100
AcDbEntity
  8
0
  6
Continuous
 62
     7
370
    25
100
AcDbLine
 10
883.3896529851
 20
1074.5404374552
 30
0.0
 11
870.9040677273
 21
1078.1612330544
 31
0.0
  0
LINE
  5
E0
330
1F
100
AcDbEntity
  8
0
  6
Continuous
 62
     7
370
    25
100
AcDbLine
 10
635.9126526558
 20
1152.5780451385
 30
0.0
 11
646.4126526558
 21
1152.5780451385
 31
0.0
  0
LINE
  5
E1
330
1F
100
AcDbEntity
  8
0
  6
Continuous
 62
     7
370
    25
100
AcDbLine
 10
635.9126526558
 20
1148.9780451385
 30
0.0
 11
635.9126526558
 21
1152.5780451385
 31
0.0
  0
LINE
  5
E2
330
1F
100
AcDbEntity
  8
0
  6
Continuous
 62
     7
370
    25
100
AcDbLine
 10
625.9126526558
 20
1148.9780451385
 30
0.0
 11
635.9126526558
 21
1148.9780451385
 31
0.0
  0
LINE
  5
E3
330
1F
100
AcDbEntity
  8
0
  6
Continuous
 62
     7
370
    25
100
AcDbLine
 10
625.9126526558
 20
1152.5780451385
 30
0.0
 11
625.9126526558
 21
1148.9780451385
 31
0.0
  0
LINE
  5
E4
330
1F
100
AcDbEntity
  8
0
  6
Continuous
 62
     7
370
    25
100
AcDbLine
 10
615.9126526558
 20
1152.5780451385
 30
0.0
 11
625.9126526558
 21
1152.5780451385
 31
0.0
  0
LINE
  5
E5
330
1F
100
AcDbEntity
  8
0
  6
Continuous
 62
     7
370
    25
100
AcDbLine
 10
615.9126526558
 20
1148.9780451385
 30
0.0
 11
615.9126526558
 21
1152.5780451385
 31
0.0
  0
LINE
  5
E6
330
1F
100
AcDbEntity
  8
0
  6
Continuous
 62
     7
370
    25
100
AcDbLine
 10
605.9126526558
 20
1148.9780451385
 30
0.0
 11
615.9126526558
 21
1148.9780451385
 31
0.0
  0
LINE
  5
E7
330
1F
100
AcDbEntity
  8
0
  6
Continuous
 62
     7
370
    25
100
AcDbLine
 10
605.9126526558
 20
1152.5780451385
 30
0.0
 11
605.9126526558
 21
1148.9780451385
 31
0.0
  0
LINE
  5
E8
330
1F
100
AcDbEntity
  8
0
  6
Continuous
 62
     7
370
    25
100
AcDbLine
 10
595.9126526558
 20
1152.5780451385
 30
0.0
 11
605.9126526558
 21
1152.5780451385
 31
0.0
  0
LINE
  5
E9
330
1F
100
AcDbEntity
  8
0
  6
Continuous
 62
     7
370
    25
100
AcDbLine
 10
595.9126526558
 20
1148.9780451385
 30
0.0
 11
595.9126526558
 21
1152.5780451385
 31
0.0
  0
LINE
  5
EA
330
1F
100
AcDbEntity
  8
0
  6
Continuous
 62
     7
370
    25
100
AcDbLine
 10
593.4126526558
 20
1148.9780451385
 30
0.0
 11
595.9126526558
 21
1148.9780451385
 31
0.0
  0
LINE
  5
EB
330
1F
100
AcDbEntity
  8
0
  6
Continuous
 62
     7
370
    25
100
AcDbLine
 10
593.4126526558
 20
1113.9780451385
 30
0.0
 11
593.4126526558
 21
1148.9780451385
 31
0.0
  0
LINE
  5
EC
330
1F
100
AcDbEntity
  8
0
  6
Continuous
 62
     7
370
    25
100
AcDbLine
 10
643.4126526558
 20
1113.9780451385
 30
0.0
 11
593.4126526558
 21
1113.9780451385
 31
0.0
  0
LINE
  5
ED
330
1F
100
AcDbEntity
  8
0
  6
Continuous
 62
     7
370
    25
100
AcDbLine
 10
643.4126526558
 20
1108.9780451385
 30
0.0
 11
643.4126526558
 21
1113.9780451385
 31
0.0
  0
LINE
  5
EE
330
1F
100
AcDbEntity
  8
0
  6
Continuous
 62
     7
370
    25
100
AcDbLine
 10
646.4126526558
 20
1108.9780451385
 30
0.0
 11
643.4126526558
 21
1108.9780451385
 31
0.0
  0
LINE
  5
EF
330
1F
100
AcDbEntity
  8
0
  6
Continuous
 62
     7
370
    25
100
AcDbLine
 10
646.4126526558
 20
1118.9780451385
 30
0.0
 11
646.4126526558
 21
1108.9780451385
 31
0.0
  0
LINE
  5
F0
330
1F
100
AcDbEntity
  8
0
  6
Continuous
 62
     7
370
    25
100
AcDbLine
 10
643.4126526558
 20
1118.9780451385
 30
0.0
 11
646.4126526558
 21
1118.9780451385
 31
0.0
  0
LINE
  5
F1
330
1F
100
AcDbEntity
  8
0
  6
Continuous
 62
     7
370
    25
100
AcDbLine
 10
643.4126526558
 20
1128.9780451385
 30
0.0
 11
643.4126526558
 21
1118.9780451385
 31
0.0
  0
LINE
  5
F2
330
1F
100
AcDbEntity
  8
0
  6
Continuous
 62
     7
370
    25
100
AcDbLine
 10
646.4126526558
 20
1128.9780451385
 30
0.0
 11
643.4126526558
 21
1128.9780451385
 31
0.0
  0
LINE
  5
F3
330
1F
100
AcDbEntity
  8
0
  6
Continuous
 62
     7
370
    25
100
AcDbLine
 10
646.4126526558
 20
1138.9780451385
 30
0.0
 11
646.4126526558
 21
1128.9780451385
 31
0.0
  0
LINE
  5
F4
330
1F
100
AcDbEntity
  8
0
  6
Continuous
 62
     7
370
    25
100
AcDbLine
 10
643.4126526558
 20
1138.9780451385
 30
0.0
 11
646.4126526558
 21
1138.9780451385
 31
0.0
  0
LINE
  5
F5
330
1F
100
AcDbEntity
  8
0
  6
Continuous
 62
     7
370
    25
100
AcDbLine
 10
643.4126526558
 20
1148.9780451385
 30
0.0
 11
643.4126526558
 21
1138.9780451385
 31
0.0
  0
LINE
  5
F6
330
1F
100
AcDbEntity
  8
0
  6
Continuous
 62
     7
370
    25
100
AcDbLine
 10
646.4126526558
 20
1148.9780451385
 30
0.0
 11
643.4126526558
 21
1148.9780451385
 31
0.0
  0
LINE
  5
F7
330
1F
100
AcDbEntity
  8
0
  6
Continuous
 62
     7
370
    25
100
AcDbLine
 10
646.4126526558
 20
1152.5780451385
 30
0.0
 11
646.4126526558
 21
1148.9780451385
 31
0.0
  0
LINE
  5
F8
330
1F
100
AcDbEntity
  8
0
  6
Continuous
 62
     7
370
    25
100
AcDbLine
 10
116.3851384776
 20
1112.6371809491
 30
0.0
 11
116.3851384776
 21
1116.2371809491
 31
0.0
  0
LINE
  5
F9
330
1F
100
AcDbEntity
  8
0
  6
Continuous
 62
     7
370
    25
100
AcDbLine
 10
129.3851384776
 20
1112.6371809491
 30
0.0
 11
116.3851384776
 21
1112.6371809491
 31
0.0
  0
LINE
  5
FA
330
1F
100
AcDbEntity
  8
0
  6
Continuous
 62
     7
370
    25
100
AcDbLine
 10
129.3851384776
 20
1116.2371809491
 30
0.0
 11
129.3851384776
 21
1112.6371809491
 31
0.0
  0
LINE
  5
FB
330
1F
100
AcDbEntity
  8
0
  6
Continuous
 62
     7
370
    25
100
AcDbLine
 10
116.3851384776
 20
1116.2371809491
 30
0.0
 11
129.3851384776
 21
1116.2371809491
 31
0.0
  0
LINE
  5
FC
330
1F
100
AcDbEntity
  8
0
  6
Continuous
 62
     7
370
    25
100
AcDbLine
 10
827.7992045959
 20
1068.2949028027
 30
0.0
 11
824.1992045959
 21
1068.2949028027
 31
0.0
  0
LINE
  5
FD
330
1F
100
AcDbEntity
  8
0
  6
Continuous
 62
     7
370
    25
100
AcDbLine
 10
827.7992045959
 20
1081.2949028027
 30
0.0
 11
827.7992045959
 21
1068.2949028027
 31
0.0
  0
LINE
  5
FE
330
1F
100
AcDbEntity
  8
0
  6
Continuous
 62
     7
370
    25
100
AcDbLine
 10
824.1992045959
 20
1081.2949028027
 30
0.0
 11
827.7992045959
 21
1081.2949028027
 31
0.0
  0
LINE
  5
FF
330
1F
100
AcDbEntity
  8
0
  6
Continuous
 62
     7
370
    25
100
AcDbLine
 10
824.1992045959
 20
1068.2949028027
 30
0.0
 11
824.1992045959
 21
1081.2949028027
 31
0.0
  0
LINE
  5
100
330
1F
100
AcDbEntity
  8
0
  6
Continuous
 62
     7
370
    25
100
AcDbLine
 10
643.4126526558
 20
1028.9780451385
 30
0.0
 11
643.4126526558
 21
1038.9780451385
 31
0.0
  0
LINE
  5
101
330
1F
100
AcDbEntity
  8
0
  6
Continuous
 62
     7
370
    25
100
AcDbLine
 10
646.4126526558
 20
1028.9780451385
 30
0.0
 11
643.4126526558
 21
1028.9780451385
 31
0.0
  0
LINE
  5
102
330
1F
100
AcDbEntity
  8
0
  6
Continuous
 62
     7
370
    25
100
AcDbLine
 10
646.4126526558
 20
1021.4514261678
 30
0.0
 11
646.4126526558
 21
1028.9780451385
 31
0.0
  0
ARC
  5
103
330
1F
100
AcDbEntity
  8
0
  6
Continuous
 62
     7
370
    25
100
AcDbCircle
 10
648.9126526558
 20
1021.4514261678
 30
0.0
 40
2.499999999999886
100
AcDbArc
 50
180.0
 51
270.0
  0
LINE
  5
104
330
1F
100
AcDbEntity
  8
0
  6
Continuous
 62
     7
370
    25
100
AcDbLine
 10
652.1126526558
 20
1018.9514261678
 30
0.0
 11
648.9126526558
 21
1018.9514261678
 31
0.0
  0
ARC
  5
105
330
1F
100
AcDbEntity
  8
0
  6
Continuous
 62
     7
370
    25
100
AcDbCircle
 10
652.1126526558
 20
1021.4514261678
 30
0.0
 40
2.499999999999886
100
AcDbArc
 50
270.0
 51
0.0
  0
LINE
  5
106
330
1F
100
AcDbEntity
  8
0
  6
Continuous
 62
     7
370
    25
100
AcDbLine
 10
654.6126526558
 20
1034.6514261678
 30
0.0
 11
654.6126526558
 21
1021.4514261678
 31
0.0
  0
LINE
  5
107
330
1F
100
AcDbEntity
  8
0
  6
Continuous
 62
     7
370
    25
100
AcDbLine
 10
646.4126526558
 20
1034.6514261678
 30
0.0
 11
654.6126526558
 21
1034.6514261678
 31
0.0
  0
LINE
  5
108
330
1F
100
AcDbEntity
  8
0
  6
Continuous
 62
     7
370
    25
100
AcDbLine
 10
646.4126526558
 20
1038.9780451385
 30
0.0
 11
646.4126526558
 21
1034.6514261678
 31
0.0
  0
LINE
  5
109
330
1F
100
AcDbEntity
  8
0
  6
Continuous
 62
     7
370
    25
100
AcDbLine
 10
643.4126526558
 20
1038.9780451385
 30
0.0
 11
646.4126526558
 21
1038.9780451385
 31
0.0
  0
LINE
  5
10A
330
1F
100
AcDbEntity
  8
0
  6
Continuous
 62
     7
370
    25
100
AcDbLine
 10
826.2999147207
 20
1012.001138938
 30
0.0
 11
822.9478509924
 21
1010.6882532759
 31
0.0
  0
LINE
  5
10B
330
1F
100
AcDbEntity
  8
0
  6
Continuous
 62
     7
370
    25
100
AcDbLine
 10
821.5589387188
 20
1024.1058135123
 30
0.0
 11
826.2999147207
 21
1012.001138938
 31
0.0
  0
LINE
  5
10C
330
1F
100
AcDbEntity
  8
0
  6
Continuous
 62
     7
370
    25
100
AcDbLine
 10
818.2068749905
 20
1022.7929278502
 30
0.0
 11
821.5589387188
 21
1024.1058135123
 31
0.0
  0
LINE
  5
10D
330
1F
100
AcDbEntity
  8
0
  6
Continuous
 62
     7
370
    25
100
AcDbLine
 10
822.9478509924
 20
1010.6882532759
 30
0.0
 11
818.2068749905
 21
1022.7929278502
 31
0.0
  0
LINE
  5
10E
330
1F
100
AcDbEntity
  8
0
  6
Continuous
 62
     7
370
    25
100
AcDbLine
 10
879.8554323441
 20
1143.0410221298
 30
0.0
 11
881.208620487
 21
1139.7050242506
 31
0.0
  0
LINE
  5
10F
330
1F
100
AcDbEntity
  8
0
  6
Continuous
 62
     7
370
    25
100
AcDbLine
 10
867.8087733359
 20
1138.1545093915
 30
0.0
 11
879.8554323441
 21
1143.0410221298
 31
0.0
  0
LINE
  5
110
330
1F
100
AcDbEntity
  8
0
  6
Continuous
 62
     7
370
    25
100
AcDbLine
 10
869.1619614788
 20
1134.8185115123
 30
0.0
 11
867.8087733359
 21
1138.1545093915
 31
0.0
  0
LINE
  5
111
330
1F
100
AcDbEntity
  8
0
  6
Continuous
 62
     7
370
    25
100
AcDbLine
 10
881.208620487
 20
1139.7050242506
 30
0.0
 11
869.1619614788
 21
1134.8185115123
 31
0.0
  0
LINE
  5
112
330
1F
100
AcDbEntity
  8
0
  6
Continuous
 62
     7
370
    25
100
AcDbLine
 10
185.4126526558
 20
1148.9780451385
 30
0.0
 11
185.4126526558
 21
1152.5780451385
 31
0.0
  0
LINE
  5
113
330
1F
100
AcDbEntity
  8
0
  6
Continuous
 62
     7
370
    25
100
AcDbLine
 10
195.4126526558
 20
1148.9780451385
 30
0.0
 11
185.4126526558
 21
1148.9780451385
 31
0.0
  0
LINE
  5
114
330
1F
100
AcDbEntity
  8
0
  6
Continuous
 62
     7
370
    25
100
AcDbLine
 10
195.4126526558
 20
1152.5780451385
 30
0.0
 11
195.4126526558
 21
1148.9780451385
 31
0.0
  0
LINE
  5
115
330
1F
100
AcDbEntity
  8
0
  6
Continuous
 62
     7
370
    25
100
AcDbLine
 10
185.4126526558
 20
1152.5780451385
 30
0.0
 11
195.4126526558
 21
1152.5780451385
 31
0.0
  0
LINE
  5
116
330
1F
100
AcDbEntity
  8
0
  6
Continuous
 62
     7
370
    25
100
AcDbLine
 10
766.8426526558
 20
1208.3780451385
 30
0.0
 11
766.8426526558
 21
1211.9780451385
 31
0.0
  0
LINE
  5
117
330
1F
100
AcDbEntity
  8
0
  6
Continuous
 62
     7
370
    25
100
AcDbLine
 10
779.8426526558
 20
1208.3780451385
 30
0.0
 11
766.8426526558
 21
1208.3780451385
 31
0.0
  0
LINE
  5
118
330
1F
100
AcDbEntity
  8
0
  6
Continuous
 62
     7
370
    25
100
AcDbLine
 10
779.8426526558
 20
1211.9780451385
 30
0.0
 11
779.8426526558
 21
1208.3780451385
 31
0.0
  0
LINE
  5
119
330
1F
100
AcDbEntity
  8
0
  6
Continuous
 62
     7
370
    25
100
AcDbLine
 10
788.3426526558
 20
1211.9780451385
 30
0.0
 11
779.8426526558
 21
1211.9780451385
 31
0.0
  0
ARC
  5
11A
330
1F
100
AcDbEntity
  8
0
  6
Continuous
 62
     7
370
    25
100
AcDbCircle
 10
788.3426526558
 20
1103.9780451385
 30
0.0
 40
108.0000000000002
100
AcDbArc
 50
270.0
 51
90.0
  0
LINE
  5
11B
330
1F
100
AcDbEntity
  8
0
  6
Continuous
 62
     7
370
    25
100
AcDbLine
 10
788.3426526558
 20
998.9780451385
 30
0.0
 11
788.3426526558
 21
995.9780451385
 31
0.0
  0
LINE
  5
11C
330
1F
100
AcDbEntity
  8
0
  6
Continuous
 62
     7
370
    25
100
AcDbLine
 10
778.3426526558
 20
998.9780451385
 30
0.0
 11
788.3426526558
 21
998.9780451385
 31
0.0
  0
LINE
  5
11D
330
1F
100
AcDbEntity
  8
0
  6
Continuous
 62
     7
370
    25
100
AcDbLine
 10
778.3426526558
 20
995.9780451385
 30
0.0
 11
778.3426526558
 21
998.9780451385
 31
0.0
  0
LINE
  5
11E
330
1F
100
AcDbEntity
  8
0
  6
Continuous
 62
     7
370
    25
100
AcDbLine
 10
768.3426526558
 20
995.9780451385
 30
0.0
 11
778.3426526558
 21
995.9780451385
 31
0.0
  0
LINE
  5
11F
330
1F
100
AcDbEntity
  8
0
  6
Continuous
 62
     7
370
    25
100
AcDbLine
 10
768.3426526558
 20
998.9780451385
 30
0.0
 11
768.3426526558
 21
995.9780451385
 31
0.0
  0
LINE
  5
120
330
1F
100
AcDbEntity
  8
0
  6
Continuous
 62
     7
370
    25
100
AcDbLine
 10
758.3426526558
 20
998.9780451385
 30
0.0
 11
768.3426526558
 21
998.9780451385
 31
0.0
  0
LINE
  5
121
330
1F
100
AcDbEntity
  8
0
  6
Continuous
 62
     7
370
    25
100
AcDbLine
 10
758.3426526558
 20
995.9780451385
 30
0.0
 11
758.3426526558
 21
998.9780451385
 31
0.0
  0
LINE
  5
122
330
1F
100
AcDbEntity
  8
0
  6
Continuous
 62
     7
370
    25
100
AcDbLine
 10
748.3426526558
 20
995.9780451385
 30
0.0
 11
758.3426526558
 21
995.9780451385
 31
0.0
  0
LINE
  5
123
330
1F
100
AcDbEntity
  8
0
  6
Continuous
 62
     7
370
    25
100
AcDbLine
 10
748.3426526558
 20
998.9780451385
 30
0.0
 11
748.3426526558
 21
995.9780451385
 31
0.0
  0
LINE
  5
124
330
1F
100
AcDbEntity
  8
0
  6
Continuous
 62
     7
370
    25
100
AcDbLine
 10
738.3426526558
 20
998.9780451385
 30
0.0
 11
748.3426526558
 21
998.9780451385
 31
0.0
  0
LINE
  5
125
330
1F
100
AcDbEntity
  8
0
  6
Continuous
 62
     7
370
    25
100
AcDbLine
 10
738.3426526558
 20
995.9780451385
 30
0.0
 11
738.3426526558
 21
998.9780451385
 31
0.0
  0
LINE
  5
126
330
1F
100
AcDbEntity
  8
0
  6
Continuous
 62
     7
370
    25
100
AcDbLine
 10
728.3426526558
 20
995.9780451385
 30
0.0
 11
738.3426526558
 21
995.9780451385
 31
0.0
  0
LINE
  5
127
330
1F
100
AcDbEntity
  8
0
  6
Continuous
 62
     7
370
    25
100
AcDbLine
 10
728.3426526558
 20
998.9780451385
 30
0.0
 11
728.3426526558
 21
995.9780451385
 31
0.0
  0
LINE
  5
128
330
1F
100
AcDbEntity
  8
0
  6
Continuous
 62
     7
370
    25
100
AcDbLine
 10
718.3426526558
 20
998.9780451385
 30
0.0
 11
728.3426526558
 21
998.9780451385
 31
0.0
  0
LINE
  5
129
330
1F
100
AcDbEntity
  8
0
  6
Continuous
 62
     7
370
    25
100
AcDbLine
 10
718.3426526558
 20
995.9780451385
 30
0.0
 11
718.3426526558
 21
998.9780451385
 31
0.0
  0
LINE
  5
12A
330
1F
100
AcDbEntity
  8
0
  6
Continuous
 62
     7
370
    25
100
AcDbLine
 10
708.3426526558
 20
995.9780451385
 30
0.0
 11
718.3426526558
 21
995.9780451385
 31
0.0
  0
LINE
  5
12B
330
1F
100
AcDbEntity
  8
0
  6
Continuous
 62
     7
370
    25
100
AcDbLine
 10
708.3426526558
 20
998.9780451385
 30
0.0
 11
708.3426526558
 21
995.9780451385
 31
0.0
  0
LINE
  5
12C
330
1F
100
AcDbEntity
  8
0
  6
Continuous
 62
     7
370
    25
100
AcDbLine
 10
698.3426526558
 20
998.9780451385
 30
0.0
 11
708.3426526558
 21
998.9780451385
 31
0.0
  0
LINE
  5
12D
330
1F
100
AcDbEntity
  8
0
  6
Continuous
 62
     7
370
    25
100
AcDbLine
 10
698.3426526558
 20
995.9780451385
 30
0.0
 11
698.3426526558
 21
998.9780451385
 31
0.0
  0
LINE
  5
12E
330
1F
100
AcDbEntity
  8
0
  6
Continuous
 62
     7
370
    25
100
AcDbLine
 10
688.3426526558
 20
995.9780451385
 30
0.0
 11
698.3426526558
 21
995.9780451385
 31
0.0
  0
LINE
  5
12F
330
1F
100
AcDbEntity
  8
0
  6
Continuous
 62
     7
370
    25
100
AcDbLine
 10
688.3426526558
 20
998.9780451385
 30
0.0
 11
688.3426526558
 21
995.9780451385
 31
0.0
  0
LINE
  5
130
330
1F
100
AcDbEntity
  8
0
  6
Continuous
 62
     7
370
    25
100
AcDbLine
 10
678.3426526558
 20
998.9780451385
 30
0.0
 11
688.3426526558
 21
998.9780451385
 31
0.0
  0
LINE
  5
131
330
1F
100
AcDbEntity
  8
0
  6
Continuous
 62
     7
370
    25
100
AcDbLine
 10
678.3426526558
 20
995.9780451385
 30
0.0
 11
678.3426526558
 21
998.9780451385
 31
0.0
  0
LINE
  5
132
330
1F
100
AcDbEntity
  8
0
  6
Continuous
 62
     7
370
    25
100
AcDbLine
 10
668.3426526558
 20
995.9780451385
 30
0.0
 11
678.3426526558
 21
995.9780451385
 31
0.0
  0
LINE
  5
133
330
1F
100
AcDbEntity
  8
0
  6
Continuous
 62
     7
370
    25
100
AcDbLine
 10
668.3426526558
 20
998.9780451385
 30
0.0
 11
668.3426526558
 21
995.9780451385
 31
0.0
  0
LINE
  5
134
330
1F
100
AcDbEntity
  8
0
  6
Continuous
 62
     7
370
    25
100
AcDbLine
 10
658.3426526558
 20
998.9780451385
 30
0.0
 11
668.3426526558
 21
998.9780451385
 31
0.0
  0
LINE
  5
135
330
1F
100
AcDbEntity
  8
0
  6
Continuous
 62
     7
370
    25
100
AcDbLine
 10
658.3426526558
 20
995.9780451385
 30
0.0
 11
658.3426526558
 21
998.9780451385
 31
0.0
  0
LINE
  5
136
330
1F
100
AcDbEntity
  8
0
  6
Continuous
 62
     7
370
    25
100
AcDbLine
 10
648.3426526558
 20
995.9780451385
 30
0.0
 11
658.3426526558
 21
995.9780451385
 31
0.0
  0
LINE
  5
137
330
1F
100
AcDbEntity
  8
0
  6
Continuous
 62
     7
370
    25
100
AcDbLine
 10
648.3426526558
 20
998.9780451385
 30
0.0
 11
648.3426526558
 21
995.9780451385
 31
0.0
  0
LINE
  5
138
330
1F
100
AcDbEntity
  8
0
  6
Continuous
 62
     7
370
    25
100
AcDbLine
 10
643.4126526558
 20
998.9780451385
 30
0.0
 11
648.3426526558
 21
998.9780451385
 31
0.0
  0
LINE
  5
139
330
1F
100
AcDbEntity
  8
0
  6
Continuous
 62
     7
370
    25
100
AcDbLine
 10
643.4126526558
 20
995.9780451385
 30
0.0
 11
643.4126526558
 21
998.9780451385
 31
0.0
  0
LINE
  5
13A
330
1F
100
AcDbEntity
  8
0
  6
Continuous
 62
     7
370
    25
100
AcDbLine
 10
254.7509054468
 20
995.9780451385
 30
0.0
 11
643.4126526558
 21
995.9780451385
 31
0.0
  0
ARC
  5
13B
330
1F
100
AcDbEntity
  8
0
  6
Continuous
 62
     7
370
    25
100
AcDbCircle
 10
274.5234220667
 20
1446.6230229241
 30
0.0
 40
451.0785390781215
100
AcDbArc
 50
233.7461238427
 51
267.4876994658
  0
ARC
  5
13C
330
1F
100
AcDbEntity
  8
0
  6
Continuous
 62
     7
370
    25
100
AcDbCircle
 10
304.6372096195
 20
806.1215477199
 30
0.0
 40
405.8564974186049
100
AcDbArc
 50
135.8083998464
 51
137.0084539017
  0
LINE
  5
13D
330
1F
100
AcDbEntity
  8
0
  6
Continuous
 62
     7
370
    25
100
AcDbLine
 10
16.2010250179
 20
1086.6337704981
 30
0.0
 11
13.6329028338
 21
1089.0278748479
 31
0.0
  0
LINE
  5
13E
330
1F
100
AcDbEntity
  8
0
  6
Continuous
 62
     7
370
    25
100
AcDbLine
 10
25.0656007712
 20
1096.1426766768
 30
0.0
 11
16.2010250179
 21
1086.6337704981
 31
0.0
  0
LINE
  5
13F
330
1F
100
AcDbEntity
  8
0
  6
Continuous
 62
     7
370
    25
100
AcDbLine
 10
22.8492025781
 20
1098.20889011
 30
0.0
 11
25.0656007712
 21
1096.1426766768
 31
0.0
  0
ARC
  5
140
330
1F
100
AcDbEntity
  8
0
  6
Continuous
 62
     7
370
    25
100
AcDbCircle
 10
304.6372096195
 20
806.1215477199
 30
0.0
 40
405.856497418605
100
AcDbArc
 50
120.8964820147
 51
133.9718235794
  0
LINE
  5
141
330
1F
100
AcDbEntity
  8
0
  6
Continuous
 62
     7
370
    25
100
AcDbLine
 10
98.0811590019
 20
1151.29534441
 30
0.0
 11
96.2345389452
 21
1154.3855615839
 31
0.0
  0
LINE
  5
142
330
1F
100
AcDbEntity
  8
0
  6
Continuous
 62
     7
370
    25
100
AcDbLine
 10
109.2405143091
 20
1157.963836678
 30
0.0
 11
98.0811590019
 21
1151.29534441
 31
0.0
  0
LINE
  5
143
330
1F
100
AcDbEntity
  8
0
  6
Continuous
 62
     7
370
    25
100
AcDbLine
 10
107.4966194061
 20
1160.8821489529
 30
0.0
 11
109.2405143091
 21
1157.963836678
 31
0.0
  0
ARC
  5
144
330
1F
100
AcDbEntity
  8
0
  6
Continuous
 62
     7
370
    25
100
AcDbCircle
 10
304.6372096195
 20
806.1215477199
 30
0.0
 40
405.8564974186047
100
AcDbArc
 50
94.1872358504
 51
119.0609431829
  0
LINE
  5
145
330
1F
100
AcDbEntity
  8
0
  6
Continuous
 62
     7
370
    25
100
AcDbLine
 10
275.1609597681
 20
1207.4497247423
 30
0.0
 11
275.0031846448
 21
1210.8947200778
 31
0.0
  0
LINE
  5
146
330
1F
100
AcDbEntity
  8
0
  6
Continuous
 62
     7
370
    25
100
AcDbLine
 10
288.1473474968
 20
1208.0444799527
 30
0.0
 11
275.1609597681
 21
1207.4497247423
 31
0.0
  0
LINE
  5
147
330
1F
100
AcDbEntity
  8
0
  6
Continuous
 62
     7
370
    25
100
AcDbLine
 10
287.9828528666
 20
1211.6361946786
 30
0.0
 11
288.1473474968
 21
1208.0444799527
 31
0.0
  0
ARC
  5
148
330
1F
100
AcDbEntity
  8
0
  6
Continuous
 62
     7
370
    25
100
AcDbCircle
 10
304.6372096195
 20
806.1215477199
 30
0.0
 40
405.8564974186049
100
AcDbArc
 50
90.0
 51
92.3517976459
  0
LINE
  5
149
330
1F
100
AcDbEntity
  8
0
  6
Continuous
 62
     7
370
    25
100
AcDbLine
 10
455.5444631894
 20
1211.9780451385
 30
0.0
 11
304.6372096195
 21
1211.9780451385
 31
0.0
  0
LINE
  5
14A
330
1F
100
AcDbEntity
  8
0
  6
Continuous
 62
     7
370
    25
100
AcDbLine
 10
455.5444631894
 20
1208.9780451385
 30
0.0
 11
455.5444631894
 21
1211.9780451385
 31
0.0
  0
LINE
  5
14B
330
1F
100
AcDbEntity
  8
0
  6
Continuous
 62
     7
370
    25
100
AcDbLine
 10
474.5444631894
 20
1208.9780451385
 30
0.0
 11
455.5444631894
 21
1208.9780451385
 31
0.0
  0
LINE
  5
14C
330
1F
100
AcDbEntity
  8
0
  6
Continuous
 62
     7
370
    25
100
AcDbLine
 10
474.5444631894
 20
1211.9780451385
 30
0.0
 11
474.5444631894
 21
1208.9780451385
 31
0.0
  0
LINE
  5
14D
330
1F
100
AcDbEntity
  8
0
  6
Continuous
 62
     7
370
    25
100
AcDbLine
 10
493.5444631894
 20
1211.9780451385
 30
0.0
 11
474.5444631894
 21
1211.9780451385
 31
0.0
  0
LINE
  5
14E
330
1F
100
AcDbEntity
  8
0
  6
Continuous
 62
     7
370
    25
100
AcDbLine
 10
493.5444631894
 20
1208.9780451385
 30
0.0
 11
493.5444631894
 21
1211.9780451385
 31
0.0
  0
LINE
  5
14F
330
1F
100
AcDbEntity
  8
0
  6
Continuous
 62
     7
370
    25
100
AcDbLine
 10
512.5444631894
 20
1208.9780451385
 30
0.0
 11
493.5444631894
 21
1208.9780451385
 31
0.0
  0
LINE
  5
150
330
1F
100
AcDbEntity
  8
0
  6
Continuous
 62
     7
370
    25
100
AcDbLine
 10
512.5444631894
 20
1211.9780451385
 30
0.0
 11
512.5444631894
 21
1208.9780451385
 31
0.0
  0
LINE
  5
151
330
1F
100
AcDbEntity
  8
0
  6
Continuous
 62
     7
370
    25
100
AcDbLine
 10
531.5444631894
 20
1211.9780451385
 30
0.0
 11
512.5444631894
 21
1211.9780451385
 31
0.0
  0
LINE
  5
152
330
1F
100
AcDbEntity
  8
0
  6
Continuous
 62
     7
370
    25
100
AcDbLine
 10
531.5444631894
 20
1208.9780451385
 30
0.0
 11
531.5444631894
 21
1211.9780451385
 31
0.0
  0
LINE
  5
153
330
1F
100
AcDbEntity
  8
0
  6
Continuous
 62
     7
370
    25
100
AcDbLine
 10
550.5444631894
 20
1208.9780451385
 30
0.0
 11
531.5444631894
 21
1208.9780451385
 31
0.0
  0
LINE
  5
154
330
1F
100
AcDbEntity
  8
0
  6
Continuous
 62
     7
370
    25
100
AcDbLine
 10
550.5444631894
 20
1211.9780451385
 30
0.0
 11
550.5444631894
 21
1208.9780451385
 31
0.0
  0
LINE
  5
155
330
1F
100
AcDbEntity
  8
0
  6
Continuous
 62
     7
370
    25
100
AcDbLine
 10
569.5444631894
 20
1211.9780451385
 30
0.0
 11
550.5444631894
 21
1211.9780451385
 31
0.0
  0
LINE
  5
156
330
1F
100
AcDbEntity
  8
0
  6
Continuous
 62
     7
370
    25
100
AcDbLine
 10
569.5444631894
 20
1208.9780451385
 30
0.0
 11
569.5444631894
 21
1211.9780451385
 31
0.0
  0
LINE
  5
157
330
1F
100
AcDbEntity
  8
0
  6
Continuous
 62
     7
370
    25
100
AcDbLine
 10
588.5444631894
 20
1208.9780451385
 30
0.0
 11
569.5444631894
 21
1208.9780451385
 31
0.0
  0
LINE
  5
158
330
1F
100
AcDbEntity
  8
0
  6
Continuous
 62
     7
370
    25
100
AcDbLine
 10
588.5444631894
 20
1211.9780451385
 30
0.0
 11
588.5444631894
 21
1208.9780451385
 31
0.0
  0
LINE
  5
159
330
1F
100
AcDbEntity
  8
0
  6
Continuous
 62
     7
370
    25
100
AcDbLine
 10
656.95028028
 20
1211.9780451385
 30
0.0
 11
588.5444631894
 21
1211.9780451385
 31
0.0
  0
LINE
  5
15A
330
1F
100
AcDbEntity
  8
0
  6
Continuous
 62
     7
370
    25
100
AcDbLine
 10
656.95028028
 20
1208.3780451385
 30
0.0
 11
656.95028028
 21
1211.9780451385
 31
0.0
  0
LINE
  5
15B
330
1F
100
AcDbEntity
  8
0
  6
Continuous
 62
     7
370
    25
100
AcDbLine
 10
669.95028028
 20
1208.3780451385
 30
0.0
 11
656.95028028
 21
1208.3780451385
 31
0.0
  0
LINE
  5
15C
330
1F
100
AcDbEntity
  8
0
  6
Continuous
 62
     7
370
    25
100
AcDbLine
 10
669.95028028
 20
1211.9780451385
 30
0.0
 11
669.95028028
 21
1208.3780451385
 31
0.0
  0
LINE
  5
15D
330
1F
100
AcDbEntity
  8
0
  6
Continuous
 62
     7
370
    25
100
AcDbLine
 10
704.7426526558
 20
1211.9780451385
 30
0.0
 11
669.95028028
 21
1211.9780451385
 31
0.0
  0
LINE
  5
15E
330
1F
100
AcDbEntity
  8
0
  6
Continuous
 62
     7
370
    25
100
AcDbLine
 10
704.7426526558
 20
1103.9780451385
 30
0.0
 11
704.7426526558
 21
1211.9780451385
 31
0.0
  0
LINE
  5
15F
330
1F
100
AcDbEntity
  8
0
  6
Continuous
 62
     7
370
    25
100
AcDbLine
 10
708.3426526558
 20
1103.9780451385
 30
0.0
 11
704.7426526558
 21
1103.9780451385
 31
0.0
  0
LINE
  5
160
330
1F
100
AcDbEntity
  8
0
  6
Continuous
 62
     7
370
    25
100
AcDbLine
 10
708.3426526558
 20
1211.9780451385
 30
0.0
 11
708.3426526558
 21
1103.9780451385
 31
0.0
  0
LINE
  5
161
330
1F
100
AcDbEntity
  8
0
  6
Continuous
 62
     7
370
    25
100
AcDbLine
 10
766.8426526558
 20
1211.9780451385
 30
0.0
 11
708.3426526558
 21
1211.9780451385
 31
0.0
  0
LINE
  5
162
330
1F
100
AcDbEntity
  8
0
  6
Continuous
 62
     7
370
    25
100
AcDbLine
 10
801.5591828439
 20
1031.5202214376
 30
0.0
 11
799.0135984316
 21
1034.0658058499
 31
0.0
  0
LINE
  5
163
330
1F
100
AcDbEntity
  8
0
  6
Continuous
 62
     7
370
    25
100
AcDbLine
 10
810.7515709993
 20
1040.7126095931
 30
0.0
 11
801.5591828439
 21
1031.5202214376
 31
0.0
  0
LINE
  5
164
330
1F
100
AcDbEntity
  8
0
  6
Continuous
 62
     7
370
    25
100
AcDbLine
 10
808.2059865871
 20
1043.2581940053
 30
0.0
 11
810.7515709993
 21
1040.7126095931
 31
0.0
  0
LINE
  5
165
330
1F
100
AcDbEntity
  8
0
  6
Continuous
 62
     7
370
    25
100
AcDbLine
 10
799.0135984316
 20
1034.0658058499
 30
0.0
 11
808.2059865871
 21
1043.2581940053
 31
0.0
  0
LINE
  5
166
330
1F
100
AcDbEntity
  8
0
  6
Continuous
 62
     7
370
    25
100
AcDbLine
 10
165.4126526558
 20
1148.9780451385
 30
0.0
 11
165.4126526558
 21
1152.5780451385
 31
0.0
  0
LINE
  5
167
330
1F
100
AcDbEntity
  8
0
  6
Continuous
 62
     7
370
    25
100
AcDbLine
 10
175.4126526558
 20
1148.9780451385
 30
0.0
 11
165.4126526558
 21
1148.9780451385
 31
0.0
  0
LINE
  5
168
330
1F
100
AcDbEntity
  8
0
  6
Continuous
 62
     7
370
    25
100
AcDbLine
 10
175.4126526558
 20
1152.5780451385
 30
0.0
 11
175.4126526558
 21
1148.9780451385
 31
0.0
  0
LINE
  5
169
330
1F
100
AcDbEntity
  8
0
  6
Continuous
 62
     7
370
    25
100
AcDbLine
 10
165.4126526558
 20
1152.5780451385
 30
0.0
 11
175.4126526558
 21
1152.5780451385
 31
0.0
  0
LINE
  5
16A
330
1F
100
AcDbEntity
  8
0
  6
Continuous
 62
     7
370
    25
100
AcDbLine
 10
844.614104221
 20
1021.9169169691
 30
0.0
 11
841.6087521249
 21
1019.9350343342
 31
0.0
  0
LINE
  5
16B
330
1F
100
AcDbEntity
  8
0
  6
Continuous
 62
     7
370
    25
100
AcDbLine
 10
837.4573058174
 20
1032.7695773162
 30
0.0
 11
844.614104221
 21
1021.9169169691
 31
0.0
  0
LINE
  5
16C
330
1F
100
AcDbEntity
  8
0
  6
Continuous
 62
     7
370
    25
100
AcDbLine
 10
834.4519537213
 20
1030.7876946814
 30
0.0
 11
837.4573058174
 21
1032.7695773162
 31
0.0
  0
LINE
  5
16D
330
1F
100
AcDbEntity
  8
0
  6
Continuous
 62
     7
370
    25
100
AcDbLine
 10
841.6087521249
 20
1019.9350343342
 30
0.0
 11
834.4519537213
 21
1030.7876946814
 31
0.0
  0
LINE
  5
16E
330
1F
100
AcDbEntity
  8
0
  6
Continuous
 62
     7
370
    25
100
AcDbLine
 10
559.0989870747
 20
1054.9598741093
 30
0.0
 11
577.5694150703
 21
1022.9681543835
 31
0.0
  0
LINE
  5
16F
330
1F
100
AcDbEntity
  8
0
  6
Continuous
 62
     7
370
    25
100
AcDbLine
 10
540.6285590792
 20
1022.9681543835
 30
0.0
 11
559.0989870747
 21
1054.9598741093
 31
0.0
  0
LINE
  5
170
330
1F
100
AcDbEntity
  8
0
  6
Continuous
 62
     7
370
    25
100
AcDbLine
 10
577.5694150703
 20
1022.9681543835
 30
0.0
 11
540.6285590792
 21
1022.9681543835
 31
0.0
  0
LINE
  5
171
330
1F
100
AcDbEntity
  8
0
  6
Continuous
 62
     7
370
    25
100
AcDbLine
 10
715.6285590792
 20
1097.1384075763
 30
0.0
 11
752.5694150703
 21
1097.1384075763
 31
0.0
  0
LINE
  5
172
330
1F
100
AcDbEntity
  8
0
  6
Continuous
 62
     7
370
    25
100
AcDbLine
 10
734.0989870747
 20
1065.1466878505
 30
0.0
 11
715.6285590792
 21
1097.1384075763
 31
0.0
  0
LINE
  5
173
330
1F
100
AcDbEntity
  8
0
  6
Continuous
 62
     7
370
    25
100
AcDbLine
 10
752.5694150703
 20
1097.1384075763
 30
0.0
 11
734.0989870747
 21
1065.1466878505
 31
0.0
  0
LINE
  5
174
330
1F
100
AcDbEntity
  8
0
  6
Continuous
 62
     7
370
    25
100
AcDbLine
 10
699.0989870747
 20
1097.1384075763
 30
0.0
 11
717.5694150703
 21
1065.1466878505
 31
0.0
  0
LINE
  5
175
330
1F
100
AcDbEntity
  8
0
  6
Continuous
 62
     7
370
    25
100
AcDbLine
 10
680.6285590792
 20
1065.1466878505
 30
0.0
 11
699.0989870747
 21
1097.1384075763
 31
0.0
  0
LINE
  5
176
330
1F
100
AcDbEntity
  8
0
  6
Continuous
 62
     7
370
    25
100
AcDbLine
 10
717.5694150703
 20
1065.1466878505
 30
0.0
 11
680.6285590792
 21
1065.1466878505
 31
0.0
  0
LINE
  5
177
330
1F
100
AcDbEntity
  8
0
  6
Continuous
 62
     7
370
    25
100
AcDbLine
 10
715.2978409789
 20
1054.9598741093
 30
0.0
 11
752.23869697
 21
1054.9598741093
 31
0.0
  0
LINE
  5
178
330
1F
100
AcDbEntity
  8
0
  6
Continuous
 62
     7
370
    25
100
AcDbLine
 10
733.7682689744
 20
1022.9681543835
 30
0.0
 11
715.2978409789
 21
1054.9598741093
 31
0.0
  0
LINE
  5
179
330
1F
100
AcDbEntity
  8
0
  6
Continuous
 62
     7
370
    25
100
AcDbLine
 10
752.23869697
 20
1054.9598741093
 30
0.0
 11
733.7682689744
 21
1022.9681543835
 31
0.0
  0
LINE
  5
17A
330
1F
100
AcDbEntity
  8
0
  6
Continuous
 62
     7
370
    25
100
AcDbLine
 10
489.0989870747
 20
1054.9598741093
 30
0.0
 11
507.5694150703
 21
1022.9681543835
 31
0.0
  0
LINE
  5
17B
330
1F
100
AcDbEntity
  8
0
  6
Continuous
 62
     7
370
    25
100
AcDbLine
 10
470.6285590792
 20
1022.9681543835
 30
0.0
 11
489.0989870747
 21
1054.9598741093
 31
0.0
  0
LINE
  5
17C
330
1F
100
AcDbEntity
  8
0
  6
Continuous
 62
     7
370
    25
100
AcDbLine
 10
507.5694150703
 20
1022.9681543835
 30
0.0
 11
470.6285590792
 21
1022.9681543835
 31
0.0
  0
LINE
  5
17D
330
1F
100
AcDbEntity
  8
0
  6
Continuous
 62
     7
370
    25
100
AcDbLine
 10
575.6285590792
 20
1097.1384075763
 30
0.0
 11
612.5694150703
 21
1097.1384075763
 31
0.0
  0
LINE
  5
17E
330
1F
100
AcDbEntity
  8
0
  6
Continuous
 62
     7
370
    25
100
AcDbLine
 10
594.0989870747
 20
1065.1466878505
 30
0.0
 11
575.6285590792
 21
1097.1384075763
 31
0.0
  0
LINE
  5
17F
330
1F
100
AcDbEntity
  8
0
  6
Continuous
 62
     7
370
    25
100
AcDbLine
 10
612.5694150703
 20
1097.1384075763
 30
0.0
 11
594.0989870747
 21
1065.1466878505
 31
0.0
  0
LINE
  5
180
330
1F
100
AcDbEntity
  8
0
  6
Continuous
 62
     7
370
    25
100
AcDbLine
 10
559.0989870747
 20
1097.1384075763
 30
0.0
 11
577.5694150703
 21
1065.1466878505
 31
0.0
  0
LINE
  5
181
330
1F
100
AcDbEntity
  8
0
  6
Continuous
 62
     7
370
    25
100
AcDbLine
 10
540.6285590792
 20
1065.1466878505
 30
0.0
 11
559.0989870747
 21
1097.1384075763
 31
0.0
  0
LINE
  5
182
330
1F
100
AcDbEntity
  8
0
  6
Continuous
 62
     7
370
    25
100
AcDbLine
 10
577.5694150703
 20
1065.1466878505
 30
0.0
 11
540.6285590792
 21
1065.1466878505
 31
0.0
  0
LINE
  5
183
330
1F
100
AcDbEntity
  8
0
  6
Continuous
 62
     7
370
    25
100
AcDbLine
 10
575.2978409789
 20
1054.9598741093
 30
0.0
 11
612.23869697
 21
1054.9598741093
 31
0.0
  0
LINE
  5
184
330
1F
100
AcDbEntity
  8
0
  6
Continuous
 62
     7
370
    25
100
AcDbLine
 10
593.7682689744
 20
1022.9681543835
 30
0.0
 11
575.2978409789
 21
1054.9598741093
 31
0.0
  0
LINE
  5
185
330
1F
100
AcDbEntity
  8
0
  6
Continuous
 62
     7
370
    25
100
AcDbLine
 10
612.23869697
 20
1054.9598741093
 30
0.0
 11
593.7682689744
 21
1022.9681543835
 31
0.0
  0
LINE
  5
186
330
1F
100
AcDbEntity
  8
0
  6
Continuous
 62
     7
370
    25
100
AcDbLine
 10
535.9126526558
 20
1148.9780451385
 30
0.0
 11
535.9126526558
 21
1152.5780451385
 31
0.0
  0
LINE
  5
187
330
1F
100
AcDbEntity
  8
0
  6
Continuous
 62
     7
370
    25
100
AcDbLine
 10
545.9126526558
 20
1148.9780451385
 30
0.0
 11
535.9126526558
 21
1148.9780451385
 31
0.0
  0
LINE
  5
188
330
1F
100
AcDbEntity
  8
0
  6
Continuous
 62
     7
370
    25
100
AcDbLine
 10
545.9126526558
 20
1152.5780451385
 30
0.0
 11
545.9126526558
 21
1148.9780451385
 31
0.0
  0
LINE
  5
189
330
1F
100
AcDbEntity
  8
0
  6
Continuous
 62
     7
370
    25
100
AcDbLine
 10
535.9126526558
 20
1152.5780451385
 30
0.0
 11
545.9126526558
 21
1152.5780451385
 31
0.0
  0
LINE
  5
18A
330
1F
100
AcDbEntity
  8
0
  6
Continuous
 62
     7
370
    25
100
AcDbLine
 10
769.0989870747
 20
1054.9598741093
 30
0.0
 11
787.5694150703
 21
1022.9681543835
 31
0.0
  0
LINE
  5
18B
330
1F
100
AcDbEntity
  8
0
  6
Continuous
 62
     7
370
    25
100
AcDbLine
 10
750.6285590792
 20
1022.9681543835
 30
0.0
 11
769.0989870747
 21
1054.9598741093
 31
0.0
  0
LINE
  5
18C
330
1F
100
AcDbEntity
  8
0
  6
Continuous
 62
     7
370
    25
100
AcDbLine
 10
787.5694150703
 20
1022.9681543835
 30
0.0
 11
750.6285590792
 21
1022.9681543835
 31
0.0
  0
LINE
  5
18D
330
1F
100
AcDbEntity
  8
0
  6
Continuous
 62
     7
370
    25
100
AcDbLine
 10
555.9126526558
 20
1148.9780451385
 30
0.0
 11
555.9126526558
 21
1152.5780451385
 31
0.0
  0
LINE
  5
18E
330
1F
100
AcDbEntity
  8
0
  6
Continuous
 62
     7
370
    25
100
AcDbLine
 10
565.9126526558
 20
1148.9780451385
 30
0.0
 11
555.9126526558
 21
1148.9780451385
 31
0.0
  0
LINE
  5
18F
330
1F
100
AcDbEntity
  8
0
  6
Continuous
 62
     7
370
    25
100
AcDbLine
 10
565.9126526558
 20
1152.5780451385
 30
0.0
 11
565.9126526558
 21
1148.9780451385
 31
0.0
  0
LINE
  5
190
330
1F
100
AcDbEntity
  8
0
  6
Continuous
 62
     7
370
    25
100
AcDbLine
 10
555.9126526558
 20
1152.5780451385
 30
0.0
 11
565.9126526558
 21
1152.5780451385
 31
0.0
  0
LINE
  5
191
330
1F
100
AcDbEntity
  8
0
  6
Continuous
 62
     7
370
    25
100
AcDbLine
 10
575.9126526558
 20
1148.9780451385
 30
0.0
 11
575.9126526558
 21
1152.5780451385
 31
0.0
  0
LINE
  5
192
330
1F
100
AcDbEntity
  8
0
  6
Continuous
 62
     7
370
    25
100
AcDbLine
 10
585.9126526558
 20
1148.9780451385
 30
0.0
 11
575.9126526558
 21
1148.9780451385
 31
0.0
  0
LINE
  5
193
330
1F
100
AcDbEntity
  8
0
  6
Continuous
 62
     7
370
    25
100
AcDbLine
 10
585.9126526558
 20
1152.5780451385
 30
0.0
 11
585.9126526558
 21
1148.9780451385
 31
0.0
  0
LINE
  5
194
330
1F
100
AcDbEntity
  8
0
  6
Continuous
 62
     7
370
    25
100
AcDbLine
 10
575.9126526558
 20
1152.5780451385
 30
0.0
 11
585.9126526558
 21
1152.5780451385
 31
0.0
  0
LINE
  5
195
330
1F
100
AcDbEntity
  8
0
  6
Continuous
 62
     7
370
    25
100
AcDbLine
 10
785.6285590792
 20
1097.1384075763
 30
0.0
 11
822.5694150703
 21
1097.1384075763
 31
0.0
  0
LINE
  5
196
330
1F
100
AcDbEntity
  8
0
  6
Continuous
 62
     7
370
    25
100
AcDbLine
 10
804.0989870747
 20
1065.1466878505
 30
0.0
 11
785.6285590792
 21
1097.1384075763
 31
0.0
  0
LINE
  5
197
330
1F
100
AcDbEntity
  8
0
  6
Continuous
 62
     7
370
    25
100
AcDbLine
 10
822.5694150703
 20
1097.1384075763
 30
0.0
 11
804.0989870747
 21
1065.1466878505
 31
0.0
  0
LINE
  5
198
330
1F
100
AcDbEntity
  8
0
  6
Continuous
 62
     7
370
    25
100
AcDbLine
 10
769.0989870747
 20
1097.1384075763
 30
0.0
 11
787.5694150703
 21
1065.1466878505
 31
0.0
  0
LINE
  5
199
330
1F
100
AcDbEntity
  8
0
  6
Continuous
 62
     7
370
    25
100
AcDbLine
 10
750.6285590792
 20
1065.1466878505
 30
0.0
 11
769.0989870747
 21
1097.1384075763
 31
0.0
  0
LINE
  5
19A
330
1F
100
AcDbEntity
  8
0
  6
Continuous
 62
     7
370
    25
100
AcDbLine
 10
787.5694150703
 20
1065.1466878505
 30
0.0
 11
750.6285590792
 21
1065.1466878505
 31
0.0
  0
LINE
  5
19B
330
1F
100
AcDbEntity
  8
0
  6
Continuous
 62
     7
370
    25
100
AcDbLine
 10
515.9126526558
 20
1148.9780451385
 30
0.0
 11
515.9126526558
 21
1152.5780451385
 31
0.0
  0
LINE
  5
19C
330
1F
100
AcDbEntity
  8
0
  6
Continuous
 62
     7
370
    25
100
AcDbLine
 10
525.9126526558
 20
1148.9780451385
 30
0.0
 11
515.9126526558
 21
1148.9780451385
 31
0.0
  0
LINE
  5
19D
330
1F
100
AcDbEntity
  8
0
  6
Continuous
 62
     7
370
    25
100
AcDbLine
 10
525.9126526558
 20
1152.5780451385
 30
0.0
 11
525.9126526558
 21
1148.9780451385
 31
0.0
  0
LINE
  5
19E
330
1F
100
AcDbEntity
  8
0
  6
Continuous
 62
     7
370
    25
100
AcDbLine
 10
515.9126526558
 20
1152.5780451385
 30
0.0
 11
525.9126526558
 21
1152.5780451385
 31
0.0
  0
LINE
  5
19F
330
1F
100
AcDbEntity
  8
0
  6
Continuous
 62
     7
370
    25
100
AcDbLine
 10
699.0989870747
 20
1054.9598741093
 30
0.0
 11
717.5694150703
 21
1022.9681543835
 31
0.0
  0
LINE
  5
1A0
330
1F
100
AcDbEntity
  8
0
  6
Continuous
 62
     7
370
    25
100
AcDbLine
 10
680.6285590792
 20
1022.9681543835
 30
0.0
 11
699.0989870747
 21
1054.9598741093
 31
0.0
  0
LINE
  5
1A1
330
1F
100
AcDbEntity
  8
0
  6
Continuous
 62
     7
370
    25
100
AcDbLine
 10
717.5694150703
 20
1022.9681543835
 30
0.0
 11
680.6285590792
 21
1022.9681543835
 31
0.0
  0
LINE
  5
1A2
330
1F
100
AcDbEntity
  8
0
  6
Continuous
 62
     7
370
    25
100
AcDbLine
 10
365.2978409789
 20
1054.9598741093
 30
0.0
 11
402.23869697
 21
1054.9598741093
 31
0.0
  0
LINE
  5
1A3
330
1F
100
AcDbEntity
  8
0
  6
Continuous
 62
     7
370
    25
100
AcDbLine
 10
383.7682689744
 20
1022.9681543835
 30
0.0
 11
365.2978409789
 21
1054.9598741093
 31
0.0
  0
LINE
  5
1A4
330
1F
100
AcDbEntity
  8
0
  6
Continuous
 62
     7
370
    25
100
AcDbLine
 10
402.23869697
 20
1054.9598741093
 30
0.0
 11
383.7682689744
 21
1022.9681543835
 31
0.0
  0
LINE
  5
1A5
330
1F
100
AcDbEntity
  8
0
  6
Continuous
 62
     7
370
    25
100
AcDbLine
 10
349.0989870747
 20
1054.9598741093
 30
0.0
 11
367.5694150703
 21
1022.9681543835
 31
0.0
  0
LINE
  5
1A6
330
1F
100
AcDbEntity
  8
0
  6
Continuous
 62
     7
370
    25
100
AcDbLine
 10
330.6285590792
 20
1022.9681543835
 30
0.0
 11
349.0989870747
 21
1054.9598741093
 31
0.0
  0
LINE
  5
1A7
330
1F
100
AcDbEntity
  8
0
  6
Continuous
 62
     7
370
    25
100
AcDbLine
 10
367.5694150703
 20
1022.9681543835
 30
0.0
 11
330.6285590792
 21
1022.9681543835
 31
0.0
  0
LINE
  5
1A8
330
1F
100
AcDbEntity
  8
0
  6
Continuous
 62
     7
370
    25
100
AcDbLine
 10
155.6285590792
 20
1097.1384075763
 30
0.0
 11
192.5694150703
 21
1097.1384075763
 31
0.0
  0
LINE
  5
1A9
330
1F
100
AcDbEntity
  8
0
  6
Continuous
 62
     7
370
    25
100
AcDbLine
 10
174.0989870747
 20
1065.1466878505
 30
0.0
 11
155.6285590792
 21
1097.1384075763
 31
0.0
  0
LINE
  5
1AA
330
1F
100
AcDbEntity
  8
0
  6
Continuous
 62
     7
370
    25
100
AcDbLine
 10
192.5694150703
 20
1097.1384075763
 30
0.0
 11
174.0989870747
 21
1065.1466878505
 31
0.0
  0
LINE
  5
1AB
330
1F
100
AcDbEntity
  8
0
  6
Continuous
 62
     7
370
    25
100
AcDbLine
 10
157.5694150703
 20
1065.1466878505
 30
0.0
 11
120.6285590792
 21
1065.1466878505
 31
0.0
  0
LINE
  5
1AC
330
1F
100
AcDbEntity
  8
0
  6
Continuous
 62
     7
370
    25
100
AcDbLine
 10
139.0989870747
 20
1097.1384075763
 30
0.0
 11
157.5694150703
 21
1065.1466878505
 31
0.0
  0
LINE
  5
1AD
330
1F
100
AcDbEntity
  8
0
  6
Continuous
 62
     7
370
    25
100
AcDbLine
 10
120.6285590792
 20
1065.1466878505
 30
0.0
 11
139.0989870747
 21
1097.1384075763
 31
0.0
  0
LINE
  5
1AE
330
1F
100
AcDbEntity
  8
0
  6
Continuous
 62
     7
370
    25
100
AcDbLine
 10
365.6285590792
 20
1097.1384075763
 30
0.0
 11
402.5694150703
 21
1097.1384075763
 31
0.0
  0
LINE
  5
1AF
330
1F
100
AcDbEntity
  8
0
  6
Continuous
 62
     7
370
    25
100
AcDbLine
 10
384.0989870747
 20
1065.1466878505
 30
0.0
 11
365.6285590792
 21
1097.1384075763
 31
0.0
  0
LINE
  5
1B0
330
1F
100
AcDbEntity
  8
0
  6
Continuous
 62
     7
370
    25
100
AcDbLine
 10
402.5694150703
 20
1097.1384075763
 30
0.0
 11
384.0989870747
 21
1065.1466878505
 31
0.0
  0
LINE
  5
1B1
330
1F
100
AcDbEntity
  8
0
  6
Continuous
 62
     7
370
    25
100
AcDbLine
 10
349.0989870747
 20
1097.1384075763
 30
0.0
 11
367.5694150703
 21
1065.1466878505
 31
0.0
  0
LINE
  5
1B2
330
1F
100
AcDbEntity
  8
0
  6
Continuous
 62
     7
370
    25
100
AcDbLine
 10
330.6285590792
 20
1065.1466878505
 30
0.0
 11
349.0989870747
 21
1097.1384075763
 31
0.0
  0
LINE
  5
1B3
330
1F
100
AcDbEntity
  8
0
  6
Continuous
 62
     7
370
    25
100
AcDbLine
 10
367.5694150703
 20
1065.1466878505
 30
0.0
 11
330.6285590792
 21
1065.1466878505
 31
0.0
  0
LINE
  5
1B4
330
1F
100
AcDbEntity
  8
0
  6
Continuous
 62
     7
370
    25
100
AcDbLine
 10
295.2978409789
 20
1054.9598741093
 30
0.0
 11
332.23869697
 21
1054.9598741093
 31
0.0
  0
LINE
  5
1B5
330
1F
100
AcDbEntity
  8
0
  6
Continuous
 62
     7
370
    25
100
AcDbLine
 10
313.7682689744
 20
1022.9681543835
 30
0.0
 11
295.2978409789
 21
1054.9598741093
 31
0.0
  0
LINE
  5
1B6
330
1F
100
AcDbEntity
  8
0
  6
Continuous
 62
     7
370
    25
100
AcDbLine
 10
332.23869697
 20
1054.9598741093
 30
0.0
 11
313.7682689744
 21
1022.9681543835
 31
0.0
  0
LINE
  5
1B7
330
1F
100
AcDbEntity
  8
0
  6
Continuous
 62
     7
370
    25
100
AcDbLine
 10
279.0989870747
 20
1054.9598741093
 30
0.0
 11
297.5694150703
 21
1022.9681543835
 31
0.0
  0
LINE
  5
1B8
330
1F
100
AcDbEntity
  8
0
  6
Continuous
 62
     7
370
    25
100
AcDbLine
 10
260.6285590792
 20
1022.9681543835
 30
0.0
 11
279.0989870747
 21
1054.9598741093
 31
0.0
  0
LINE
  5
1B9
330
1F
100
AcDbEntity
  8
0
  6
Continuous
 62
     7
370
    25
100
AcDbLine
 10
297.5694150703
 20
1022.9681543835
 30
0.0
 11
260.6285590792
 21
1022.9681543835
 31
0.0
  0
LINE
  5
1BA
330
1F
100
AcDbEntity
  8
0
  6
Continuous
 62
     7
370
    25
100
AcDbLine
 10
505.2978409789
 20
1054.9598741093
 30
0.0
 11
542.23869697
 21
1054.9598741093
 31
0.0
  0
LINE
  5
1BB
330
1F
100
AcDbEntity
  8
0
  6
Continuous
 62
     7
370
    25
100
AcDbLine
 10
523.7682689744
 20
1022.9681543835
 30
0.0
 11
505.2978409789
 21
1054.9598741093
 31
0.0
  0
LINE
  5
1BC
330
1F
100
AcDbEntity
  8
0
  6
Continuous
 62
     7
370
    25
100
AcDbLine
 10
542.23869697
 20
1054.9598741093
 30
0.0
 11
523.7682689744
 21
1022.9681543835
 31
0.0
  0
LINE
  5
1BD
330
1F
100
AcDbEntity
  8
0
  6
Continuous
 62
     7
370
    25
100
AcDbLine
 10
155.2978409789
 20
1054.9598741093
 30
0.0
 11
192.23869697
 21
1054.9598741093
 31
0.0
  0
LINE
  5
1BE
330
1F
100
AcDbEntity
  8
0
  6
Continuous
 62
     7
370
    25
100
AcDbLine
 10
173.7682689744
 20
1022.9681543835
 30
0.0
 11
155.2978409789
 21
1054.9598741093
 31
0.0
  0
LINE
  5
1BF
330
1F
100
AcDbEntity
  8
0
  6
Continuous
 62
     7
370
    25
100
AcDbLine
 10
192.23869697
 20
1054.9598741093
 30
0.0
 11
173.7682689744
 21
1022.9681543835
 31
0.0
  0
LINE
  5
1C0
330
1F
100
AcDbEntity
  8
0
  6
Continuous
 62
     7
370
    25
100
AcDbLine
 10
505.6285590792
 20
1097.1384075763
 30
0.0
 11
542.5694150703
 21
1097.1384075763
 31
0.0
  0
LINE
  5
1C1
330
1F
100
AcDbEntity
  8
0
  6
Continuous
 62
     7
370
    25
100
AcDbLine
 10
524.0989870747
 20
1065.1466878505
 30
0.0
 11
505.6285590792
 21
1097.1384075763
 31
0.0
  0
LINE
  5
1C2
330
1F
100
AcDbEntity
  8
0
  6
Continuous
 62
     7
370
    25
100
AcDbLine
 10
542.5694150703
 20
1097.1384075763
 30
0.0
 11
524.0989870747
 21
1065.1466878505
 31
0.0
  0
LINE
  5
1C3
330
1F
100
AcDbEntity
  8
0
  6
Continuous
 62
     7
370
    25
100
AcDbLine
 10
489.0989870747
 20
1097.1384075763
 30
0.0
 11
507.5694150703
 21
1065.1466878505
 31
0.0
  0
LINE
  5
1C4
330
1F
100
AcDbEntity
  8
0
  6
Continuous
 62
     7
370
    25
100
AcDbLine
 10
470.6285590792
 20
1065.1466878505
 30
0.0
 11
489.0989870747
 21
1097.1384075763
 31
0.0
  0
LINE
  5
1C5
330
1F
100
AcDbEntity
  8
0
  6
Continuous
 62
     7
370
    25
100
AcDbLine
 10
507.5694150703
 20
1065.1466878505
 30
0.0
 11
470.6285590792
 21
1065.1466878505
 31
0.0
  0
LINE
  5
1C6
330
1F
100
AcDbEntity
  8
0
  6
Continuous
 62
     7
370
    25
100
AcDbLine
 10
435.2978409789
 20
1054.9598741093
 30
0.0
 11
472.23869697
 21
1054.9598741093
 31
0.0
  0
LINE
  5
1C7
330
1F
100
AcDbEntity
  8
0
  6
Continuous
 62
     7
370
    25
100
AcDbLine
 10
453.7682689744
 20
1022.9681543835
 30
0.0
 11
435.2978409789
 21
1054.9598741093
 31
0.0
  0
LINE
  5
1C8
330
1F
100
AcDbEntity
  8
0
  6
Continuous
 62
     7
370
    25
100
AcDbLine
 10
472.23869697
 20
1054.9598741093
 30
0.0
 11
453.7682689744
 21
1022.9681543835
 31
0.0
  0
LINE
  5
1C9
330
1F
100
AcDbEntity
  8
0
  6
Continuous
 62
     7
370
    25
100
AcDbLine
 10
419.0989870747
 20
1054.9598741093
 30
0.0
 11
437.5694150703
 21
1022.9681543835
 31
0.0
  0
LINE
  5
1CA
330
1F
100
AcDbEntity
  8
0
  6
Continuous
 62
     7
370
    25
100
AcDbLine
 10
400.6285590792
 20
1022.9681543835
 30
0.0
 11
419.0989870747
 21
1054.9598741093
 31
0.0
  0
LINE
  5
1CB
330
1F
100
AcDbEntity
  8
0
  6
Continuous
 62
     7
370
    25
100
AcDbLine
 10
437.5694150703
 20
1022.9681543835
 30
0.0
 11
400.6285590792
 21
1022.9681543835
 31
0.0
  0
LINE
  5
1CC
330
1F
100
AcDbEntity
  8
0
  6
Continuous
 62
     7
370
    25
100
AcDbLine
 10
435.6285590792
 20
1097.1384075763
 30
0.0
 11
472.5694150703
 21
1097.1384075763
 31
0.0
  0
LINE
  5
1CD
330
1F
100
AcDbEntity
  8
0
  6
Continuous
 62
     7
370
    25
100
AcDbLine
 10
454.0989870747
 20
1065.1466878505
 30
0.0
 11
435.6285590792
 21
1097.1384075763
 31
0.0
  0
LINE
  5
1CE
330
1F
100
AcDbEntity
  8
0
  6
Continuous
 62
     7
370
    25
100
AcDbLine
 10
472.5694150703
 20
1097.1384075763
 30
0.0
 11
454.0989870747
 21
1065.1466878505
 31
0.0
  0
LINE
  5
1CF
330
1F
100
AcDbEntity
  8
0
  6
Continuous
 62
     7
370
    25
100
AcDbLine
 10
419.0989870747
 20
1097.1384075763
 30
0.0
 11
437.5694150703
 21
1065.1466878505
 31
0.0
  0
LINE
  5
1D0
330
1F
100
AcDbEntity
  8
0
  6
Continuous
 62
     7
370
    25
100
AcDbLine
 10
400.6285590792
 20
1065.1466878505
 30
0.0
 11
419.0989870747
 21
1097.1384075763
 31
0.0
  0
LINE
  5
1D1
330
1F
100
AcDbEntity
  8
0
  6
Continuous
 62
     7
370
    25
100
AcDbLine
 10
437.5694150703
 20
1065.1466878505
 30
0.0
 11
400.6285590792
 21
1065.1466878505
 31
0.0
  0
LINE
  5
1D2
330
1F
100
AcDbEntity
  8
0
  6
Continuous
 62
     7
370
    25
100
AcDbLine
 10
200.9126526558
 20
1138.8398277359
 30
0.0
 11
200.9126526558
 21
1138.8728277359
 31
0.0
  0
SPLINE
  5
1D3
330
1F
100
AcDbEntity
  8
0
  6
Continuous
 62
     7
370
    25
100
AcDbSpline
210
0.0
220
0.0
230
1.0
 70
     8
 71
     3
 72
   108
 73
   104
 74
     0
 42
0.00000001
 43
0.00000001
 40
0.0
 40
0.0
 40
0.0
 40
0.0
 40
0.0019528617042596
 40
0.0039059979227897
 40
0.0078123973088718
 40
0.0117184221340916
 40
0.0156243075478371
 40
0.018611600864855
 40
0.0234362917457086
 40
0.027643500573071
 40
0.031247936809405
 40
0.0390596927160899
 40
0.0468714564723208
 40
0.062495039398648
 40
0.0937411219737591
 40
0.1096555031732087
 40
0.1249881596821418
 40
0.1407278129706863
 40
0.1562359107615802
 40
0.1721055760444149
 40
0.1874826379258722
 40
0.2187262168228942
 40
0.2344567487995215
 40
0.2499738819976089
 40
0.2656025735675232
 40
0.2812215249247163
 40
0.2916376945601794
 40
0.3124683671793357
 40
0.3437096362820187
 40
0.3593332348459463
 40
0.3749568658747586
 40
0.3905803388995518
 40
0.406203839085077
 40
0.4218269908539511
 40
0.4374499061431009
 40
0.4499488363725411
 40
0.4594229493535216
 40
0.4686981445321236
 40
0.4767510932148554
 40
0.4843228735597447
 40
0.4921350086659622
 40
0.4999469656975406
 40
0.5038535456831307
 40
0.5058684881163692
 40
0.5077656080540437
 40
0.5098259040933445
 40
0.5116791512135829
 40
0.5127089187480788
 40
0.5136379468529372
 40
0.5146527006249396
 40
0.5156039565258255
 40
0.5166131657455837
 40
0.5175629861903439
 40
0.5185161917687835
 40
0.5195408474867106
 40
0.5205040650538287
 40
0.5215168072936248
 40
0.5234759877218826
 40
0.5244151749670266
 40
0.5254380227513761
 40
0.5273923608866127
 40
0.5292519426415743
 40
0.5312978449559869
 40
0.534853117031663
 40
0.5391123030581579
 40
0.5426937956975415
 40
0.5469237368872419
 40
0.5503558004116812
 40
0.5547356945955647
 40
0.5625474054781576
 40
0.5703591038007905
 40
0.5781708555729085
 40
0.5834780321821885
 40
0.5937943125743711
 40
0.6029218713838939
 40
0.6094177801504239
 40
0.6250412702562655
 40
0.6562880311265039
 40
0.6875349634449462
 40
0.7196916693270626
 40
0.7500279688564382
 40
0.7812742251900406
 40
0.8125199534925948
 40
0.8437655293849179
 40
0.8750109592123244
 40
0.890634416638954
 40
0.9062579525551937
 40
0.9222167964640299
 40
0.9375047767094741
 40
0.9454026145608965
 40
0.9531285000336299
 40
0.9611739561762408
 40
0.9687523335371773
 40
0.976564076244037
 40
0.9804375515468848
 40
0.9843761238115261
 40
0.9857074192237456
 40
0.9882819740922663
 40
0.9921878945487829
 40
0.9960939497120078
 40
0.9980471010533831
 40
0.9990235179247051
 40
1.0
 40
1.0
 40
1.0
 40
1.0
 10
200.9126526557846
 20
1138.872827735925
 30
0.0
 10
201.2518198544497
 20
1139.100634511976
 30
0.0
 10
201.9302019285999
 20
1139.556280086933
 30
0.0
 10
203.3297496928702
 20
1140.401161828512
 30
0.0
 10
205.1253478433987
 20
1141.377264491063
 30
0.0
 10
207.3279990808285
 20
1142.454274958859
 30
0.0
 10
209.3858607293225
 20
1143.38661505923
 30
0.0
 10
211.6269571225078
 20
1144.379616987413
 30
0.0
 10
213.9264267443029
 20
1145.396528511521
 30
0.0
 10
216.3451146275443
 20
1146.46303692733
 30
0.0
 10
219.3376523252392
 20
1147.776875190271
 30
0.0
 10
223.0273765381433
 20
1149.378441109331
 30
0.0
 10
229.0439749835791
 20
1151.93339869584
 30
0.0
 10
239.5948394526174
 20
1156.351892762826
 30
0.0
 10
251.7821359132043
 20
1161.252564294618
 30
0.0
 10
264.0345024180251
 20
1165.81319928618
 30
0.0
 10
273.3097775430276
 20
1169.067905992302
 30
0.0
 10
282.5711857442209
 20
1172.099399019844
 30
0.0
 10
292.0048166503251
 20
1174.958022547827
 30
0.0
 10
301.4307590597027
 20
1177.572467235205
 30
0.0
 10
314.116294905357
 20
1180.732630781724
 30
0.0
 10
326.9064656275147
 20
1183.3414309595
 30
0.0
 10
339.8339374403087
 20
1185.298216251591
 30
0.0
 10
349.5772264302646
 20
1186.424944744909
 30
0.0
 10
359.3323231584363
 20
1187.188678102212
 30
0.0
 10
368.0430339723356
 20
1187.540954415646
 30
0.0
 10
377.8474256471045
 20
1187.627709409766
 30
0.0
 10
390.9185845676255
 20
1187.223059967975
 30
0.0
 10
405.0315307682667
 20
1185.859067950718
 30
0.0
 10
417.9434277135888
 20
1183.800941223518
 30
0.0
 10
427.5567049277618
 20
1181.856110581711
 30
0.0
 10
437.0734307271975
 20
1179.482915252811
 30
0.0
 10
446.4687701559553
 20
1176.664833308449
 30
0.0
 10
455.6991637173174
 20
1173.343355123679
 30
0.0
 10
464.114266342325
 20
1169.731363746428
 30
0.0
 10
471.1384146157712
 20
1166.183808939302
 30
0.0
 10
476.8113815923667
 20
1162.931498263461
 30
0.0
 10
481.5383961376028
 20
1159.912208925216
 30
0.0
 10
485.7932277120599
 20
1156.904306954789
 30
0.0
 10
489.6508116598414
 20
1153.874525590623
 30
0.0
 10
493.2812162166231
 20
1150.649921037218
 30
0.0
 10
496.115975835898
 20
1147.698066786465
 30
0.0
 10
497.917591371299
 20
1145.456849474948
 30
0.0
 10
498.8563715510265
 20
1144.116716711775
 30
0.0
 10
499.5199807293462
 20
1143.057487638082
 30
0.0
 10
500.0954958060827
 20
1141.985210433835
 30
0.0
 10
500.4937161834479
 20
1141.028492524352
 30
0.0
 10
500.729136823171
 20
1140.265833958619
 30
0.0
 10
500.8630118915176
 20
1139.657517761906
 30
0.0
 10
500.925286805206
 20
1139.053204088811
 30
0.0
 10
500.8999423870171
 20
1138.429171895206
 30
0.0
 10
500.7723031436887
 20
1137.829613458648
 30
0.0
 10
500.5153255751839
 20
1137.271265241515
 30
0.0
 10
500.1375656701519
 20
1136.783641051703
 30
0.0
 10
499.6754667136532
 20
1136.37302502163
 30
0.0
 10
499.1476476732879
 20
1136.029782439781
 30
0.0
 10
498.4018189560016
 20
1135.676120635885
 30
0.0
 10
497.6097014334437
 20
1135.452926893445
 30
0.0
 10
496.8040016275357
 20
1135.299869032184
 30
0.0
 10
495.9931544961246
 20
1135.180579877493
 30
0.0
 10
494.9848771187631
 20
1135.087754039871
 30
0.0
 10
493.759433213593
 20
1135.043938739011
 30
0.0
 10
492.1983506588207
 20
1135.052947603829
 30
0.0
 10
490.1377811070692
 20
1135.163667274337
 30
0.0
 10
487.7635063476876
 20
1135.381769202768
 30
0.0
 10
485.255251024458
 20
1135.67350433532
 30
0.0
 10
482.9231868509165
 20
1135.979761882538
 30
0.0
 10
480.4288618261748
 20
1136.331835736718
 30
0.0
 10
477.1948925654926
 20
1136.804397295494
 30
0.0
 10
473.0565946740171
 20
1137.424375812752
 30
0.0
 10
468.2070774923645
 20
1138.142407331977
 30
0.0
 10
463.8757543590571
 20
1138.783186747814
 30
0.0
 10
459.0274650087312
 20
1139.50953640473
 30
0.0
 10
453.9070086470621
 20
1140.276977793293
 30
0.0
 10
448.5406108609276
 20
1141.081158494283
 30
0.0
 10
442.0758849486947
 20
1142.047368233523
 30
0.0
 10
431.0319636592536
 20
1143.677866487626
 30
0.0
 10
414.8486466933786
 20
1145.947709213347
 30
0.0
 10
395.2006615188463
 20
1148.402697039859
 30
0.0
 10
375.6996091546844
 20
1150.474174287733
 30
0.0
 10
356.1585049469825
 20
1152.127124977592
 30
0.0
 10
336.7706570231518
 20
1153.268577988448
 30
0.0
 10
317.1648136718159
 20
1153.791488967021
 30
0.0
 10
297.5520126801175
 20
1153.587226871355
 30
0.0
 10
281.2285301969442
 20
1152.730870839193
 30
0.0
 10
268.2000038370631
 20
1151.648378303713
 30
0.0
 10
258.3764883464911
 20
1150.634672582193
 30
0.0
 10
248.6468739931266
 20
1149.415852850985
 30
0.0
 10
240.5487413756928
 20
1148.194686807909
 30
0.0
 10
234.1764372071267
 20
1147.094218911201
 30
0.0
 10
229.3111404585047
 20
1146.174041005097
 30
0.0
 10
224.5272734148807
 20
1145.186208338396
 30
0.0
 10
219.7452751931913
 20
1144.104908131756
 30
0.0
 10
215.8366213707678
 20
1143.121286080589
 30
0.0
 10
212.6910882447473
 20
1142.233190269593
 30
0.0
 10
210.8593111311008
 20
1141.682360514435
 30
0.0
 10
209.2939809128828
 20
1141.189884422233
 30
0.0
 10
207.7357253670912
 20
1140.697703825687
 30
0.0
 10
205.6626268309029
 20
1140.047187158279
 30
0.0
 10
203.6993663515889
 20
1139.481251603391
 30
0.0
 10
202.312074812349
 20
1139.133526824633
 30
0.0
 10
201.5137542585854
 20
1138.959017544398
 30
0.0
 10
201.1130243166152
 20
1138.879558556416
 30
0.0
 10
200.9126526557846
 20
1138.839827735925
 30
0.0
  0
LINE
  5
1D4
330
1F
100
AcDbEntity
  8
0
  6
Continuous
 62
     7
370
    25
100
AcDbLine
 10
803.2815300895
 20
908.4635818428
 30
0.0
 11
805.8271145018
 21
911.0091662551
 31
0.0
  0
LINE
  5
1D5
330
1F
100
AcDbEntity
  8
0
  6
Continuous
 62
     7
370
    25
100
AcDbLine
 10
812.4739182449
 20
899.2711936874
 30
0.0
 11
803.2815300895
 21
908.4635818428
 31
0.0
  0
LINE
  5
1D6
330
1F
100
AcDbEntity
  8
0
  6
Continuous
 62
     7
370
    25
100
AcDbLine
 10
815.0195026572
 20
901.8167780997
 30
0.0
 11
812.4739182449
 21
899.2711936874
 31
0.0
  0
LINE
  5
1D7
330
1F
100
AcDbEntity
  8
0
  6
Continuous
 62
     7
370
    25
100
AcDbLine
 10
805.8271145018
 20
911.0091662551
 30
0.0
 11
815.0195026572
 21
901.8167780997
 31
0.0
  0
LINE
  5
1D8
330
1F
100
AcDbEntity
  8
0
  6
Continuous
 62
     7
370
    25
100
AcDbLine
 10
349.5409472304
 20
922.0202492408
 30
0.0
 11
368.011375226
 21
890.028529515
 31
0.0
  0
LINE
  5
1D9
330
1F
100
AcDbEntity
  8
0
  6
Continuous
 62
     7
370
    25
100
AcDbLine
 10
331.0705192349
 20
890.028529515
 30
0.0
 11
349.5409472304
 21
922.0202492408
 31
0.0
  0
LINE
  5
1DA
330
1F
100
AcDbEntity
  8
0
  6
Continuous
 62
     7
370
    25
100
AcDbLine
 10
368.011375226
 20
890.028529515
 30
0.0
 11
331.0705192349
 21
890.028529515
 31
0.0
  0
LINE
  5
1DB
330
1F
100
AcDbEntity
  8
0
  6
Continuous
 62
     7
370
    25
100
AcDbLine
 10
419.5409472304
 20
922.0202492408
 30
0.0
 11
438.011375226
 21
890.028529515
 31
0.0
  0
LINE
  5
1DC
330
1F
100
AcDbEntity
  8
0
  6
Continuous
 62
     7
370
    25
100
AcDbLine
 10
401.0705192349
 20
890.028529515
 30
0.0
 11
419.5409472304
 21
922.0202492408
 31
0.0
  0
LINE
  5
1DD
330
1F
100
AcDbEntity
  8
0
  6
Continuous
 62
     7
370
    25
100
AcDbLine
 10
438.011375226
 20
890.028529515
 30
0.0
 11
401.0705192349
 21
890.028529515
 31
0.0
  0
LINE
  5
1DE
330
1F
100
AcDbEntity
  8
0
  6
Continuous
 62
     7
370
    25
100
AcDbLine
 10
295.7398011346
 20
922.0202492408
 30
0.0
 11
332.6806571257
 21
922.0202492408
 31
0.0
  0
LINE
  5
1DF
330
1F
100
AcDbEntity
  8
0
  6
Continuous
 62
     7
370
    25
100
AcDbLine
 10
314.2102291302
 20
890.028529515
 30
0.0
 11
295.7398011346
 21
922.0202492408
 31
0.0
  0
LINE
  5
1E0
330
1F
100
AcDbEntity
  8
0
  6
Continuous
 62
     7
370
    25
100
AcDbLine
 10
332.6806571257
 20
922.0202492408
 30
0.0
 11
314.2102291302
 21
890.028529515
 31
0.0
  0
LINE
  5
1E1
330
1F
100
AcDbEntity
  8
0
  6
Continuous
 62
     7
370
    25
100
AcDbLine
 10
643.8546128115
 20
861.03842027
 30
0.0
 11
646.8546128115
 21
861.03842027
 31
0.0
  0
LINE
  5
1E2
330
1F
100
AcDbEntity
  8
0
  6
Continuous
 62
     7
370
    25
100
AcDbLine
 10
643.8546128115
 20
851.03842027
 30
0.0
 11
643.8546128115
 21
861.03842027
 31
0.0
  0
LINE
  5
1E3
330
1F
100
AcDbEntity
  8
0
  6
Continuous
 62
     7
370
    25
100
AcDbLine
 10
646.8546128115
 20
851.03842027
 30
0.0
 11
643.8546128115
 21
851.03842027
 31
0.0
  0
LINE
  5
1E4
330
1F
100
AcDbEntity
  8
0
  6
Continuous
 62
     7
370
    25
100
AcDbLine
 10
646.8546128115
 20
861.03842027
 30
0.0
 11
646.8546128115
 21
851.03842027
 31
0.0
  0
LINE
  5
1E5
330
1F
100
AcDbEntity
  8
0
  6
Continuous
 62
     7
370
    25
100
AcDbLine
 10
643.8546128115
 20
881.03842027
 30
0.0
 11
646.8546128115
 21
881.03842027
 31
0.0
  0
LINE
  5
1E6
330
1F
100
AcDbEntity
  8
0
  6
Continuous
 62
     7
370
    25
100
AcDbLine
 10
643.8546128115
 20
871.03842027
 30
0.0
 11
643.8546128115
 21
881.03842027
 31
0.0
  0
LINE
  5
1E7
330
1F
100
AcDbEntity
  8
0
  6
Continuous
 62
     7
370
    25
100
AcDbLine
 10
646.8546128115
 20
871.03842027
 30
0.0
 11
643.8546128115
 21
871.03842027
 31
0.0
  0
LINE
  5
1E8
330
1F
100
AcDbEntity
  8
0
  6
Continuous
 62
     7
370
    25
100
AcDbLine
 10
646.8546128115
 20
881.03842027
 30
0.0
 11
646.8546128115
 21
871.03842027
 31
0.0
  0
LINE
  5
1E9
330
1F
100
AcDbEntity
  8
0
  6
Continuous
 62
     7
370
    25
100
AcDbLine
 10
225.7398011346
 20
922.0202492408
 30
0.0
 11
262.6806571257
 21
922.0202492408
 31
0.0
  0
LINE
  5
1EA
330
1F
100
AcDbEntity
  8
0
  6
Continuous
 62
     7
370
    25
100
AcDbLine
 10
244.2102291302
 20
890.028529515
 30
0.0
 11
225.7398011346
 21
922.0202492408
 31
0.0
  0
LINE
  5
1EB
330
1F
100
AcDbEntity
  8
0
  6
Continuous
 62
     7
370
    25
100
AcDbLine
 10
262.6806571257
 20
922.0202492408
 30
0.0
 11
244.2102291302
 21
890.028529515
 31
0.0
  0
LINE
  5
1EC
330
1F
100
AcDbEntity
  8
0
  6
Continuous
 62
     7
370
    25
100
AcDbLine
 10
365.7398011346
 20
922.0202492408
 30
0.0
 11
402.6806571257
 21
922.0202492408
 31
0.0
  0
LINE
  5
1ED
330
1F
100
AcDbEntity
  8
0
  6
Continuous
 62
     7
370
    25
100
AcDbLine
 10
384.2102291302
 20
890.028529515
 30
0.0
 11
365.7398011346
 21
922.0202492408
 31
0.0
  0
LINE
  5
1EE
330
1F
100
AcDbEntity
  8
0
  6
Continuous
 62
     7
370
    25
100
AcDbLine
 10
402.6806571257
 20
922.0202492408
 30
0.0
 11
384.2102291302
 21
890.028529515
 31
0.0
  0
LINE
  5
1EF
330
1F
100
AcDbEntity
  8
0
  6
Continuous
 62
     7
370
    25
100
AcDbLine
 10
643.8546128115
 20
801.03842027
 30
0.0
 11
646.8546128115
 21
801.03842027
 31
0.0
  0
LINE
  5
1F0
330
1F
100
AcDbEntity
  8
0
  6
Continuous
 62
     7
370
    25
100
AcDbLine
 10
643.8546128115
 20
791.03842027
 30
0.0
 11
643.8546128115
 21
801.03842027
 31
0.0
  0
LINE
  5
1F1
330
1F
100
AcDbEntity
  8
0
  6
Continuous
 62
     7
370
    25
100
AcDbLine
 10
646.8546128115
 20
791.03842027
 30
0.0
 11
643.8546128115
 21
791.03842027
 31
0.0
  0
LINE
  5
1F2
330
1F
100
AcDbEntity
  8
0
  6
Continuous
 62
     7
370
    25
100
AcDbLine
 10
646.8546128115
 20
801.03842027
 30
0.0
 11
646.8546128115
 21
791.03842027
 31
0.0
  0
LINE
  5
1F3
330
1F
100
AcDbEntity
  8
0
  6
Continuous
 62
     7
370
    25
100
AcDbLine
 10
643.8546128115
 20
841.03842027
 30
0.0
 11
646.8546128115
 21
841.03842027
 31
0.0
  0
LINE
  5
1F4
330
1F
100
AcDbEntity
  8
0
  6
Continuous
 62
     7
370
    25
100
AcDbLine
 10
643.8546128115
 20
831.03842027
 30
0.0
 11
643.8546128115
 21
841.03842027
 31
0.0
  0
LINE
  5
1F5
330
1F
100
AcDbEntity
  8
0
  6
Continuous
 62
     7
370
    25
100
AcDbLine
 10
646.8546128115
 20
831.03842027
 30
0.0
 11
643.8546128115
 21
831.03842027
 31
0.0
  0
LINE
  5
1F6
330
1F
100
AcDbEntity
  8
0
  6
Continuous
 62
     7
370
    25
100
AcDbLine
 10
646.8546128115
 20
841.03842027
 30
0.0
 11
646.8546128115
 21
831.03842027
 31
0.0
  0
LINE
  5
1F7
330
1F
100
AcDbEntity
  8
0
  6
Continuous
 62
     7
370
    25
100
AcDbLine
 10
279.5409472304
 20
922.0202492408
 30
0.0
 11
298.011375226
 21
890.028529515
 31
0.0
  0
LINE
  5
1F8
330
1F
100
AcDbEntity
  8
0
  6
Continuous
 62
     7
370
    25
100
AcDbLine
 10
261.0705192349
 20
890.028529515
 30
0.0
 11
279.5409472304
 21
922.0202492408
 31
0.0
  0
LINE
  5
1F9
330
1F
100
AcDbEntity
  8
0
  6
Continuous
 62
     7
370
    25
100
AcDbLine
 10
298.011375226
 20
890.028529515
 30
0.0
 11
261.0705192349
 21
890.028529515
 31
0.0
  0
LINE
  5
1FA
330
1F
100
AcDbEntity
  8
0
  6
Continuous
 62
     7
370
    25
100
AcDbLine
 10
155.7398011346
 20
922.0202492408
 30
0.0
 11
192.6806571257
 21
922.0202492408
 31
0.0
  0
LINE
  5
1FB
330
1F
100
AcDbEntity
  8
0
  6
Continuous
 62
     7
370
    25
100
AcDbLine
 10
174.2102291302
 20
890.028529515
 30
0.0
 11
155.7398011346
 21
922.0202492408
 31
0.0
  0
LINE
  5
1FC
330
1F
100
AcDbEntity
  8
0
  6
Continuous
 62
     7
370
    25
100
AcDbLine
 10
192.6806571257
 20
922.0202492408
 30
0.0
 11
174.2102291302
 21
890.028529515
 31
0.0
  0
LINE
  5
1FD
330
1F
100
AcDbEntity
  8
0
  6
Continuous
 62
     7
370
    25
100
AcDbLine
 10
839.5409472304
 20
922.0202492408
 30
0.0
 11
858.011375226
 21
890.028529515
 31
0.0
  0
LINE
  5
1FE
330
1F
100
AcDbEntity
  8
0
  6
Continuous
 62
     7
370
    25
100
AcDbLine
 10
821.0705192349
 20
890.028529515
 30
0.0
 11
839.5409472304
 21
922.0202492408
 31
0.0
  0
LINE
  5
1FF
330
1F
100
AcDbEntity
  8
0
  6
Continuous
 62
     7
370
    25
100
AcDbLine
 10
858.011375226
 20
890.028529515
 30
0.0
 11
821.0705192349
 21
890.028529515
 31
0.0
  0
LINE
  5
200
330
1F
100
AcDbEntity
  8
0
  6
Continuous
 62
     7
370
    25
100
AcDbLine
 10
839.5409472304
 20
964.1987827078
 30
0.0
 11
858.011375226
 21
932.207062982
 31
0.0
  0
LINE
  5
201
330
1F
100
AcDbEntity
  8
0
  6
Continuous
 62
     7
370
    25
100
AcDbLine
 10
821.0705192349
 20
932.207062982
 30
0.0
 11
839.5409472304
 21
964.1987827078
 31
0.0
  0
LINE
  5
202
330
1F
100
AcDbEntity
  8
0
  6
Continuous
 62
     7
370
    25
100
AcDbLine
 10
858.011375226
 20
932.207062982
 30
0.0
 11
821.0705192349
 21
932.207062982
 31
0.0
  0
LINE
  5
203
330
1F
100
AcDbEntity
  8
0
  6
Continuous
 62
     7
370
    25
100
AcDbLine
 10
769.5409472304
 20
922.0202492408
 30
0.0
 11
788.011375226
 21
890.028529515
 31
0.0
  0
LINE
  5
204
330
1F
100
AcDbEntity
  8
0
  6
Continuous
 62
     7
370
    25
100
AcDbLine
 10
751.0705192349
 20
890.028529515
 30
0.0
 11
769.5409472304
 21
922.0202492408
 31
0.0
  0
LINE
  5
205
330
1F
100
AcDbEntity
  8
0
  6
Continuous
 62
     7
370
    25
100
AcDbLine
 10
788.011375226
 20
890.028529515
 30
0.0
 11
751.0705192349
 21
890.028529515
 31
0.0
  0
LINE
  5
206
330
1F
100
AcDbEntity
  8
0
  6
Continuous
 62
     7
370
    25
100
AcDbLine
 10
769.5409472304
 20
964.1987827078
 30
0.0
 11
788.011375226
 21
932.207062982
 31
0.0
  0
LINE
  5
207
330
1F
100
AcDbEntity
  8
0
  6
Continuous
 62
     7
370
    25
100
AcDbLine
 10
751.0705192349
 20
932.207062982
 30
0.0
 11
769.5409472304
 21
964.1987827078
 31
0.0
  0
LINE
  5
208
330
1F
100
AcDbEntity
  8
0
  6
Continuous
 62
     7
370
    25
100
AcDbLine
 10
788.011375226
 20
932.207062982
 30
0.0
 11
751.0705192349
 21
932.207062982
 31
0.0
  0
LINE
  5
209
330
1F
100
AcDbEntity
  8
0
  6
Continuous
 62
     7
370
    25
100
AcDbLine
 10
559.5409472304
 20
922.0202492408
 30
0.0
 11
578.011375226
 21
890.028529515
 31
0.0
  0
LINE
  5
20A
330
1F
100
AcDbEntity
  8
0
  6
Continuous
 62
     7
370
    25
100
AcDbLine
 10
541.0705192349
 20
890.028529515
 30
0.0
 11
559.5409472304
 21
922.0202492408
 31
0.0
  0
LINE
  5
20B
330
1F
100
AcDbEntity
  8
0
  6
Continuous
 62
     7
370
    25
100
AcDbLine
 10
578.011375226
 20
890.028529515
 30
0.0
 11
541.0705192349
 21
890.028529515
 31
0.0
  0
LINE
  5
20C
330
1F
100
AcDbEntity
  8
0
  6
Continuous
 62
     7
370
    25
100
AcDbLine
 10
505.7398011346
 20
922.0202492408
 30
0.0
 11
542.6806571257
 21
922.0202492408
 31
0.0
  0
LINE
  5
20D
330
1F
100
AcDbEntity
  8
0
  6
Continuous
 62
     7
370
    25
100
AcDbLine
 10
524.2102291302
 20
890.028529515
 30
0.0
 11
505.7398011346
 21
922.0202492408
 31
0.0
  0
LINE
  5
20E
330
1F
100
AcDbEntity
  8
0
  6
Continuous
 62
     7
370
    25
100
AcDbLine
 10
542.6806571257
 20
922.0202492408
 30
0.0
 11
524.2102291302
 21
890.028529515
 31
0.0
  0
LINE
  5
20F
330
1F
100
AcDbEntity
  8
0
  6
Continuous
 62
     7
370
    25
100
AcDbLine
 10
786.0705192349
 20
964.1987827078
 30
0.0
 11
823.011375226
 21
964.1987827078
 31
0.0
  0
LINE
  5
210
330
1F
100
AcDbEntity
  8
0
  6
Continuous
 62
     7
370
    25
100
AcDbLine
 10
804.5409472304
 20
932.207062982
 30
0.0
 11
786.0705192349
 21
964.1987827078
 31
0.0
  0
LINE
  5
211
330
1F
100
AcDbEntity
  8
0
  6
Continuous
 62
     7
370
    25
100
AcDbLine
 10
823.011375226
 20
964.1987827078
 30
0.0
 11
804.5409472304
 21
932.207062982
 31
0.0
  0
LINE
  5
212
330
1F
100
AcDbEntity
  8
0
  6
Continuous
 62
     7
370
    25
100
AcDbLine
 10
715.7398011346
 20
922.0202492408
 30
0.0
 11
752.6806571257
 21
922.0202492408
 31
0.0
  0
LINE
  5
213
330
1F
100
AcDbEntity
  8
0
  6
Continuous
 62
     7
370
    25
100
AcDbLine
 10
734.2102291302
 20
890.028529515
 30
0.0
 11
715.7398011346
 21
922.0202492408
 31
0.0
  0
LINE
  5
214
330
1F
100
AcDbEntity
  8
0
  6
Continuous
 62
     7
370
    25
100
AcDbLine
 10
752.6806571257
 20
922.0202492408
 30
0.0
 11
734.2102291302
 21
890.028529515
 31
0.0
  0
LINE
  5
215
330
1F
100
AcDbEntity
  8
0
  6
Continuous
 62
     7
370
    25
100
AcDbLine
 10
716.0705192349
 20
964.1987827078
 30
0.0
 11
753.011375226
 21
964.1987827078
 31
0.0
  0
LINE
  5
216
330
1F
100
AcDbEntity
  8
0
  6
Continuous
 62
     7
370
    25
100
AcDbLine
 10
734.5409472304
 20
932.207062982
 30
0.0
 11
716.0705192349
 21
964.1987827078
 31
0.0
  0
LINE
  5
217
330
1F
100
AcDbEntity
  8
0
  6
Continuous
 62
     7
370
    25
100
AcDbLine
 10
753.011375226
 20
964.1987827078
 30
0.0
 11
734.5409472304
 21
932.207062982
 31
0.0
  0
LINE
  5
218
330
1F
100
AcDbEntity
  8
0
  6
Continuous
 62
     7
370
    25
100
AcDbLine
 10
646.0705192349
 20
964.1987827078
 30
0.0
 11
683.011375226
 21
964.1987827078
 31
0.0
  0
LINE
  5
219
330
1F
100
AcDbEntity
  8
0
  6
Continuous
 62
     7
370
    25
100
AcDbLine
 10
664.5409472304
 20
932.207062982
 30
0.0
 11
646.0705192349
 21
964.1987827078
 31
0.0
  0
LINE
  5
21A
330
1F
100
AcDbEntity
  8
0
  6
Continuous
 62
     7
370
    25
100
AcDbLine
 10
683.011375226
 20
964.1987827078
 30
0.0
 11
664.5409472304
 21
932.207062982
 31
0.0
  0
LINE
  5
21B
330
1F
100
AcDbEntity
  8
0
  6
Continuous
 62
     7
370
    25
100
AcDbLine
 10
226.0705192349
 20
879.1987827078
 30
0.0
 11
263.011375226
 21
879.1987827078
 31
0.0
  0
LINE
  5
21C
330
1F
100
AcDbEntity
  8
0
  6
Continuous
 62
     7
370
    25
100
AcDbLine
 10
244.5409472304
 20
847.207062982
 30
0.0
 11
226.0705192349
 21
879.1987827078
 31
0.0
  0
LINE
  5
21D
330
1F
100
AcDbEntity
  8
0
  6
Continuous
 62
     7
370
    25
100
AcDbLine
 10
263.011375226
 20
879.1987827078
 30
0.0
 11
244.5409472304
 21
847.207062982
 31
0.0
  0
LINE
  5
21E
330
1F
100
AcDbEntity
  8
0
  6
Continuous
 62
     7
370
    25
100
AcDbLine
 10
496.3546128115
 20
931.03842027
 30
0.0
 11
496.3546128115
 21
934.63842027
 31
0.0
  0
LINE
  5
21F
330
1F
100
AcDbEntity
  8
0
  6
Continuous
 62
     7
370
    25
100
AcDbLine
 10
506.3546128115
 20
931.03842027
 30
0.0
 11
496.3546128115
 21
931.03842027
 31
0.0
  0
LINE
  5
220
330
1F
100
AcDbEntity
  8
0
  6
Continuous
 62
     7
370
    25
100
AcDbLine
 10
506.3546128115
 20
934.63842027
 30
0.0
 11
506.3546128115
 21
931.03842027
 31
0.0
  0
LINE
  5
221
330
1F
100
AcDbEntity
  8
0
  6
Continuous
 62
     7
370
    25
100
AcDbLine
 10
496.3546128115
 20
934.63842027
 30
0.0
 11
506.3546128115
 21
934.63842027
 31
0.0
  0
LINE
  5
222
330
1F
100
AcDbEntity
  8
0
  6
Continuous
 62
     7
370
    25
100
AcDbLine
 10
205.8546128115
 20
931.03842027
 30
0.0
 11
205.8546128115
 21
934.63842027
 31
0.0
  0
LINE
  5
223
330
1F
100
AcDbEntity
  8
0
  6
Continuous
 62
     7
370
    25
100
AcDbLine
 10
215.8546128115
 20
931.03842027
 30
0.0
 11
205.8546128115
 21
931.03842027
 31
0.0
  0
LINE
  5
224
330
1F
100
AcDbEntity
  8
0
  6
Continuous
 62
     7
370
    25
100
AcDbLine
 10
215.8546128115
 20
934.63842027
 30
0.0
 11
215.8546128115
 21
931.03842027
 31
0.0
  0
LINE
  5
225
330
1F
100
AcDbEntity
  8
0
  6
Continuous
 62
     7
370
    25
100
AcDbLine
 10
205.8546128115
 20
934.63842027
 30
0.0
 11
215.8546128115
 21
934.63842027
 31
0.0
  0
LINE
  5
226
330
1F
100
AcDbEntity
  8
0
  6
Continuous
 62
     7
370
    25
100
AcDbLine
 10
296.0705192349
 20
879.1987827078
 30
0.0
 11
333.011375226
 21
879.1987827078
 31
0.0
  0
LINE
  5
227
330
1F
100
AcDbEntity
  8
0
  6
Continuous
 62
     7
370
    25
100
AcDbLine
 10
314.5409472304
 20
847.207062982
 30
0.0
 11
296.0705192349
 21
879.1987827078
 31
0.0
  0
LINE
  5
228
330
1F
100
AcDbEntity
  8
0
  6
Continuous
 62
     7
370
    25
100
AcDbLine
 10
333.011375226
 20
879.1987827078
 30
0.0
 11
314.5409472304
 21
847.207062982
 31
0.0
  0
LINE
  5
229
330
1F
100
AcDbEntity
  8
0
  6
Continuous
 62
     7
370
    25
100
AcDbLine
 10
279.5409472304
 20
879.1987827078
 30
0.0
 11
298.011375226
 21
847.207062982
 31
0.0
  0
LINE
  5
22A
330
1F
100
AcDbEntity
  8
0
  6
Continuous
 62
     7
370
    25
100
AcDbLine
 10
261.0705192349
 20
847.207062982
 30
0.0
 11
279.5409472304
 21
879.1987827078
 31
0.0
  0
LINE
  5
22B
330
1F
100
AcDbEntity
  8
0
  6
Continuous
 62
     7
370
    25
100
AcDbLine
 10
298.011375226
 20
847.207062982
 30
0.0
 11
261.0705192349
 21
847.207062982
 31
0.0
  0
LINE
  5
22C
330
1F
100
AcDbEntity
  8
0
  6
Continuous
 62
     7
370
    25
100
AcDbLine
 10
225.7398011346
 20
837.0202492408
 30
0.0
 11
262.6806571257
 21
837.0202492408
 31
0.0
  0
LINE
  5
22D
330
1F
100
AcDbEntity
  8
0
  6
Continuous
 62
     7
370
    25
100
AcDbLine
 10
244.2102291302
 20
805.028529515
 30
0.0
 11
225.7398011346
 21
837.0202492408
 31
0.0
  0
LINE
  5
22E
330
1F
100
AcDbEntity
  8
0
  6
Continuous
 62
     7
370
    25
100
AcDbLine
 10
262.6806571257
 20
837.0202492408
 30
0.0
 11
244.2102291302
 21
805.028529515
 31
0.0
  0
LINE
  5
22F
330
1F
100
AcDbEntity
  8
0
  6
Continuous
 62
     7
370
    25
100
AcDbLine
 10
209.5409472304
 20
837.0202492408
 30
0.0
 11
228.011375226
 21
805.028529515
 31
0.0
  0
LINE
  5
230
330
1F
100
AcDbEntity
  8
0
  6
Continuous
 62
     7
370
    25
100
AcDbLine
 10
191.0705192349
 20
805.028529515
 30
0.0
 11
209.5409472304
 21
837.0202492408
 31
0.0
  0
LINE
  5
231
330
1F
100
AcDbEntity
  8
0
  6
Continuous
 62
     7
370
    25
100
AcDbLine
 10
228.011375226
 20
805.028529515
 30
0.0
 11
191.0705192349
 21
805.028529515
 31
0.0
  0
LINE
  5
232
330
1F
100
AcDbEntity
  8
0
  6
Continuous
 62
     7
370
    25
100
AcDbLine
 10
120.4785756364
 20
815.8426205691
 30
0.0
 11
120.4785756364
 21
819.4426205691
 31
0.0
  0
LINE
  5
233
330
1F
100
AcDbEntity
  8
0
  6
Continuous
 62
     7
370
    25
100
AcDbLine
 10
133.4785756364
 20
815.8426205691
 30
0.0
 11
120.4785756364
 21
815.8426205691
 31
0.0
  0
LINE
  5
234
330
1F
100
AcDbEntity
  8
0
  6
Continuous
 62
     7
370
    25
100
AcDbLine
 10
133.4785756364
 20
819.4426205691
 30
0.0
 11
133.4785756364
 21
815.8426205691
 31
0.0
  0
LINE
  5
235
330
1F
100
AcDbEntity
  8
0
  6
Continuous
 62
     7
370
    25
100
AcDbLine
 10
120.4785756364
 20
819.4426205691
 30
0.0
 11
133.4785756364
 21
819.4426205691
 31
0.0
  0
LINE
  5
236
330
1F
100
AcDbEntity
  8
0
  6
Continuous
 62
     7
370
    25
100
AcDbLine
 10
209.5409472304
 20
879.1987827078
 30
0.0
 11
228.011375226
 21
847.207062982
 31
0.0
  0
LINE
  5
237
330
1F
100
AcDbEntity
  8
0
  6
Continuous
 62
     7
370
    25
100
AcDbLine
 10
191.0705192349
 20
847.207062982
 30
0.0
 11
209.5409472304
 21
879.1987827078
 31
0.0
  0
LINE
  5
238
330
1F
100
AcDbEntity
  8
0
  6
Continuous
 62
     7
370
    25
100
AcDbLine
 10
228.011375226
 20
847.207062982
 30
0.0
 11
191.0705192349
 21
847.207062982
 31
0.0
  0
LINE
  5
239
330
1F
100
AcDbEntity
  8
0
  6
Continuous
 62
     7
370
    25
100
AcDbLine
 10
863.8347606908
 20
820.7086389983
 30
0.0
 11
861.4223661197
 21
818.0364952086
 31
0.0
  0
LINE
  5
23A
330
1F
100
AcDbEntity
  8
0
  6
Continuous
 62
     7
370
    25
100
AcDbLine
 10
854.1853525612
 20
829.4200638386
 30
0.0
 11
863.8347606908
 21
820.7086389983
 31
0.0
  0
LINE
  5
23B
330
1F
100
AcDbEntity
  8
0
  6
Continuous
 62
     7
370
    25
100
AcDbLine
 10
851.7729579901
 20
826.7479200489
 30
0.0
 11
854.1853525612
 21
829.4200638386
 31
0.0
  0
LINE
  5
23C
330
1F
100
AcDbEntity
  8
0
  6
Continuous
 62
     7
370
    25
100
AcDbLine
 10
861.4223661197
 20
818.0364952086
 30
0.0
 11
851.7729579901
 21
826.7479200489
 31
0.0
  0
LINE
  5
23D
330
1F
100
AcDbEntity
  8
0
  6
Continuous
 62
     7
370
    25
100
AcDbLine
 10
884.8342949991
 20
860.0583592734
 30
0.0
 11
883.8316131408
 21
856.6008125867
 31
0.0
  0
LINE
  5
23E
330
1F
100
AcDbEntity
  8
0
  6
Continuous
 62
     7
370
    25
100
AcDbLine
 10
872.3487097413
 20
863.6791548727
 30
0.0
 11
884.8342949991
 21
860.0583592734
 31
0.0
  0
LINE
  5
23F
330
1F
100
AcDbEntity
  8
0
  6
Continuous
 62
     7
370
    25
100
AcDbLine
 10
871.3460278831
 20
860.2216081859
 30
0.0
 11
872.3487097413
 21
863.6791548727
 31
0.0
  0
LINE
  5
240
330
1F
100
AcDbEntity
  8
0
  6
Continuous
 62
     7
370
    25
100
AcDbLine
 10
883.8316131408
 20
856.6008125867
 30
0.0
 11
871.3460278831
 21
860.2216081859
 31
0.0
  0
LINE
  5
241
330
1F
100
AcDbEntity
  8
0
  6
Continuous
 62
     7
370
    25
100
AcDbLine
 10
636.3546128115
 20
934.63842027
 30
0.0
 11
646.8546128115
 21
934.63842027
 31
0.0
  0
LINE
  5
242
330
1F
100
AcDbEntity
  8
0
  6
Continuous
 62
     7
370
    25
100
AcDbLine
 10
636.3546128115
 20
931.03842027
 30
0.0
 11
636.3546128115
 21
934.63842027
 31
0.0
  0
LINE
  5
243
330
1F
100
AcDbEntity
  8
0
  6
Continuous
 62
     7
370
    25
100
AcDbLine
 10
626.3546128115
 20
931.03842027
 30
0.0
 11
636.3546128115
 21
931.03842027
 31
0.0
  0
LINE
  5
244
330
1F
100
AcDbEntity
  8
0
  6
Continuous
 62
     7
370
    25
100
AcDbLine
 10
626.3546128115
 20
934.63842027
 30
0.0
 11
626.3546128115
 21
931.03842027
 31
0.0
  0
LINE
  5
245
330
1F
100
AcDbEntity
  8
0
  6
Continuous
 62
     7
370
    25
100
AcDbLine
 10
616.3546128115
 20
934.63842027
 30
0.0
 11
626.3546128115
 21
934.63842027
 31
0.0
  0
LINE
  5
246
330
1F
100
AcDbEntity
  8
0
  6
Continuous
 62
     7
370
    25
100
AcDbLine
 10
616.3546128115
 20
931.03842027
 30
0.0
 11
616.3546128115
 21
934.63842027
 31
0.0
  0
LINE
  5
247
330
1F
100
AcDbEntity
  8
0
  6
Continuous
 62
     7
370
    25
100
AcDbLine
 10
606.3546128115
 20
931.03842027
 30
0.0
 11
616.3546128115
 21
931.03842027
 31
0.0
  0
LINE
  5
248
330
1F
100
AcDbEntity
  8
0
  6
Continuous
 62
     7
370
    25
100
AcDbLine
 10
606.3546128115
 20
934.63842027
 30
0.0
 11
606.3546128115
 21
931.03842027
 31
0.0
  0
LINE
  5
249
330
1F
100
AcDbEntity
  8
0
  6
Continuous
 62
     7
370
    25
100
AcDbLine
 10
596.3546128115
 20
934.63842027
 30
0.0
 11
606.3546128115
 21
934.63842027
 31
0.0
  0
LINE
  5
24A
330
1F
100
AcDbEntity
  8
0
  6
Continuous
 62
     7
370
    25
100
AcDbLine
 10
596.3546128115
 20
931.03842027
 30
0.0
 11
596.3546128115
 21
934.63842027
 31
0.0
  0
LINE
  5
24B
330
1F
100
AcDbEntity
  8
0
  6
Continuous
 62
     7
370
    25
100
AcDbLine
 10
593.8546128115
 20
931.03842027
 30
0.0
 11
596.3546128115
 21
931.03842027
 31
0.0
  0
LINE
  5
24C
330
1F
100
AcDbEntity
  8
0
  6
Continuous
 62
     7
370
    25
100
AcDbLine
 10
593.8546128115
 20
896.03842027
 30
0.0
 11
593.8546128115
 21
931.03842027
 31
0.0
  0
LINE
  5
24D
330
1F
100
AcDbEntity
  8
0
  6
Continuous
 62
     7
370
    25
100
AcDbLine
 10
643.8546128115
 20
896.03842027
 30
0.0
 11
593.8546128115
 21
896.03842027
 31
0.0
  0
LINE
  5
24E
330
1F
100
AcDbEntity
  8
0
  6
Continuous
 62
     7
370
    25
100
AcDbLine
 10
643.8546128115
 20
891.03842027
 30
0.0
 11
643.8546128115
 21
896.03842027
 31
0.0
  0
LINE
  5
24F
330
1F
100
AcDbEntity
  8
0
  6
Continuous
 62
     7
370
    25
100
AcDbLine
 10
646.8546128115
 20
891.03842027
 30
0.0
 11
643.8546128115
 21
891.03842027
 31
0.0
  0
LINE
  5
250
330
1F
100
AcDbEntity
  8
0
  6
Continuous
 62
     7
370
    25
100
AcDbLine
 10
646.8546128115
 20
901.03842027
 30
0.0
 11
646.8546128115
 21
891.03842027
 31
0.0
  0
LINE
  5
251
330
1F
100
AcDbEntity
  8
0
  6
Continuous
 62
     7
370
    25
100
AcDbLine
 10
643.8546128115
 20
901.03842027
 30
0.0
 11
646.8546128115
 21
901.03842027
 31
0.0
  0
LINE
  5
252
330
1F
100
AcDbEntity
  8
0
  6
Continuous
 62
     7
370
    25
100
AcDbLine
 10
643.8546128115
 20
911.03842027
 30
0.0
 11
643.8546128115
 21
901.03842027
 31
0.0
  0
LINE
  5
253
330
1F
100
AcDbEntity
  8
0
  6
Continuous
 62
     7
370
    25
100
AcDbLine
 10
646.8546128115
 20
911.03842027
 30
0.0
 11
643.8546128115
 21
911.03842027
 31
0.0
  0
LINE
  5
254
330
1F
100
AcDbEntity
  8
0
  6
Continuous
 62
     7
370
    25
100
AcDbLine
 10
646.8546128115
 20
921.03842027
 30
0.0
 11
646.8546128115
 21
911.03842027
 31
0.0
  0
LINE
  5
255
330
1F
100
AcDbEntity
  8
0
  6
Continuous
 62
     7
370
    25
100
AcDbLine
 10
643.8546128115
 20
921.03842027
 30
0.0
 11
646.8546128115
 21
921.03842027
 31
0.0
  0
LINE
  5
256
330
1F
100
AcDbEntity
  8
0
  6
Continuous
 62
     7
370
    25
100
AcDbLine
 10
643.8546128115
 20
931.03842027
 30
0.0
 11
643.8546128115
 21
921.03842027
 31
0.0
  0
LINE
  5
257
330
1F
100
AcDbEntity
  8
0
  6
Continuous
 62
     7
370
    25
100
AcDbLine
 10
646.8546128115
 20
931.03842027
 30
0.0
 11
643.8546128115
 21
931.03842027
 31
0.0
  0
LINE
  5
258
330
1F
100
AcDbEntity
  8
0
  6
Continuous
 62
     7
370
    25
100
AcDbLine
 10
646.8546128115
 20
934.63842027
 30
0.0
 11
646.8546128115
 21
931.03842027
 31
0.0
  0
LINE
  5
259
330
1F
100
AcDbEntity
  8
0
  6
Continuous
 62
     7
370
    25
100
AcDbLine
 10
116.8270986334
 20
894.6975560806
 30
0.0
 11
116.8270986334
 21
898.2975560806
 31
0.0
  0
LINE
  5
25A
330
1F
100
AcDbEntity
  8
0
  6
Continuous
 62
     7
370
    25
100
AcDbLine
 10
129.8270986334
 20
894.6975560806
 30
0.0
 11
116.8270986334
 21
894.6975560806
 31
0.0
  0
LINE
  5
25B
330
1F
100
AcDbEntity
  8
0
  6
Continuous
 62
     7
370
    25
100
AcDbLine
 10
129.8270986334
 20
898.2975560806
 30
0.0
 11
129.8270986334
 21
894.6975560806
 31
0.0
  0
LINE
  5
25C
330
1F
100
AcDbEntity
  8
0
  6
Continuous
 62
     7
370
    25
100
AcDbLine
 10
116.8270986334
 20
898.2975560806
 30
0.0
 11
129.8270986334
 21
898.2975560806
 31
0.0
  0
LINE
  5
25D
330
1F
100
AcDbEntity
  8
0
  6
Continuous
 62
     7
370
    25
100
AcDbLine
 10
828.2411647516
 20
850.3552779342
 30
0.0
 11
824.6411647516
 21
850.3552779342
 31
0.0
  0
LINE
  5
25E
330
1F
100
AcDbEntity
  8
0
  6
Continuous
 62
     7
370
    25
100
AcDbLine
 10
828.2411647516
 20
863.3552779342
 30
0.0
 11
828.2411647516
 21
850.3552779342
 31
0.0
  0
LINE
  5
25F
330
1F
100
AcDbEntity
  8
0
  6
Continuous
 62
     7
370
    25
100
AcDbLine
 10
824.6411647516
 20
863.3552779342
 30
0.0
 11
828.2411647516
 21
863.3552779342
 31
0.0
  0
LINE
  5
260
330
1F
100
AcDbEntity
  8
0
  6
Continuous
 62
     7
370
    25
100
AcDbLine
 10
824.6411647516
 20
850.3552779342
 30
0.0
 11
824.6411647516
 21
863.3552779342
 31
0.0
  0
LINE
  5
261
330
1F
100
AcDbEntity
  8
0
  6
Continuous
 62
     7
370
    25
100
AcDbLine
 10
643.8546128115
 20
811.03842027
 30
0.0
 11
643.8546128115
 21
821.03842027
 31
0.0
  0
LINE
  5
262
330
1F
100
AcDbEntity
  8
0
  6
Continuous
 62
     7
370
    25
100
AcDbLine
 10
646.8546128115
 20
811.03842027
 30
0.0
 11
643.8546128115
 21
811.03842027
 31
0.0
  0
LINE
  5
263
330
1F
100
AcDbEntity
  8
0
  6
Continuous
 62
     7
370
    25
100
AcDbLine
 10
646.8546128115
 20
803.5118012993
 30
0.0
 11
646.8546128115
 21
811.03842027
 31
0.0
  0
ARC
  5
264
330
1F
100
AcDbEntity
  8
0
  6
Continuous
 62
     7
370
    25
100
AcDbCircle
 10
649.3546128115
 20
803.5118012993
 30
0.0
 40
2.500000000000114
100
AcDbArc
 50
180.0
 51
270.0
  0
LINE
  5
265
330
1F
100
AcDbEntity
  8
0
  6
Continuous
 62
     7
370
    25
100
AcDbLine
 10
652.5546128115
 20
801.0118012993
 30
0.0
 11
649.3546128115
 21
801.0118012993
 31
0.0
  0
ARC
  5
266
330
1F
100
AcDbEntity
  8
0
  6
Continuous
 62
     7
370
    25
100
AcDbCircle
 10
652.5546128115
 20
803.5118012993
 30
0.0
 40
2.500000000000114
100
AcDbArc
 50
270.0
 51
0.0
  0
LINE
  5
267
330
1F
100
AcDbEntity
  8
0
  6
Continuous
 62
     7
370
    25
100
AcDbLine
 10
655.0546128115
 20
816.7118012993
 30
0.0
 11
655.0546128115
 21
803.5118012993
 31
0.0
  0
LINE
  5
268
330
1F
100
AcDbEntity
  8
0
  6
Continuous
 62
     7
370
    25
100
AcDbLine
 10
646.8546128115
 20
816.7118012993
 30
0.0
 11
655.0546128115
 21
816.7118012993
 31
0.0
  0
LINE
  5
269
330
1F
100
AcDbEntity
  8
0
  6
Continuous
 62
     7
370
    25
100
AcDbLine
 10
646.8546128115
 20
821.03842027
 30
0.0
 11
646.8546128115
 21
816.7118012993
 31
0.0
  0
LINE
  5
26A
330
1F
100
AcDbEntity
  8
0
  6
Continuous
 62
     7
370
    25
100
AcDbLine
 10
643.8546128115
 20
821.03842027
 30
0.0
 11
646.8546128115
 21
821.03842027
 31
0.0
  0
LINE
  5
26B
330
1F
100
AcDbEntity
  8
0
  6
Continuous
 62
     7
370
    25
100
AcDbLine
 10
826.7418748764
 20
794.0615140695
 30
0.0
 11
823.3898111481
 21
792.7486284074
 31
0.0
  0
LINE
  5
26C
330
1F
100
AcDbEntity
  8
0
  6
Continuous
 62
     7
370
    25
100
AcDbLine
 10
822.0008988745
 20
806.1661886438
 30
0.0
 11
826.7418748764
 21
794.0615140695
 31
0.0
  0
LINE
  5
26D
330
1F
100
AcDbEntity
  8
0
  6
Continuous
 62
     7
370
    25
100
AcDbLine
 10
818.6488351462
 20
804.8533029817
 30
0.0
 11
822.0008988745
 21
806.1661886438
 31
0.0
  0
LINE
  5
26E
330
1F
100
AcDbEntity
  8
0
  6
Continuous
 62
     7
370
    25
100
AcDbLine
 10
823.3898111481
 20
792.7486284074
 30
0.0
 11
818.6488351462
 21
804.8533029817
 31
0.0
  0
LINE
  5
26F
330
1F
100
AcDbEntity
  8
0
  6
Continuous
 62
     7
370
    25
100
AcDbLine
 10
880.2973924998
 20
925.1013972613
 30
0.0
 11
881.6505806427
 21
921.7653993821
 31
0.0
  0
LINE
  5
270
330
1F
100
AcDbEntity
  8
0
  6
Continuous
 62
     7
370
    25
100
AcDbLine
 10
868.2507334916
 20
920.214884523
 30
0.0
 11
880.2973924998
 21
925.1013972613
 31
0.0
  0
LINE
  5
271
330
1F
100
AcDbEntity
  8
0
  6
Continuous
 62
     7
370
    25
100
AcDbLine
 10
869.6039216345
 20
916.8788866438
 30
0.0
 11
868.2507334916
 21
920.214884523
 31
0.0
  0
LINE
  5
272
330
1F
100
AcDbEntity
  8
0
  6
Continuous
 62
     7
370
    25
100
AcDbLine
 10
881.6505806427
 20
921.7653993821
 30
0.0
 11
869.6039216345
 21
916.8788866438
 31
0.0
  0
LINE
  5
273
330
1F
100
AcDbEntity
  8
0
  6
Continuous
 62
     7
370
    25
100
AcDbLine
 10
185.8546128115
 20
931.03842027
 30
0.0
 11
185.8546128115
 21
934.63842027
 31
0.0
  0
LINE
  5
274
330
1F
100
AcDbEntity
  8
0
  6
Continuous
 62
     7
370
    25
100
AcDbLine
 10
195.8546128115
 20
931.03842027
 30
0.0
 11
185.8546128115
 21
931.03842027
 31
0.0
  0
LINE
  5
275
330
1F
100
AcDbEntity
  8
0
  6
Continuous
 62
     7
370
    25
100
AcDbLine
 10
195.8546128115
 20
934.63842027
 30
0.0
 11
195.8546128115
 21
931.03842027
 31
0.0
  0
LINE
  5
276
330
1F
100
AcDbEntity
  8
0
  6
Continuous
 62
     7
370
    25
100
AcDbLine
 10
185.8546128115
 20
934.63842027
 30
0.0
 11
195.8546128115
 21
934.63842027
 31
0.0
  0
LINE
  5
277
330
1F
100
AcDbEntity
  8
0
  6
Continuous
 62
     7
370
    25
100
AcDbLine
 10
767.2846128115
 20
990.43842027
 30
0.0
 11
767.2846128115
 21
994.03842027
 31
0.0
  0
LINE
  5
278
330
1F
100
AcDbEntity
  8
0
  6
Continuous
 62
     7
370
    25
100
AcDbLine
 10
780.2846128115
 20
990.43842027
 30
0.0
 11
767.2846128115
 21
990.43842027
 31
0.0
  0
LINE
  5
279
330
1F
100
AcDbEntity
  8
0
  6
Continuous
 62
     7
370
    25
100
AcDbLine
 10
780.2846128115
 20
994.03842027
 30
0.0
 11
780.2846128115
 21
990.43842027
 31
0.0
  0
LINE
  5
27A
330
1F
100
AcDbEntity
  8
0
  6
Continuous
 62
     7
370
    25
100
AcDbLine
 10
788.7846128115
 20
994.03842027
 30
0.0
 11
780.2846128115
 21
994.03842027
 31
0.0
  0
ARC
  5
27B
330
1F
100
AcDbEntity
  8
0
  6
Continuous
 62
     7
370
    25
100
AcDbCircle
 10
788.7846128115
 20
886.03842027
 30
0.0
 40
108.0
100
AcDbArc
 50
270.0
 51
90.0
  0
LINE
  5
27C
330
1F
100
AcDbEntity
  8
0
  6
Continuous
 62
     7
370
    25
100
AcDbLine
 10
788.7846128115
 20
781.03842027
 30
0.0
 11
788.7846128115
 21
778.03842027
 31
0.0
  0
LINE
  5
27D
330
1F
100
AcDbEntity
  8
0
  6
Continuous
 62
     7
370
    25
100
AcDbLine
 10
778.7846128115
 20
781.03842027
 30
0.0
 11
788.7846128115
 21
781.03842027
 31
0.0
  0
LINE
  5
27E
330
1F
100
AcDbEntity
  8
0
  6
Continuous
 62
     7
370
    25
100
AcDbLine
 10
778.7846128115
 20
778.03842027
 30
0.0
 11
778.7846128115
 21
781.03842027
 31
0.0
  0
LINE
  5
27F
330
1F
100
AcDbEntity
  8
0
  6
Continuous
 62
     7
370
    25
100
AcDbLine
 10
768.7846128115
 20
778.03842027
 30
0.0
 11
778.7846128115
 21
778.03842027
 31
0.0
  0
LINE
  5
280
330
1F
100
AcDbEntity
  8
0
  6
Continuous
 62
     7
370
    25
100
AcDbLine
 10
768.7846128115
 20
781.03842027
 30
0.0
 11
768.7846128115
 21
778.03842027
 31
0.0
  0
LINE
  5
281
330
1F
100
AcDbEntity
  8
0
  6
Continuous
 62
     7
370
    25
100
AcDbLine
 10
758.7846128115
 20
781.03842027
 30
0.0
 11
768.7846128115
 21
781.03842027
 31
0.0
  0
LINE
  5
282
330
1F
100
AcDbEntity
  8
0
  6
Continuous
 62
     7
370
    25
100
AcDbLine
 10
758.7846128115
 20
778.03842027
 30
0.0
 11
758.7846128115
 21
781.03842027
 31
0.0
  0
LINE
  5
283
330
1F
100
AcDbEntity
  8
0
  6
Continuous
 62
     7
370
    25
100
AcDbLine
 10
748.7846128115
 20
778.03842027
 30
0.0
 11
758.7846128115
 21
778.03842027
 31
0.0
  0
LINE
  5
284
330
1F
100
AcDbEntity
  8
0
  6
Continuous
 62
     7
370
    25
100
AcDbLine
 10
748.7846128115
 20
781.03842027
 30
0.0
 11
748.7846128115
 21
778.03842027
 31
0.0
  0
LINE
  5
285
330
1F
100
AcDbEntity
  8
0
  6
Continuous
 62
     7
370
    25
100
AcDbLine
 10
738.7846128115
 20
781.03842027
 30
0.0
 11
748.7846128115
 21
781.03842027
 31
0.0
  0
LINE
  5
286
330
1F
100
AcDbEntity
  8
0
  6
Continuous
 62
     7
370
    25
100
AcDbLine
 10
738.7846128115
 20
778.03842027
 30
0.0
 11
738.7846128115
 21
781.03842027
 31
0.0
  0
LINE
  5
287
330
1F
100
AcDbEntity
  8
0
  6
Continuous
 62
     7
370
    25
100
AcDbLine
 10
728.7846128115
 20
778.03842027
 30
0.0
 11
738.7846128115
 21
778.03842027
 31
0.0
  0
LINE
  5
288
330
1F
100
AcDbEntity
  8
0
  6
Continuous
 62
     7
370
    25
100
AcDbLine
 10
728.7846128115
 20
781.03842027
 30
0.0
 11
728.7846128115
 21
778.03842027
 31
0.0
  0
LINE
  5
289
330
1F
100
AcDbEntity
  8
0
  6
Continuous
 62
     7
370
    25
100
AcDbLine
 10
718.7846128115
 20
781.03842027
 30
0.0
 11
728.7846128115
 21
781.03842027
 31
0.0
  0
LINE
  5
28A
330
1F
100
AcDbEntity
  8
0
  6
Continuous
 62
     7
370
    25
100
AcDbLine
 10
718.7846128115
 20
778.03842027
 30
0.0
 11
718.7846128115
 21
781.03842027
 31
0.0
  0
LINE
  5
28B
330
1F
100
AcDbEntity
  8
0
  6
Continuous
 62
     7
370
    25
100
AcDbLine
 10
708.7846128115
 20
778.03842027
 30
0.0
 11
718.7846128115
 21
778.03842027
 31
0.0
  0
LINE
  5
28C
330
1F
100
AcDbEntity
  8
0
  6
Continuous
 62
     7
370
    25
100
AcDbLine
 10
708.7846128115
 20
781.03842027
 30
0.0
 11
708.7846128115
 21
778.03842027
 31
0.0
  0
LINE
  5
28D
330
1F
100
AcDbEntity
  8
0
  6
Continuous
 62
     7
370
    25
100
AcDbLine
 10
698.7846128115
 20
781.03842027
 30
0.0
 11
708.7846128115
 21
781.03842027
 31
0.0
  0
LINE
  5
28E
330
1F
100
AcDbEntity
  8
0
  6
Continuous
 62
     7
370
    25
100
AcDbLine
 10
698.7846128115
 20
778.03842027
 30
0.0
 11
698.7846128115
 21
781.03842027
 31
0.0
  0
LINE
  5
28F
330
1F
100
AcDbEntity
  8
0
  6
Continuous
 62
     7
370
    25
100
AcDbLine
 10
688.7846128115
 20
778.03842027
 30
0.0
 11
698.7846128115
 21
778.03842027
 31
0.0
  0
LINE
  5
290
330
1F
100
AcDbEntity
  8
0
  6
Continuous
 62
     7
370
    25
100
AcDbLine
 10
688.7846128115
 20
781.03842027
 30
0.0
 11
688.7846128115
 21
778.03842027
 31
0.0
  0
LINE
  5
291
330
1F
100
AcDbEntity
  8
0
  6
Continuous
 62
     7
370
    25
100
AcDbLine
 10
678.7846128115
 20
781.03842027
 30
0.0
 11
688.7846128115
 21
781.03842027
 31
0.0
  0
LINE
  5
292
330
1F
100
AcDbEntity
  8
0
  6
Continuous
 62
     7
370
    25
100
AcDbLine
 10
678.7846128115
 20
778.03842027
 30
0.0
 11
678.7846128115
 21
781.03842027
 31
0.0
  0
LINE
  5
293
330
1F
100
AcDbEntity
  8
0
  6
Continuous
 62
     7
370
    25
100
AcDbLine
 10
668.7846128115
 20
778.03842027
 30
0.0
 11
678.7846128115
 21
778.03842027
 31
0.0
  0
LINE
  5
294
330
1F
100
AcDbEntity
  8
0
  6
Continuous
 62
     7
370
    25
100
AcDbLine
 10
668.7846128115
 20
781.03842027
 30
0.0
 11
668.7846128115
 21
778.03842027
 31
0.0
  0
LINE
  5
295
330
1F
100
AcDbEntity
  8
0
  6
Continuous
 62
     7
370
    25
100
AcDbLine
 10
658.7846128115
 20
781.03842027
 30
0.0
 11
668.7846128115
 21
781.03842027
 31
0.0
  0
LINE
  5
296
330
1F
100
AcDbEntity
  8
0
  6
Continuous
 62
     7
370
    25
100
AcDbLine
 10
658.7846128115
 20
778.03842027
 30
0.0
 11
658.7846128115
 21
781.03842027
 31
0.0
  0
LINE
  5
297
330
1F
100
AcDbEntity
  8
0
  6
Continuous
 62
     7
370
    25
100
AcDbLine
 10
648.7846128115
 20
778.03842027
 30
0.0
 11
658.7846128115
 21
778.03842027
 31
0.0
  0
LINE
  5
298
330
1F
100
AcDbEntity
  8
0
  6
Continuous
 62
     7
370
    25
100
AcDbLine
 10
648.7846128115
 20
781.03842027
 30
0.0
 11
648.7846128115
 21
778.03842027
 31
0.0
  0
LINE
  5
299
330
1F
100
AcDbEntity
  8
0
  6
Continuous
 62
     7
370
    25
100
AcDbLine
 10
643.8546128115
 20
781.03842027
 30
0.0
 11
648.7846128115
 21
781.03842027
 31
0.0
  0
LINE
  5
29A
330
1F
100
AcDbEntity
  8
0
  6
Continuous
 62
     7
370
    25
100
AcDbLine
 10
643.8546128115
 20
778.03842027
 30
0.0
 11
643.8546128115
 21
781.03842027
 31
0.0
  0
LINE
  5
29B
330
1F
100
AcDbEntity
  8
0
  6
Continuous
 62
     7
370
    25
100
AcDbLine
 10
255.1928656025
 20
778.03842027
 30
0.0
 11
643.8546128115
 21
778.03842027
 31
0.0
  0
ARC
  5
29C
330
1F
100
AcDbEntity
  8
0
  6
Continuous
 62
     7
370
    25
100
AcDbCircle
 10
274.9653822224
 20
1228.6833980556
 30
0.0
 40
451.0785390781214
100
AcDbArc
 50
233.7461238427
 51
267.4876994658
  0
ARC
  5
29D
330
1F
100
AcDbEntity
  8
0
  6
Continuous
 62
     7
370
    25
100
AcDbCircle
 10
305.0791697752
 20
588.1819228514
 30
0.0
 40
405.8564974186048
100
AcDbArc
 50
135.8083998464
 51
137.0084539017
  0
LINE
  5
29E
330
1F
100
AcDbEntity
  8
0
  6
Continuous
 62
     7
370
    25
100
AcDbLine
 10
16.6429851736
 20
868.6941456296
 30
0.0
 11
14.0748629895
 21
871.0882499794
 31
0.0
  0
LINE
  5
29F
330
1F
100
AcDbEntity
  8
0
  6
Continuous
 62
     7
370
    25
100
AcDbLine
 10
25.5075609269
 20
878.2030518083
 30
0.0
 11
16.6429851736
 21
868.6941456296
 31
0.0
  0
LINE
  5
2A0
330
1F
100
AcDbEntity
  8
0
  6
Continuous
 62
     7
370
    25
100
AcDbLine
 10
23.2911627338
 20
880.2692652415
 30
0.0
 11
25.5075609269
 21
878.2030518083
 31
0.0
  0
ARC
  5
2A1
330
1F
100
AcDbEntity
  8
0
  6
Continuous
 62
     7
370
    25
100
AcDbCircle
 10
305.0791697752
 20
588.1819228514
 30
0.0
 40
405.8564974186048
100
AcDbArc
 50
120.8964820147
 51
133.9718235794
  0
LINE
  5
2A2
330
1F
100
AcDbEntity
  8
0
  6
Continuous
 62
     7
370
    25
100
AcDbLine
 10
98.5231191576
 20
933.3557195415
 30
0.0
 11
96.6764991009
 21
936.4459367154
 31
0.0
  0
LINE
  5
2A3
330
1F
100
AcDbEntity
  8
0
  6
Continuous
 62
     7
370
    25
100
AcDbLine
 10
109.6824744648
 20
940.0242118095
 30
0.0
 11
98.5231191576
 21
933.3557195415
 31
0.0
  0
LINE
  5
2A4
330
1F
100
AcDbEntity
  8
0
  6
Continuous
 62
     7
370
    25
100
AcDbLine
 10
107.9385795618
 20
942.9425240844
 30
0.0
 11
109.6824744648
 21
940.0242118095
 31
0.0
  0
ARC
  5
2A5
330
1F
100
AcDbEntity
  8
0
  6
Continuous
 62
     7
370
    25
100
AcDbCircle
 10
305.0791697752
 20
588.1819228514
 30
0.0
 40
405.8564974186048
100
AcDbArc
 50
94.1872358504
 51
119.0609431829
  0
LINE
  5
2A6
330
1F
100
AcDbEntity
  8
0
  6
Continuous
 62
     7
370
    25
100
AcDbLine
 10
275.6029199238
 20
989.5100998738
 30
0.0
 11
275.4451448005
 21
992.9550952093
 31
0.0
  0
LINE
  5
2A7
330
1F
100
AcDbEntity
  8
0
  6
Continuous
 62
     7
370
    25
100
AcDbLine
 10
288.5893076525
 20
990.1048550842
 30
0.0
 11
275.6029199238
 21
989.5100998738
 31
0.0
  0
LINE
  5
2A8
330
1F
100
AcDbEntity
  8
0
  6
Continuous
 62
     7
370
    25
100
AcDbLine
 10
288.4248130223
 20
993.6965698101
 30
0.0
 11
288.5893076525
 21
990.1048550842
 31
0.0
  0
ARC
  5
2A9
330
1F
100
AcDbEntity
  8
0
  6
Continuous
 62
     7
370
    25
100
AcDbCircle
 10
305.0791697752
 20
588.1819228514
 30
0.0
 40
405.8564974186048
100
AcDbArc
 50
90.0
 51
92.3517976459
  0
LINE
  5
2AA
330
1F
100
AcDbEntity
  8
0
  6
Continuous
 62
     7
370
    25
100
AcDbLine
 10
455.9864233452
 20
994.03842027
 30
0.0
 11
305.0791697752
 21
994.03842027
 31
0.0
  0
LINE
  5
2AB
330
1F
100
AcDbEntity
  8
0
  6
Continuous
 62
     7
370
    25
100
AcDbLine
 10
455.9864233452
 20
991.03842027
 30
0.0
 11
455.9864233452
 21
994.03842027
 31
0.0
  0
LINE
  5
2AC
330
1F
100
AcDbEntity
  8
0
  6
Continuous
 62
     7
370
    25
100
AcDbLine
 10
474.9864233452
 20
991.03842027
 30
0.0
 11
455.9864233452
 21
991.03842027
 31
0.0
  0
LINE
  5
2AD
330
1F
100
AcDbEntity
  8
0
  6
Continuous
 62
     7
370
    25
100
AcDbLine
 10
474.9864233452
 20
994.03842027
 30
0.0
 11
474.9864233452
 21
991.03842027
 31
0.0
  0
LINE
  5
2AE
330
1F
100
AcDbEntity
  8
0
  6
Continuous
 62
     7
370
    25
100
AcDbLine
 10
493.9864233452
 20
994.03842027
 30
0.0
 11
474.9864233452
 21
994.03842027
 31
0.0
  0
LINE
  5
2AF
330
1F
100
AcDbEntity
  8
0
  6
Continuous
 62
     7
370
    25
100
AcDbLine
 10
493.9864233452
 20
991.03842027
 30
0.0
 11
493.9864233452
 21
994.03842027
 31
0.0
  0
LINE
  5
2B0
330
1F
100
AcDbEntity
  8
0
  6
Continuous
 62
     7
370
    25
100
AcDbLine
 10
512.9864233452
 20
991.03842027
 30
0.0
 11
493.9864233452
 21
991.03842027
 31
0.0
  0
LINE
  5
2B1
330
1F
100
AcDbEntity
  8
0
  6
Continuous
 62
     7
370
    25
100
AcDbLine
 10
512.9864233452
 20
994.03842027
 30
0.0
 11
512.9864233452
 21
991.03842027
 31
0.0
  0
LINE
  5
2B2
330
1F
100
AcDbEntity
  8
0
  6
Continuous
 62
     7
370
    25
100
AcDbLine
 10
531.9864233452
 20
994.03842027
 30
0.0
 11
512.9864233452
 21
994.03842027
 31
0.0
  0
LINE
  5
2B3
330
1F
100
AcDbEntity
  8
0
  6
Continuous
 62
     7
370
    25
100
AcDbLine
 10
531.9864233452
 20
991.03842027
 30
0.0
 11
531.9864233452
 21
994.03842027
 31
0.0
  0
LINE
  5
2B4
330
1F
100
AcDbEntity
  8
0
  6
Continuous
 62
     7
370
    25
100
AcDbLine
 10
550.9864233452
 20
991.03842027
 30
0.0
 11
531.9864233452
 21
991.03842027
 31
0.0
  0
LINE
  5
2B5
330
1F
100
AcDbEntity
  8
0
  6
Continuous
 62
     7
370
    25
100
AcDbLine
 10
550.9864233452
 20
994.03842027
 30
0.0
 11
550.9864233452
 21
991.03842027
 31
0.0
  0
LINE
  5
2B6
330
1F
100
AcDbEntity
  8
0
  6
Continuous
 62
     7
370
    25
100
AcDbLine
 10
569.9864233452
 20
994.03842027
 30
0.0
 11
550.9864233452
 21
994.03842027
 31
0.0
  0
LINE
  5
2B7
330
1F
100
AcDbEntity
  8
0
  6
Continuous
 62
     7
370
    25
100
AcDbLine
 10
569.9864233452
 20
991.03842027
 30
0.0
 11
569.9864233452
 21
994.03842027
 31
0.0
  0
LINE
  5
2B8
330
1F
100
AcDbEntity
  8
0
  6
Continuous
 62
     7
370
    25
100
AcDbLine
 10
588.9864233452
 20
991.03842027
 30
0.0
 11
569.9864233452
 21
991.03842027
 31
0.0
  0
LINE
  5
2B9
330
1F
100
AcDbEntity
  8
0
  6
Continuous
 62
     7
370
    25
100
AcDbLine
 10
588.9864233452
 20
994.03842027
 30
0.0
 11
588.9864233452
 21
991.03842027
 31
0.0
  0
LINE
  5
2BA
330
1F
100
AcDbEntity
  8
0
  6
Continuous
 62
     7
370
    25
100
AcDbLine
 10
657.3922404357
 20
994.03842027
 30
0.0
 11
588.9864233452
 21
994.03842027
 31
0.0
  0
LINE
  5
2BB
330
1F
100
AcDbEntity
  8
0
  6
Continuous
 62
     7
370
    25
100
AcDbLine
 10
657.3922404357
 20
990.43842027
 30
0.0
 11
657.3922404357
 21
994.03842027
 31
0.0
  0
LINE
  5
2BC
330
1F
100
AcDbEntity
  8
0
  6
Continuous
 62
     7
370
    25
100
AcDbLine
 10
670.3922404357
 20
990.43842027
 30
0.0
 11
657.3922404357
 21
990.43842027
 31
0.0
  0
LINE
  5
2BD
330
1F
100
AcDbEntity
  8
0
  6
Continuous
 62
     7
370
    25
100
AcDbLine
 10
670.3922404357
 20
994.03842027
 30
0.0
 11
670.3922404357
 21
990.43842027
 31
0.0
  0
LINE
  5
2BE
330
1F
100
AcDbEntity
  8
0
  6
Continuous
 62
     7
370
    25
100
AcDbLine
 10
705.1846128115
 20
994.03842027
 30
0.0
 11
670.3922404357
 21
994.03842027
 31
0.0
  0
LINE
  5
2BF
330
1F
100
AcDbEntity
  8
0
  6
Continuous
 62
     7
370
    25
100
AcDbLine
 10
705.1846128115
 20
886.03842027
 30
0.0
 11
705.1846128115
 21
994.03842027
 31
0.0
  0
LINE
  5
2C0
330
1F
100
AcDbEntity
  8
0
  6
Continuous
 62
     7
370
    25
100
AcDbLine
 10
708.7846128115
 20
886.03842027
 30
0.0
 11
705.1846128115
 21
886.03842027
 31
0.0
  0
LINE
  5
2C1
330
1F
100
AcDbEntity
  8
0
  6
Continuous
 62
     7
370
    25
100
AcDbLine
 10
708.7846128115
 20
994.03842027
 30
0.0
 11
708.7846128115
 21
886.03842027
 31
0.0
  0
LINE
  5
2C2
330
1F
100
AcDbEntity
  8
0
  6
Continuous
 62
     7
370
    25
100
AcDbLine
 10
767.2846128115
 20
994.03842027
 30
0.0
 11
708.7846128115
 21
994.03842027
 31
0.0
  0
LINE
  5
2C3
330
1F
100
AcDbEntity
  8
0
  6
Continuous
 62
     7
370
    25
100
AcDbLine
 10
802.0011429996
 20
813.5805965691
 30
0.0
 11
799.4555585874
 21
816.1261809814
 31
0.0
  0
LINE
  5
2C4
330
1F
100
AcDbEntity
  8
0
  6
Continuous
 62
     7
370
    25
100
AcDbLine
 10
811.1935311551
 20
822.7729847246
 30
0.0
 11
802.0011429996
 21
813.5805965691
 31
0.0
  0
LINE
  5
2C5
330
1F
100
AcDbEntity
  8
0
  6
Continuous
 62
     7
370
    25
100
AcDbLine
 10
808.6479467428
 20
825.3185691368
 30
0.0
 11
811.1935311551
 21
822.7729847246
 31
0.0
  0
LINE
  5
2C6
330
1F
100
AcDbEntity
  8
0
  6
Continuous
 62
     7
370
    25
100
AcDbLine
 10
799.4555585874
 20
816.1261809814
 30
0.0
 11
808.6479467428
 21
825.3185691368
 31
0.0
  0
LINE
  5
2C7
330
1F
100
AcDbEntity
  8
0
  6
Continuous
 62
     7
370
    25
100
AcDbLine
 10
165.8546128115
 20
931.03842027
 30
0.0
 11
165.8546128115
 21
934.63842027
 31
0.0
  0
LINE
  5
2C8
330
1F
100
AcDbEntity
  8
0
  6
Continuous
 62
     7
370
    25
100
AcDbLine
 10
175.8546128115
 20
931.03842027
 30
0.0
 11
165.8546128115
 21
931.03842027
 31
0.0
  0
LINE
  5
2C9
330
1F
100
AcDbEntity
  8
0
  6
Continuous
 62
     7
370
    25
100
AcDbLine
 10
175.8546128115
 20
934.63842027
 30
0.0
 11
175.8546128115
 21
931.03842027
 31
0.0
  0
LINE
  5
2CA
330
1F
100
AcDbEntity
  8
0
  6
Continuous
 62
     7
370
    25
100
AcDbLine
 10
165.8546128115
 20
934.63842027
 30
0.0
 11
175.8546128115
 21
934.63842027
 31
0.0
  0
LINE
  5
2CB
330
1F
100
AcDbEntity
  8
0
  6
Continuous
 62
     7
370
    25
100
AcDbLine
 10
845.0560643767
 20
803.9772921006
 30
0.0
 11
842.0507122806
 21
801.9954094658
 31
0.0
  0
LINE
  5
2CC
330
1F
100
AcDbEntity
  8
0
  6
Continuous
 62
     7
370
    25
100
AcDbLine
 10
837.8992659732
 20
814.8299524477
 30
0.0
 11
845.0560643767
 21
803.9772921006
 31
0.0
  0
LINE
  5
2CD
330
1F
100
AcDbEntity
  8
0
  6
Continuous
 62
     7
370
    25
100
AcDbLine
 10
834.893913877
 20
812.8480698129
 30
0.0
 11
837.8992659732
 21
814.8299524477
 31
0.0
  0
LINE
  5
2CE
330
1F
100
AcDbEntity
  8
0
  6
Continuous
 62
     7
370
    25
100
AcDbLine
 10
842.0507122806
 20
801.9954094658
 30
0.0
 11
834.893913877
 21
812.8480698129
 31
0.0
  0
LINE
  5
2CF
330
1F
100
AcDbEntity
  8
0
  6
Continuous
 62
     7
370
    25
100
AcDbLine
 10
559.5409472304
 20
837.0202492408
 30
0.0
 11
578.011375226
 21
805.028529515
 31
0.0
  0
LINE
  5
2D0
330
1F
100
AcDbEntity
  8
0
  6
Continuous
 62
     7
370
    25
100
AcDbLine
 10
541.0705192349
 20
805.028529515
 30
0.0
 11
559.5409472304
 21
837.0202492408
 31
0.0
  0
LINE
  5
2D1
330
1F
100
AcDbEntity
  8
0
  6
Continuous
 62
     7
370
    25
100
AcDbLine
 10
578.011375226
 20
805.028529515
 30
0.0
 11
541.0705192349
 21
805.028529515
 31
0.0
  0
LINE
  5
2D2
330
1F
100
AcDbEntity
  8
0
  6
Continuous
 62
     7
370
    25
100
AcDbLine
 10
716.0705192349
 20
879.1987827078
 30
0.0
 11
753.011375226
 21
879.1987827078
 31
0.0
  0
LINE
  5
2D3
330
1F
100
AcDbEntity
  8
0
  6
Continuous
 62
     7
370
    25
100
AcDbLine
 10
734.5409472304
 20
847.207062982
 30
0.0
 11
716.0705192349
 21
879.1987827078
 31
0.0
  0
LINE
  5
2D4
330
1F
100
AcDbEntity
  8
0
  6
Continuous
 62
     7
370
    25
100
AcDbLine
 10
753.011375226
 20
879.1987827078
 30
0.0
 11
734.5409472304
 21
847.207062982
 31
0.0
  0
LINE
  5
2D5
330
1F
100
AcDbEntity
  8
0
  6
Continuous
 62
     7
370
    25
100
AcDbLine
 10
699.5409472304
 20
879.1987827078
 30
0.0
 11
718.011375226
 21
847.207062982
 31
0.0
  0
LINE
  5
2D6
330
1F
100
AcDbEntity
  8
0
  6
Continuous
 62
     7
370
    25
100
AcDbLine
 10
681.0705192349
 20
847.207062982
 30
0.0
 11
699.5409472304
 21
879.1987827078
 31
0.0
  0
LINE
  5
2D7
330
1F
100
AcDbEntity
  8
0
  6
Continuous
 62
     7
370
    25
100
AcDbLine
 10
718.011375226
 20
847.207062982
 30
0.0
 11
681.0705192349
 21
847.207062982
 31
0.0
  0
LINE
  5
2D8
330
1F
100
AcDbEntity
  8
0
  6
Continuous
 62
     7
370
    25
100
AcDbLine
 10
715.7398011346
 20
837.0202492408
 30
0.0
 11
752.6806571257
 21
837.0202492408
 31
0.0
  0
LINE
  5
2D9
330
1F
100
AcDbEntity
  8
0
  6
Continuous
 62
     7
370
    25
100
AcDbLine
 10
734.2102291302
 20
805.028529515
 30
0.0
 11
715.7398011346
 21
837.0202492408
 31
0.0
  0
LINE
  5
2DA
330
1F
100
AcDbEntity
  8
0
  6
Continuous
 62
     7
370
    25
100
AcDbLine
 10
752.6806571257
 20
837.0202492408
 30
0.0
 11
734.2102291302
 21
805.028529515
 31
0.0
  0
LINE
  5
2DB
330
1F
100
AcDbEntity
  8
0
  6
Continuous
 62
     7
370
    25
100
AcDbLine
 10
489.5409472304
 20
837.0202492408
 30
0.0
 11
508.011375226
 21
805.028529515
 31
0.0
  0
LINE
  5
2DC
330
1F
100
AcDbEntity
  8
0
  6
Continuous
 62
     7
370
    25
100
AcDbLine
 10
471.0705192349
 20
805.028529515
 30
0.0
 11
489.5409472304
 21
837.0202492408
 31
0.0
  0
LINE
  5
2DD
330
1F
100
AcDbEntity
  8
0
  6
Continuous
 62
     7
370
    25
100
AcDbLine
 10
508.011375226
 20
805.028529515
 30
0.0
 11
471.0705192349
 21
805.028529515
 31
0.0
  0
LINE
  5
2DE
330
1F
100
AcDbEntity
  8
0
  6
Continuous
 62
     7
370
    25
100
AcDbLine
 10
576.0705192349
 20
879.1987827078
 30
0.0
 11
613.011375226
 21
879.1987827078
 31
0.0
  0
LINE
  5
2DF
330
1F
100
AcDbEntity
  8
0
  6
Continuous
 62
     7
370
    25
100
AcDbLine
 10
594.5409472304
 20
847.207062982
 30
0.0
 11
576.0705192349
 21
879.1987827078
 31
0.0
  0
LINE
  5
2E0
330
1F
100
AcDbEntity
  8
0
  6
Continuous
 62
     7
370
    25
100
AcDbLine
 10
613.011375226
 20
879.1987827078
 30
0.0
 11
594.5409472304
 21
847.207062982
 31
0.0
  0
LINE
  5
2E1
330
1F
100
AcDbEntity
  8
0
  6
Continuous
 62
     7
370
    25
100
AcDbLine
 10
559.5409472304
 20
879.1987827078
 30
0.0
 11
578.011375226
 21
847.207062982
 31
0.0
  0
LINE
  5
2E2
330
1F
100
AcDbEntity
  8
0
  6
Continuous
 62
     7
370
    25
100
AcDbLine
 10
541.0705192349
 20
847.207062982
 30
0.0
 11
559.5409472304
 21
879.1987827078
 31
0.0
  0
LINE
  5
2E3
330
1F
100
AcDbEntity
  8
0
  6
Continuous
 62
     7
370
    25
100
AcDbLine
 10
578.011375226
 20
847.207062982
 30
0.0
 11
541.0705192349
 21
847.207062982
 31
0.0
  0
LINE
  5
2E4
330
1F
100
AcDbEntity
  8
0
  6
Continuous
 62
     7
370
    25
100
AcDbLine
 10
575.7398011346
 20
837.0202492408
 30
0.0
 11
612.6806571257
 21
837.0202492408
 31
0.0
  0
LINE
  5
2E5
330
1F
100
AcDbEntity
  8
0
  6
Continuous
 62
     7
370
    25
100
AcDbLine
 10
594.2102291302
 20
805.028529515
 30
0.0
 11
575.7398011346
 21
837.0202492408
 31
0.0
  0
LINE
  5
2E6
330
1F
100
AcDbEntity
  8
0
  6
Continuous
 62
     7
370
    25
100
AcDbLine
 10
612.6806571257
 20
837.0202492408
 30
0.0
 11
594.2102291302
 21
805.028529515
 31
0.0
  0
LINE
  5
2E7
330
1F
100
AcDbEntity
  8
0
  6
Continuous
 62
     7
370
    25
100
AcDbLine
 10
536.3546128115
 20
931.03842027
 30
0.0
 11
536.3546128115
 21
934.63842027
 31
0.0
  0
LINE
  5
2E8
330
1F
100
AcDbEntity
  8
0
  6
Continuous
 62
     7
370
    25
100
AcDbLine
 10
546.3546128115
 20
931.03842027
 30
0.0
 11
536.3546128115
 21
931.03842027
 31
0.0
  0
LINE
  5
2E9
330
1F
100
AcDbEntity
  8
0
  6
Continuous
 62
     7
370
    25
100
AcDbLine
 10
546.3546128115
 20
934.63842027
 30
0.0
 11
546.3546128115
 21
931.03842027
 31
0.0
  0
LINE
  5
2EA
330
1F
100
AcDbEntity
  8
0
  6
Continuous
 62
     7
370
    25
100
AcDbLine
 10
536.3546128115
 20
934.63842027
 30
0.0
 11
546.3546128115
 21
934.63842027
 31
0.0
  0
LINE
  5
2EB
330
1F
100
AcDbEntity
  8
0
  6
Continuous
 62
     7
370
    25
100
AcDbLine
 10
769.5409472304
 20
837.0202492408
 30
0.0
 11
788.011375226
 21
805.028529515
 31
0.0
  0
LINE
  5
2EC
330
1F
100
AcDbEntity
  8
0
  6
Continuous
 62
     7
370
    25
100
AcDbLine
 10
751.0705192349
 20
805.028529515
 30
0.0
 11
769.5409472304
 21
837.0202492408
 31
0.0
  0
LINE
  5
2ED
330
1F
100
AcDbEntity
  8
0
  6
Continuous
 62
     7
370
    25
100
AcDbLine
 10
788.011375226
 20
805.028529515
 30
0.0
 11
751.0705192349
 21
805.028529515
 31
0.0
  0
LINE
  5
2EE
330
1F
100
AcDbEntity
  8
0
  6
Continuous
 62
     7
370
    25
100
AcDbLine
 10
556.3546128115
 20
931.03842027
 30
0.0
 11
556.3546128115
 21
934.63842027
 31
0.0
  0
LINE
  5
2EF
330
1F
100
AcDbEntity
  8
0
  6
Continuous
 62
     7
370
    25
100
AcDbLine
 10
566.3546128115
 20
931.03842027
 30
0.0
 11
556.3546128115
 21
931.03842027
 31
0.0
  0
LINE
  5
2F0
330
1F
100
AcDbEntity
  8
0
  6
Continuous
 62
     7
370
    25
100
AcDbLine
 10
566.3546128115
 20
934.63842027
 30
0.0
 11
566.3546128115
 21
931.03842027
 31
0.0
  0
LINE
  5
2F1
330
1F
100
AcDbEntity
  8
0
  6
Continuous
 62
     7
370
    25
100
AcDbLine
 10
556.3546128115
 20
934.63842027
 30
0.0
 11
566.3546128115
 21
934.63842027
 31
0.0
  0
LINE
  5
2F2
330
1F
100
AcDbEntity
  8
0
  6
Continuous
 62
     7
370
    25
100
AcDbLine
 10
576.3546128115
 20
931.03842027
 30
0.0
 11
576.3546128115
 21
934.63842027
 31
0.0
  0
LINE
  5
2F3
330
1F
100
AcDbEntity
  8
0
  6
Continuous
 62
     7
370
    25
100
AcDbLine
 10
586.3546128115
 20
931.03842027
 30
0.0
 11
576.3546128115
 21
931.03842027
 31
0.0
  0
LINE
  5
2F4
330
1F
100
AcDbEntity
  8
0
  6
Continuous
 62
     7
370
    25
100
AcDbLine
 10
586.3546128115
 20
934.63842027
 30
0.0
 11
586.3546128115
 21
931.03842027
 31
0.0
  0
LINE
  5
2F5
330
1F
100
AcDbEntity
  8
0
  6
Continuous
 62
     7
370
    25
100
AcDbLine
 10
576.3546128115
 20
934.63842027
 30
0.0
 11
586.3546128115
 21
934.63842027
 31
0.0
  0
LINE
  5
2F6
330
1F
100
AcDbEntity
  8
0
  6
Continuous
 62
     7
370
    25
100
AcDbLine
 10
786.0705192349
 20
879.1987827078
 30
0.0
 11
823.011375226
 21
879.1987827078
 31
0.0
  0
LINE
  5
2F7
330
1F
100
AcDbEntity
  8
0
  6
Continuous
 62
     7
370
    25
100
AcDbLine
 10
804.5409472304
 20
847.207062982
 30
0.0
 11
786.0705192349
 21
879.1987827078
 31
0.0
  0
LINE
  5
2F8
330
1F
100
AcDbEntity
  8
0
  6
Continuous
 62
     7
370
    25
100
AcDbLine
 10
823.011375226
 20
879.1987827078
 30
0.0
 11
804.5409472304
 21
847.207062982
 31
0.0
  0
LINE
  5
2F9
330
1F
100
AcDbEntity
  8
0
  6
Continuous
 62
     7
370
    25
100
AcDbLine
 10
769.5409472304
 20
879.1987827078
 30
0.0
 11
788.011375226
 21
847.207062982
 31
0.0
  0
LINE
  5
2FA
330
1F
100
AcDbEntity
  8
0
  6
Continuous
 62
     7
370
    25
100
AcDbLine
 10
751.0705192349
 20
847.207062982
 30
0.0
 11
769.5409472304
 21
879.1987827078
 31
0.0
  0
LINE
  5
2FB
330
1F
100
AcDbEntity
  8
0
  6
Continuous
 62
     7
370
    25
100
AcDbLine
 10
788.011375226
 20
847.207062982
 30
0.0
 11
751.0705192349
 21
847.207062982
 31
0.0
  0
LINE
  5
2FC
330
1F
100
AcDbEntity
  8
0
  6
Continuous
 62
     7
370
    25
100
AcDbLine
 10
516.3546128115
 20
931.03842027
 30
0.0
 11
516.3546128115
 21
934.63842027
 31
0.0
  0
LINE
  5
2FD
330
1F
100
AcDbEntity
  8
0
  6
Continuous
 62
     7
370
    25
100
AcDbLine
 10
526.3546128115
 20
931.03842027
 30
0.0
 11
516.3546128115
 21
931.03842027
 31
0.0
  0
LINE
  5
2FE
330
1F
100
AcDbEntity
  8
0
  6
Continuous
 62
     7
370
    25
100
AcDbLine
 10
526.3546128115
 20
934.63842027
 30
0.0
 11
526.3546128115
 21
931.03842027
 31
0.0
  0
LINE
  5
2FF
330
1F
100
AcDbEntity
  8
0
  6
Continuous
 62
     7
370
    25
100
AcDbLine
 10
516.3546128115
 20
934.63842027
 30
0.0
 11
526.3546128115
 21
934.63842027
 31
0.0
  0
LINE
  5
300
330
1F
100
AcDbEntity
  8
0
  6
Continuous
 62
     7
370
    25
100
AcDbLine
 10
699.5409472304
 20
837.0202492408
 30
0.0
 11
718.011375226
 21
805.028529515
 31
0.0
  0
LINE
  5
301
330
1F
100
AcDbEntity
  8
0
  6
Continuous
 62
     7
370
    25
100
AcDbLine
 10
681.0705192349
 20
805.028529515
 30
0.0
 11
699.5409472304
 21
837.0202492408
 31
0.0
  0
LINE
  5
302
330
1F
100
AcDbEntity
  8
0
  6
Continuous
 62
     7
370
    25
100
AcDbLine
 10
718.011375226
 20
805.028529515
 30
0.0
 11
681.0705192349
 21
805.028529515
 31
0.0
  0
LINE
  5
303
330
1F
100
AcDbEntity
  8
0
  6
Continuous
 62
     7
370
    25
100
AcDbLine
 10
365.7398011346
 20
837.0202492408
 30
0.0
 11
402.6806571257
 21
837.0202492408
 31
0.0
  0
LINE
  5
304
330
1F
100
AcDbEntity
  8
0
  6
Continuous
 62
     7
370
    25
100
AcDbLine
 10
384.2102291302
 20
805.028529515
 30
0.0
 11
365.7398011346
 21
837.0202492408
 31
0.0
  0
LINE
  5
305
330
1F
100
AcDbEntity
  8
0
  6
Continuous
 62
     7
370
    25
100
AcDbLine
 10
402.6806571257
 20
837.0202492408
 30
0.0
 11
384.2102291302
 21
805.028529515
 31
0.0
  0
LINE
  5
306
330
1F
100
AcDbEntity
  8
0
  6
Continuous
 62
     7
370
    25
100
AcDbLine
 10
349.5409472304
 20
837.0202492408
 30
0.0
 11
368.011375226
 21
805.028529515
 31
0.0
  0
LINE
  5
307
330
1F
100
AcDbEntity
  8
0
  6
Continuous
 62
     7
370
    25
100
AcDbLine
 10
331.0705192349
 20
805.028529515
 30
0.0
 11
349.5409472304
 21
837.0202492408
 31
0.0
  0
LINE
  5
308
330
1F
100
AcDbEntity
  8
0
  6
Continuous
 62
     7
370
    25
100
AcDbLine
 10
368.011375226
 20
805.028529515
 30
0.0
 11
331.0705192349
 21
805.028529515
 31
0.0
  0
LINE
  5
309
330
1F
100
AcDbEntity
  8
0
  6
Continuous
 62
     7
370
    25
100
AcDbLine
 10
156.0705192349
 20
879.1987827078
 30
0.0
 11
193.011375226
 21
879.1987827078
 31
0.0
  0
LINE
  5
30A
330
1F
100
AcDbEntity
  8
0
  6
Continuous
 62
     7
370
    25
100
AcDbLine
 10
174.5409472304
 20
847.207062982
 30
0.0
 11
156.0705192349
 21
879.1987827078
 31
0.0
  0
LINE
  5
30B
330
1F
100
AcDbEntity
  8
0
  6
Continuous
 62
     7
370
    25
100
AcDbLine
 10
193.011375226
 20
879.1987827078
 30
0.0
 11
174.5409472304
 21
847.207062982
 31
0.0
  0
LINE
  5
30C
330
1F
100
AcDbEntity
  8
0
  6
Continuous
 62
     7
370
    25
100
AcDbLine
 10
158.011375226
 20
847.207062982
 30
0.0
 11
121.0705192349
 21
847.207062982
 31
0.0
  0
LINE
  5
30D
330
1F
100
AcDbEntity
  8
0
  6
Continuous
 62
     7
370
    25
100
AcDbLine
 10
139.5409472304
 20
879.1987827078
 30
0.0
 11
158.011375226
 21
847.207062982
 31
0.0
  0
LINE
  5
30E
330
1F
100
AcDbEntity
  8
0
  6
Continuous
 62
     7
370
    25
100
AcDbLine
 10
121.0705192349
 20
847.207062982
 30
0.0
 11
139.5409472304
 21
879.1987827078
 31
0.0
  0
LINE
  5
30F
330
1F
100
AcDbEntity
  8
0
  6
Continuous
 62
     7
370
    25
100
AcDbLine
 10
366.0705192349
 20
879.1987827078
 30
0.0
 11
403.011375226
 21
879.1987827078
 31
0.0
  0
LINE
  5
310
330
1F
100
AcDbEntity
  8
0
  6
Continuous
 62
     7
370
    25
100
AcDbLine
 10
384.5409472304
 20
847.207062982
 30
0.0
 11
366.0705192349
 21
879.1987827078
 31
0.0
  0
LINE
  5
311
330
1F
100
AcDbEntity
  8
0
  6
Continuous
 62
     7
370
    25
100
AcDbLine
 10
403.011375226
 20
879.1987827078
 30
0.0
 11
384.5409472304
 21
847.207062982
 31
0.0
  0
LINE
  5
312
330
1F
100
AcDbEntity
  8
0
  6
Continuous
 62
     7
370
    25
100
AcDbLine
 10
349.5409472304
 20
879.1987827078
 30
0.0
 11
368.011375226
 21
847.207062982
 31
0.0
  0
LINE
  5
313
330
1F
100
AcDbEntity
  8
0
  6
Continuous
 62
     7
370
    25
100
AcDbLine
 10
331.0705192349
 20
847.207062982
 30
0.0
 11
349.5409472304
 21
879.1987827078
 31
0.0
  0
LINE
  5
314
330
1F
100
AcDbEntity
  8
0
  6
Continuous
 62
     7
370
    25
100
AcDbLine
 10
368.011375226
 20
847.207062982
 30
0.0
 11
331.0705192349
 21
847.207062982
 31
0.0
  0
LINE
  5
315
330
1F
100
AcDbEntity
  8
0
  6
Continuous
 62
     7
370
    25
100
AcDbLine
 10
295.7398011346
 20
837.0202492408
 30
0.0
 11
332.6806571257
 21
837.0202492408
 31
0.0
  0
LINE
  5
316
330
1F
100
AcDbEntity
  8
0
  6
Continuous
 62
     7
370
    25
100
AcDbLine
 10
314.2102291302
 20
805.028529515
 30
0.0
 11
295.7398011346
 21
837.0202492408
 31
0.0
  0
LINE
  5
317
330
1F
100
AcDbEntity
  8
0
  6
Continuous
 62
     7
370
    25
100
AcDbLine
 10
332.6806571257
 20
837.0202492408
 30
0.0
 11
314.2102291302
 21
805.028529515
 31
0.0
  0
LINE
  5
318
330
1F
100
AcDbEntity
  8
0
  6
Continuous
 62
     7
370
    25
100
AcDbLine
 10
279.5409472304
 20
837.0202492408
 30
0.0
 11
298.011375226
 21
805.028529515
 31
0.0
  0
LINE
  5
319
330
1F
100
AcDbEntity
  8
0
  6
Continuous
 62
     7
370
    25
100
AcDbLine
 10
261.0705192349
 20
805.028529515
 30
0.0
 11
279.5409472304
 21
837.0202492408
 31
0.0
  0
LINE
  5
31A
330
1F
100
AcDbEntity
  8
0
  6
Continuous
 62
     7
370
    25
100
AcDbLine
 10
298.011375226
 20
805.028529515
 30
0.0
 11
261.0705192349
 21
805.028529515
 31
0.0
  0
LINE
  5
31B
330
1F
100
AcDbEntity
  8
0
  6
Continuous
 62
     7
370
    25
100
AcDbLine
 10
505.7398011346
 20
837.0202492408
 30
0.0
 11
542.6806571257
 21
837.0202492408
 31
0.0
  0
LINE
  5
31C
330
1F
100
AcDbEntity
  8
0
  6
Continuous
 62
     7
370
    25
100
AcDbLine
 10
524.2102291302
 20
805.028529515
 30
0.0
 11
505.7398011346
 21
837.0202492408
 31
0.0
  0
LINE
  5
31D
330
1F
100
AcDbEntity
  8
0
  6
Continuous
 62
     7
370
    25
100
AcDbLine
 10
542.6806571257
 20
837.0202492408
 30
0.0
 11
524.2102291302
 21
805.028529515
 31
0.0
  0
LINE
  5
31E
330
1F
100
AcDbEntity
  8
0
  6
Continuous
 62
     7
370
    25
100
AcDbLine
 10
155.7398011346
 20
837.0202492408
 30
0.0
 11
192.6806571257
 21
837.0202492408
 31
0.0
  0
LINE
  5
31F
330
1F
100
AcDbEntity
  8
0
  6
Continuous
 62
     7
370
    25
100
AcDbLine
 10
174.2102291302
 20
805.028529515
 30
0.0
 11
155.7398011346
 21
837.0202492408
 31
0.0
  0
LINE
  5
320
330
1F
100
AcDbEntity
  8
0
  6
Continuous
 62
     7
370
    25
100
AcDbLine
 10
192.6806571257
 20
837.0202492408
 30
0.0
 11
174.2102291302
 21
805.028529515
 31
0.0
  0
LINE
  5
321
330
1F
100
AcDbEntity
  8
0
  6
Continuous
 62
     7
370
    25
100
AcDbLine
 10
506.0705192349
 20
879.1987827078
 30
0.0
 11
543.011375226
 21
879.1987827078
 31
0.0
  0
LINE
  5
322
330
1F
100
AcDbEntity
  8
0
  6
Continuous
 62
     7
370
    25
100
AcDbLine
 10
524.5409472304
 20
847.207062982
 30
0.0
 11
506.0705192349
 21
879.1987827078
 31
0.0
  0
LINE
  5
323
330
1F
100
AcDbEntity
  8
0
  6
Continuous
 62
     7
370
    25
100
AcDbLine
 10
543.011375226
 20
879.1987827078
 30
0.0
 11
524.5409472304
 21
847.207062982
 31
0.0
  0
LINE
  5
324
330
1F
100
AcDbEntity
  8
0
  6
Continuous
 62
     7
370
    25
100
AcDbLine
 10
489.5409472304
 20
879.1987827078
 30
0.0
 11
508.011375226
 21
847.207062982
 31
0.0
  0
LINE
  5
325
330
1F
100
AcDbEntity
  8
0
  6
Continuous
 62
     7
370
    25
100
AcDbLine
 10
471.0705192349
 20
847.207062982
 30
0.0
 11
489.5409472304
 21
879.1987827078
 31
0.0
  0
LINE
  5
326
330
1F
100
AcDbEntity
  8
0
  6
Continuous
 62
     7
370
    25
100
AcDbLine
 10
508.011375226
 20
847.207062982
 30
0.0
 11
471.0705192349
 21
847.207062982
 31
0.0
  0
LINE
  5
327
330
1F
100
AcDbEntity
  8
0
  6
Continuous
 62
     7
370
    25
100
AcDbLine
 10
435.7398011346
 20
837.0202492408
 30
0.0
 11
472.6806571257
 21
837.0202492408
 31
0.0
  0
LINE
  5
328
330
1F
100
AcDbEntity
  8
0
  6
Continuous
 62
     7
370
    25
100
AcDbLine
 10
454.2102291302
 20
805.028529515
 30
0.0
 11
435.7398011346
 21
837.0202492408
 31
0.0
  0
LINE
  5
329
330
1F
100
AcDbEntity
  8
0
  6
Continuous
 62
     7
370
    25
100
AcDbLine
 10
472.6806571257
 20
837.0202492408
 30
0.0
 11
454.2102291302
 21
805.028529515
 31
0.0
  0
LINE
  5
32A
330
1F
100
AcDbEntity
  8
0
  6
Continuous
 62
     7
370
    25
100
AcDbLine
 10
419.5409472304
 20
837.0202492408
 30
0.0
 11
438.011375226
 21
805.028529515
 31
0.0
  0
LINE
  5
32B
330
1F
100
AcDbEntity
  8
0
  6
Continuous
 62
     7
370
    25
100
AcDbLine
 10
401.0705192349
 20
805.028529515
 30
0.0
 11
419.5409472304
 21
837.0202492408
 31
0.0
  0
LINE
  5
32C
330
1F
100
AcDbEntity
  8
0
  6
Continuous
 62
     7
370
    25
100
AcDbLine
 10
438.011375226
 20
805.028529515
 30
0.0
 11
401.0705192349
 21
805.028529515
 31
0.0
  0
LINE
  5
32D
330
1F
100
AcDbEntity
  8
0
  6
Continuous
 62
     7
370
    25
100
AcDbLine
 10
436.0705192349
 20
879.1987827078
 30
0.0
 11
473.011375226
 21
879.1987827078
 31
0.0
  0
LINE
  5
32E
330
1F
100
AcDbEntity
  8
0
  6
Continuous
 62
     7
370
    25
100
AcDbLine
 10
454.5409472304
 20
847.207062982
 30
0.0
 11
436.0705192349
 21
879.1987827078
 31
0.0
  0
LINE
  5
32F
330
1F
100
AcDbEntity
  8
0
  6
Continuous
 62
     7
370
    25
100
AcDbLine
 10
473.011375226
 20
879.1987827078
 30
0.0
 11
454.5409472304
 21
847.207062982
 31
0.0
  0
LINE
  5
330
330
1F
100
AcDbEntity
  8
0
  6
Continuous
 62
     7
370
    25
100
AcDbLine
 10
419.5409472304
 20
879.1987827078
 30
0.0
 11
438.011375226
 21
847.207062982
 31
0.0
  0
LINE
  5
331
330
1F
100
AcDbEntity
  8
0
  6
Continuous
 62
     7
370
    25
100
AcDbLine
 10
401.0705192349
 20
847.207062982
 30
0.0
 11
419.5409472304
 21
879.1987827078
 31
0.0
  0
LINE
  5
332
330
1F
100
AcDbEntity
  8
0
  6
Continuous
 62
     7
370
    25
100
AcDbLine
 10
438.011375226
 20
847.207062982
 30
0.0
 11
401.0705192349
 21
847.207062982
 31
0.0
  0
LINE
  5
333
330
1F
100
AcDbEntity
  8
0
  6
Continuous
 62
     7
370
    25
100
AcDbLine
 10
201.3546128115
 20
920.9002028674
 30
0.0
 11
201.3546128115
 21
920.9332028674
 31
0.0
  0
SPLINE
  5
334
330
1F
100
AcDbEntity
  8
0
  6
Continuous
 62
     7
370
    25
100
AcDbSpline
210
0.0
220
0.0
230
1.0
 70
     8
 71
     3
 72
   108
 73
   104
 74
     0
 42
0.00000001
 43
0.00000001
 40
0.0
 40
0.0
 40
0.0
 40
0.0
 40
0.0019528617042596
 40
0.0039059979227897
 40
0.0078123973088718
 40
0.0117184221340916
 40
0.0156243075478371
 40
0.018611600864855
 40
0.0234362917457086
 40
0.027643500573071
 40
0.031247936809405
 40
0.0390596927160899
 40
0.0468714564723208
 40
0.062495039398648
 40
0.0937411219737591
 40
0.1096555031732087
 40
0.1249881596821418
 40
0.1407278129706863
 40
0.1562359107615802
 40
0.1721055760444149
 40
0.1874826379258722
 40
0.2187262168228942
 40
0.2344567487995215
 40
0.2499738819976089
 40
0.2656025735675232
 40
0.2812215249247163
 40
0.2916376945601794
 40
0.3124683671793357
 40
0.3437096362820187
 40
0.3593332348459463
 40
0.3749568658747586
 40
0.3905803388995518
 40
0.406203839085077
 40
0.4218269908539511
 40
0.4374499061431009
 40
0.4499488363725411
 40
0.4594229493535216
 40
0.4686981445321236
 40
0.4767510932148554
 40
0.4843228735597447
 40
0.4921350086659622
 40
0.4999469656975406
 40
0.5038535456831307
 40
0.5058684881163692
 40
0.5077656080540437
 40
0.5098259040933445
 40
0.5116791512135829
 40
0.5127089187480788
 40
0.5136379468529372
 40
0.5146527006249396
 40
0.5156039565258255
 40
0.5166131657455837
 40
0.5175629861903439
 40
0.5185161917687835
 40
0.5195408474867106
 40
0.5205040650538287
 40
0.5215168072936248
 40
0.5234759877218826
 40
0.5244151749670266
 40
0.5254380227513761
 40
0.5273923608866127
 40
0.5292519426415743
 40
0.5312978449559869
 40
0.534853117031663
 40
0.5391123030581579
 40
0.5426937956975415
 40
0.5469237368872419
 40
0.5503558004116812
 40
0.5547356945955647
 40
0.5625474054781576
 40
0.5703591038007905
 40
0.5781708555729085
 40
0.5834780321821885
 40
0.5937943125743711
 40
0.6029218713838939
 40
0.6094177801504239
 40
0.6250412702562655
 40
0.6562880311265039
 40
0.6875349634449462
 40
0.7196916693270626
 40
0.7500279688564382
 40
0.7812742251900406
 40
0.8125199534925948
 40
0.8437655293849179
 40
0.8750109592123244
 40
0.890634416638954
 40
0.9062579525551937
 40
0.9222167964640299
 40
0.9375047767094741
 40
0.9454026145608965
 40
0.9531285000336299
 40
0.9611739561762408
 40
0.9687523335371773
 40
0.976564076244037
 40
0.9804375515468848
 40
0.9843761238115261
 40
0.9857074192237456
 40
0.9882819740922663
 40
0.9921878945487829
 40
0.9960939497120078
 40
0.9980471010533831
 40
0.9990235179247051
 40
1.0
 40
1.0
 40
1.0
 40
1.0
 10
201.3546128115042
 20
920.9332028674322
 30
0.0
 10
201.6937800101693
 20
921.1610096434825
 30
0.0
 10
202.3721620843195
 20
921.6166552184404
 30
0.0
 10
203.7717098485898
 20
922.4615369600191
 30
0.0
 10
205.5673079991183
 20
923.4376396225703
 30
0.0
 10
207.7699592365481
 20
924.5146500903664
 30
0.0
 10
209.8278208850421
 20
925.446990190737
 30
0.0
 10
212.0689172782274
 20
926.4399921189205
 30
0.0
 10
214.3683869000224
 20
927.456903643028
 30
0.0
 10
216.7870747832639
 20
928.523412058837
 30
0.0
 10
219.7796124809588
 20
929.8372503217778
 30
0.0
 10
223.4693366938629
 20
931.4388162408382
 30
0.0
 10
229.4859351392987
 20
933.9937738273476
 30
0.0
 10
240.036799608337
 20
938.4122678943332
 30
0.0
 10
252.2240960689239
 20
943.3129394261243
 30
0.0
 10
264.4764625737447
 20
947.873574417687
 30
0.0
 10
273.7517376987471
 20
951.1282811238085
 30
0.0
 10
283.0131458999405
 20
954.1597741513509
 30
0.0
 10
292.4467768060446
 20
957.0183976793338
 30
0.0
 10
301.8727192154223
 20
959.6328423667125
 30
0.0
 10
314.5582550610765
 20
962.7930059132309
 30
0.0
 10
327.3484257832342
 20
965.4018060910073
 30
0.0
 10
340.2758975960282
 20
967.3585913830977
 30
0.0
 10
350.0191865859842
 20
968.4853198764158
 30
0.0
 10
359.7742833141559
 20
969.2490532337185
 30
0.0
 10
368.4849941280552
 20
969.601329547153
 30
0.0
 10
378.2893858028241
 20
969.6880845412732
 30
0.0
 10
391.3605447233451
 20
969.2834350994823
 30
0.0
 10
405.4734909239863
 20
967.9194430822253
 30
0.0
 10
418.3853878693083
 20
965.8613163550252
 30
0.0
 10
427.9986650834814
 20
963.9164857132181
 30
0.0
 10
437.5153908829171
 20
961.5432903843185
 30
0.0
 10
446.9107303116749
 20
958.7252084399557
 30
0.0
 10
456.141123873037
 20
955.4037302551859
 30
0.0
 10
464.5562264980446
 20
951.7917388779349
 30
0.0
 10
471.5803747714907
 20
948.2441840708088
 30
0.0
 10
477.2533417480863
 20
944.9918733949684
 30
0.0
 10
481.9803562933224
 20
941.9725840567224
 30
0.0
 10
486.2351878677795
 20
938.9646820862957
 30
0.0
 10
490.0927718155609
 20
935.93490072213
 30
0.0
 10
493.7231763723427
 20
932.7102961687254
 30
0.0
 10
496.5579359916176
 20
929.7584419179722
 30
0.0
 10
498.3595515270185
 20
927.5172246064545
 30
0.0
 10
499.298331706746
 20
926.1770918432821
 30
0.0
 10
499.9619408850658
 20
925.1178627695886
 30
0.0
 10
500.5374559618023
 20
924.0455855653418
 30
0.0
 10
500.9356763391675
 20
923.0888676558596
 30
0.0
 10
501.1710969788905
 20
922.3262090901262
 30
0.0
 10
501.3049720472371
 20
921.7178928934136
 30
0.0
 10
501.3672469609256
 20
921.1135792203179
 30
0.0
 10
501.3419025427366
 20
920.4895470267127
 30
0.0
 10
501.2142632994083
 20
919.8899885901552
 30
0.0
 10
500.9572857309035
 20
919.3316403730221
 30
0.0
 10
500.5795258258714
 20
918.8440161832099
 30
0.0
 10
500.1174268693729
 20
918.4334001531366
 30
0.0
 10
499.5896078290075
 20
918.0901575712876
 30
0.0
 10
498.8437791117212
 20
917.7364957673923
 30
0.0
 10
498.0516615891633
 20
917.5133020249518
 30
0.0
 10
497.2459617832553
 20
917.3602441636908
 30
0.0
 10
496.4351146518441
 20
917.2409550090001
 30
0.0
 10
495.4268372744826
 20
917.1481291713781
 30
0.0
 10
494.2013933693125
 20
917.1043138705181
 30
0.0
 10
492.6403108145402
 20
917.1133227353358
 30
0.0
 10
490.5797412627887
 20
917.2240424058444
 30
0.0
 10
488.2054665034071
 20
917.4421443342749
 30
0.0
 10
485.6972111801775
 20
917.7338794668267
 30
0.0
 10
483.3651470066361
 20
918.0401370140448
 30
0.0
 10
480.8708219818943
 20
918.3922108682249
 30
0.0
 10
477.6368527212122
 20
918.8647724270008
 30
0.0
 10
473.4985548297367
 20
919.4847509442587
 30
0.0
 10
468.6490376480841
 20
920.202782463484
 30
0.0
 10
464.3177145147766
 20
920.8435618793208
 30
0.0
 10
459.4694251644507
 20
921.5699115362365
 30
0.0
 10
454.3489688027817
 20
922.3373529247998
 30
0.0
 10
448.9825710166472
 20
923.14153362579
 30
0.0
 10
442.5178451044143
 20
924.1077433650297
 30
0.0
 10
431.4739238149731
 20
925.7382416191333
 30
0.0
 10
415.2906068490981
 20
928.0080843448543
 30
0.0
 10
395.6426216745659
 20
930.4630721713659
 30
0.0
 10
376.141569310404
 20
932.5345494192399
 30
0.0
 10
356.6004651027021
 20
934.1875001090988
 30
0.0
 10
337.2126171788714
 20
935.3289531199551
 30
0.0
 10
317.6067738275354
 20
935.8518640985278
 30
0.0
 10
297.993972835837
 20
935.6476020028618
 30
0.0
 10
281.6704903526638
 20
934.7912459707004
 30
0.0
 10
268.6419639927827
 20
933.7087534352196
 30
0.0
 10
258.8184485022106
 20
932.6950477137004
 30
0.0
 10
249.0888341488461
 20
931.4762279824924
 30
0.0
 10
240.9907015314123
 20
930.2550619394157
 30
0.0
 10
234.6183973628463
 20
929.1545940427078
 30
0.0
 10
229.7531006142243
 20
928.2344161366036
 30
0.0
 10
224.9692335706003
 20
927.2465834699033
 30
0.0
 10
220.1872353489109
 20
926.1652832632628
 30
0.0
 10
216.2785815264874
 20
925.1816612120957
 30
0.0
 10
213.1330484004669
 20
924.2935654011004
 30
0.0
 10
211.3012712868204
 20
923.7427356459423
 30
0.0
 10
209.7359410686024
 20
923.2502595537397
 30
0.0
 10
208.1776855228108
 20
922.7580789571944
 30
0.0
 10
206.1045869866225
 20
922.1075622897858
 30
0.0
 10
204.1413265073085
 20
921.5416267348979
 30
0.0
 10
202.7540349680685
 20
921.1939019561396
 30
0.0
 10
201.955714414305
 20
921.0193926759055
 30
0.0
 10
201.5549844723348
 20
920.9399336879234
 30
0.0
 10
201.3546128115042
 20
920.9002028674321
 30
0.0
  0
MTEXT
  5
336
330
1F
100
AcDbEntity
  8
0
  6
Continuous
 62
     7
100
AcDbMText
 10
0.0
 20
43.4257847082
 30
0.0
 40
15.57
 41
0.0
 71
     1
 72
     1
  1
SOLIDWORKS Educational Product.
  7
SLDTEXTSTYLE0
 73
     1
 44
1.0
  0
MTEXT
  5
337
330
1F
100
AcDbEntity
  8
0
  6
Continuous
 62
     7
100
AcDbMText
 10
0.0
 20
20.0707847082
 30
0.0
 40
15.57
 41
0.0
 71
     1
 72
     1
  1
For Instructional Use Only.
  7
SLDTEXTSTYLE0
 73
     1
 44
1.0
  0
ENDSEC
  0
SECTION
  2
OBJECTS
  0
DICTIONARY
  5
C
330
0
100
AcDbDictionary
281
     1
  3
ACAD_GROUP
350
D
  3
ACAD_LAYOUT
350
1A
  3
ACAD_MLINESTYLE
350
17
  3
ACAD_PLOTSETTINGS
350
19
  3
ACAD_PLOTSTYLENAME
350
E
  3
ACAD_SCALELIST
350
47
  3
DWGPROPS
350
338
  0
DICTIONARY
  5
D
102
{ACAD_REACTORS
330
C
102
}
330
C
100
AcDbDictionary
281
     1
  0
DICTIONARY
  5
1A
102
{ACAD_REACTORS
330
C
102
}
330
C
100
AcDbDictionary
281
     1
  3
Layout1
350
1E
  3
Layout2
350
26
  3
Model
350
22
  0
DICTIONARY
  5
17
102
{ACAD_REACTORS
330
C
102
}
330
C
100
AcDbDictionary
281
     1
  3
Standard
350
18
  0
DICTIONARY
  5
19
102
{ACAD_REACTORS
330
C
102
}
330
C
100
AcDbDictionary
281
     1
  0
ACDBDICTIONARYWDFLT
  5
E
102
{ACAD_REACTORS
330
C
102
}
330
C
100
AcDbDictionary
281
     1
  3
Normal
350
F
100
AcDbDictionaryWithDefault
340
F
  0
DICTIONARY
  5
47
102
{ACAD_REACTORS
330
C
102
}
330
C
100
AcDbDictionary
281
     1
  3
A0
350
48
  3
A1
350
49
  3
A2
350
4A
  3
A3
350
4B
  3
A4
350
4C
  3
A5
350
4D
  3
A6
350
4E
  3
A7
350
4F
  3
A8
350
50
  3
A9
350
51
  3
B0
350
52
  3
B1
350
53
  3
B2
350
54
  3
B3
350
55
  3
B4
350
56
  3
B5
350
57
  3
B6
350
58
  3
B7
350
59
  3
B8
350
5A
  3
B9
350
5B
  3
C0
350
5C
  3
C1
350
5D
  3
C2
350
5E
  3
C3
350
5F
  3
C4
350
60
  3
C5
350
61
  3
C6
350
62
  3
C7
350
63
  3
C8
350
64
  3
C9
350
65
  3
D0
350
66
  3
D1
350
67
  3
D2
350
68
  0
XRECORD
  5
338
102
{ACAD_REACTORS
330
C
102
}
330
C
100
AcDbXrecord
280
     1
  1
DWGPROPS COOKIE
  2

  3

  4

  6

  7

  8
Coke is good
  9

300
=
301
=
302
=
303
=
304
=
305
=
306
=
307
=
308
=
309
=
 40
0.0
 41
2460031.471719699
 42
2460031.471720185
  1

 90
        0
  0
LAYOUT
  5
1E
102
{ACAD_REACTORS
330
1A
102
}
330
1A
100
AcDbPlotSettings
  1

  2
none_device
  4

  6

 40
0.0
 41
0.0
 42
0.0
 43
0.0
 44
0.0
 45
0.0
 46
0.0
 47
0.0
 48
0.0
 49
0.0
140
0.0
141
0.0
142
1.0
143
1.0
 70
   688
 72
     1
 73
     0
 74
     5
  7

 75
    16
147
1.0
148
0.0
149
0.0
100
AcDbLayout
  1
Layout1
 70
     1
 71
     1
 10
0.0
 20
0.0
 11
420.0
 21
297.0
 12
0.0
 22
0.0
 32
0.0
 14
1.0000000000E+20
 24
1.0000000000E+20
 34
1.0000000000E+20
 15
-1.0000000000E+20
 25
-1.0000000000E+20
 35
-1.0000000000E+20
146
0.0
 13
0.0
 23
0.0
 33
0.0
 16
1.0
 26
0.0
 36
0.0
 17
0.0
 27
1.0
 37
0.0
 76
     0
330
1B
  0
LAYOUT
  5
26
102
{ACAD_REACTORS
330
1A
102
}
330
1A
100
AcDbPlotSettings
  1

  2
none_device
  4

  6

 40
0.0
 41
0.0
 42
0.0
 43
0.0
 44
0.0
 45
0.0
 46
0.0
 47
0.0
 48
0.0
 49
0.0
140
0.0
141
0.0
142
1.0
143
1.0
 70
   688
 72
     1
 73
     0
 74
     5
  7

 75
    16
147
1.0
148
0.0
149
0.0
100
AcDbLayout
  1
Layout2
 70
     1
 71
     2
 10
0.0
 20
0.0
 11
0.0
 21
0.0
 12
0.0
 22
0.0
 32
0.0
 14
0.0
 24
0.0
 34
0.0
 15
0.0
 25
0.0
 35
0.0
146
0.0
 13
0.0
 23
0.0
 33
0.0
 16
1.0
 26
0.0
 36
0.0
 17
0.0
 27
1.0
 37
0.0
 76
     0
330
23
  0
LAYOUT
  5
22
102
{ACAD_REACTORS
330
1A
102
}
330
1A
100
AcDbPlotSettings
  1

  2
none_device
  4
Letter_(8.50_x_11.00_Inches)
  6

 40
6.35
 41
6.35
 42
6.35000508
 43
6.35000508
 44
215.9
 45
279.4
 46
0.0
 47
0.0
 48
0.0
 49
0.0
140
0.0
141
0.0
142
1.0
143
1.0
 70
  1712
 72
     1
 73
     0
 74
     0
  7

 75
     0
147
1.0
148
0.0
149
0.0
100
AcDbLayout
  1
Model
 70
     1
 71
     0
 10
0.0
 20
0.0
 11
900.0
 21
1220.0
 12
0.0
 22
0.0
 32
0.0
 14
0.0
 24
0.0
 34
0.0
 15
900.0
 25
1220.0
 35
0.0
146
0.0
 13
0.0
 23
0.0
 33
0.0
 16
1.0
 26
0.0
 36
0.0
 17
0.0
 27
1.0
 37
0.0
 76
     0
330
1F
331
29
  0
MLINESTYLE
  5
18
102
{ACAD_REACTORS
330
17
102
}
330
17
100
AcDbMlineStyle
  2
Standard
 70
     0
  3

 62
   256
 51
90.0
 52
90.0
 71
     2
 49
0.5
 62
   256
  6
BYLAYER
 49
-0.5
 62
   256
  6
BYLAYER
  0
ACDBPLACEHOLDER
  5
F
102
{ACAD_REACTORS
330
E
102
}
330
E
  0
SCALE
  5
48
102
{ACAD_REACTORS
330
47
102
}
330
47
100
AcDbScale
 70
     0
300
1:1
140
1.0
141
1.0
290
     1
  0
SCALE
  5
49
102
{ACAD_REACTORS
330
47
102
}
330
47
100
AcDbScale
 70
     0
300
1:2
140
1.0
141
2.0
290
     0
  0
SCALE
  5
4A
102
{ACAD_REACTORS
330
47
102
}
330
47
100
AcDbScale
 70
     0
300
1:4
140
1.0
141
4.0
290
     0
  0
SCALE
  5
4B
102
{ACAD_REACTORS
330
47
102
}
330
47
100
AcDbScale
 70
     0
300
1:5
140
1.0
141
5.0
290
     0
  0
SCALE
  5
4C
102
{ACAD_REACTORS
330
47
102
}
330
47
100
AcDbScale
 70
     0
300
1:8
140
1.0
141
8.0
290
     0
  0
SCALE
  5
4D
102
{ACAD_REACTORS
330
47
102
}
330
47
100
AcDbScale
 70
     0
300
1:10
140
1.0
141
10.0
290
     0
  0
SCALE
  5
4E
102
{ACAD_REACTORS
330
47
102
}
330
47
100
AcDbScale
 70
     0
300
1:16
140
1.0
141
16.0
290
     0
  0
SCALE
  5
4F
102
{ACAD_REACTORS
330
47
102
}
330
47
100
AcDbScale
 70
     0
300
1:20
140
1.0
141
20.0
290
     0
  0
SCALE
  5
50
102
{ACAD_REACTORS
330
47
102
}
330
47
100
AcDbScale
 70
     0
300
1:30
140
1.0
141
30.0
290
     0
  0
SCALE
  5
51
102
{ACAD_REACTORS
330
47
102
}
330
47
100
AcDbScale
 70
     0
300
1:40
140
1.0
141
40.0
290
     0
  0
SCALE
  5
52
102
{ACAD_REACTORS
330
47
102
}
330
47
100
AcDbScale
 70
     0
300
1:50
140
1.0
141
50.0
290
     0
  0
SCALE
  5
53
102
{ACAD_REACTORS
330
47
102
}
330
47
100
AcDbScale
 70
     0
300
1:100
140
1.0
141
100.0
290
     0
  0
SCALE
  5
54
102
{ACAD_REACTORS
330
47
102
}
330
47
100
AcDbScale
 70
     0
300
2:1
140
2.0
141
1.0
290
     0
  0
SCALE
  5
55
102
{ACAD_REACTORS
330
47
102
}
330
47
100
AcDbScale
 70
     0
300
4:1
140
4.0
141
1.0
290
     0
  0
SCALE
  5
56
102
{ACAD_REACTORS
330
47
102
}
330
47
100
AcDbScale
 70
     0
300
8:1
140
8.0
141
1.0
290
     0
  0
SCALE
  5
57
102
{ACAD_REACTORS
330
47
102
}
330
47
100
AcDbScale
 70
     0
300
10:1
140
10.0
141
1.0
290
     0
  0
SCALE
  5
58
102
{ACAD_REACTORS
330
47
102
}
330
47
100
AcDbScale
 70
     0
300
100:1
140
100.0
141
1.0
290
     0
  0
SCALE
  5
59
102
{ACAD_REACTORS
330
47
102
}
330
47
100
AcDbScale
 70
     0
300
1/128" = 1'-0"
140
0.0078125
141
12.0
290
     0
  0
SCALE
  5
5A
102
{ACAD_REACTORS
330
47
102
}
330
47
100
AcDbScale
 70
     0
300
1/64" = 1'-0"
140
0.015625
141
12.0
290
     0
  0
SCALE
  5
5B
102
{ACAD_REACTORS
330
47
102
}
330
47
100
AcDbScale
 70
     0
300
1/32" = 1'-0"
140
0.03125
141
12.0
290
     0
  0
SCALE
  5
5C
102
{ACAD_REACTORS
330
47
102
}
330
47
100
AcDbScale
 70
     0
300
1/16" = 1'-0"
140
0.0625
141
12.0
290
     0
  0
SCALE
  5
5D
102
{ACAD_REACTORS
330
47
102
}
330
47
100
AcDbScale
 70
     0
300
3/32" = 1'-0"
140
0.09375
141
12.0
290
     0
  0
SCALE
  5
5E
102
{ACAD_REACTORS
330
47
102
}
330
47
100
AcDbScale
 70
     0
300
1/8" = 1'-0"
140
0.125
141
12.0
290
     0
  0
SCALE
  5
5F
102
{ACAD_REACTORS
330
47
102
}
330
47
100
AcDbScale
 70
     0
300
3/16" = 1'-0"
140
0.1875
141
12.0
290
     0
  0
SCALE
  5
60
102
{ACAD_REACTORS
330
47
102
}
330
47
100
AcDbScale
 70
     0
300
1/4" = 1'-0"
140
0.25
141
12.0
290
     0
  0
SCALE
  5
61
102
{ACAD_REACTORS
330
47
102
}
330
47
100
AcDbScale
 70
     0
300
3/8" = 1'-0"
140
0.375
141
12.0
290
     0
  0
SCALE
  5
62
102
{ACAD_REACTORS
330
47
102
}
330
47
100
AcDbScale
 70
     0
300
1/2" = 1'-0"
140
0.5
141
12.0
290
     0
  0
SCALE
  5
63
102
{ACAD_REACTORS
330
47
102
}
330
47
100
AcDbScale
 70
     0
300
3/4" = 1'-0"
140
0.75
141
12.0
290
     0
  0
SCALE
  5
64
102
{ACAD_REACTORS
330
47
102
}
330
47
100
AcDbScale
 70
     0
300
1" = 1'-0"
140
1.0
141
12.0
290
     0
  0
SCALE
  5
65
102
{ACAD_REACTORS
330
47
102
}
330
47
100
AcDbScale
 70
     0
300
1-1/2" = 1'-0"
140
1.5
141
12.0
290
     0
  0
SCALE
  5
66
102
{ACAD_REACTORS
330
47
102
}
330
47
100
AcDbScale
 70
     0
300
3" = 1'-0"
140
3.0
141
12.0
290
     0
  0
SCALE
  5
67
102
{ACAD_REACTORS
330
47
102
}
330
47
100
AcDbScale
 70
     0
300
6" = 1'-0"
140
6.0
141
12.0
290
     0
  0
SCALE
  5
68
102
{ACAD_REACTORS
330
47
102
}
330
47
100
AcDbScale
 70
     0
300
1'-0" = 1'-0"
140
12.0
141
12.0
290
     0
  0
ENDSEC
  0
EOF
